<?xml version="1.0" encoding="UTF-8"?>
<svg width="364px" height="68px" viewBox="0 0 364 68" version="1.1" xmlns="http://www.w3.org/2000/svg" xmlns:xlink="http://www.w3.org/1999/xlink">
    <!-- Generator: Sketch 64 (93537) - https://sketch.com -->
    <title>1Password wordmark / dark grey / coloured icon / 1P-wordmark</title>
    <desc>Created with Sketch.</desc>
    <g id="1Password-wordmark-/-dark-grey-/-coloured-icon-/-1P-wordmark" stroke="none" stroke-width="1" fill="none" fill-rule="evenodd">
        <g id="1Password-logo-/-coloured-/-light-bg-/-128px" transform="translate(229.000000, 4.000000)">
            <path d="M0,32 C0,49.6736318 14.3270349,64 32,64 C49.6729651,64 64,49.6736318 64,32 C64,14.3270349 49.6729651,0 32,0 C14.3270349,0 0,14.3270349 0,32 Z" id="outer-stroke" fill-opacity="0.25" fill="#000000"></path>
            <path d="M2,32 C2,48.5690788 15.4314385,62 32,62 C48.5685615,62 62,48.5690788 62,32 C62,15.4314385 48.5685615,2 32,2 C15.4314385,2 2,15.4314385 2,32 Z" id="white" fill="#FFFFFF"></path>
            <path d="M32,7 C45.807004,7 57,18.192996 57,32 C57,45.8075248 45.807004,57 32,57 C18.192996,57 7,45.8075248 7,32 C7,18.192996 18.192996,7 32,7 Z M32,13.5 C21.7827204,13.5 13.5,21.7827204 13.5,32 C13.5,42.2175986 21.7827204,50.5 32,50.5 C42.2172796,50.5 50.5,42.2175986 50.5,32 C50.5,21.7827204 42.2172796,13.5 32,13.5 Z" id="color" fill="#198CFF"></path>
            <path d="M32.1241611,13.5 C42.2171389,13.5 50.5,21.7828611 50.5,32.1241611 C50.5,42.2176528 42.2171389,50.5 32.1241611,50.5 C21.7828611,50.5 13.5,42.2176528 13.5,32.1241611 C13.5,21.7828611 21.7828611,13.5 32.1241611,13.5 L32.1241611,13.5 Z" id="plate-fill" fill="#F7F7F7"></path>
            <path d="M28,26.5724247 L28,19.5483871 C28,18.6932365 28.6932365,18 29.5483871,18 L34.4516129,18 C35.3067635,18 36,18.6932365 36,19.5483871 L36,32.5724247 C36,32.8461966 35.8912446,33.1087554 35.6976586,33.3023414 L34.7299167,34.2700833 C34.3267948,34.6732052 34.3267948,35.3267948 34.7299167,35.7299167 L35.6976586,36.6976586 C35.8912446,36.8912446 36,37.1538034 36,37.4275753 L36,44.4516129 C36,45.3067635 35.3067635,46 34.4516129,46 L29.5483871,46 C28.6932365,46 28,45.3067635 28,44.4516129 L28,31.4275753 C28,31.1538034 28.1087554,30.8912446 28.3023414,30.6976586 L29.2700833,29.7299167 C29.6732052,29.3267948 29.6732052,28.6732052 29.2700833,28.2700833 L28.3023414,27.3023414 C28.1087554,27.1087554 28,26.8461966 28,26.5724247 Z" id="keyhole-outer" fill="#454F5B"></path>
        </g>
        <g id="zzz---document-symbol-/-1Password" fill="#454F5B">
            <path d="M87.9811065,17.1382114 C99.4530001,17.1382114 104.057256,20.2703231 104.057256,30.9598671 L104.057256,30.9598671 L104.057767,49.6683955 C104.065857,50.7500355 104.182417,50.8955952 105.264904,51.041865 L105.264904,51.041865 L108.335431,51.5596143 L108.335431,44.7807466 L116.411485,45.3916442 L117.167224,49.7439986 C117.24088,50.4309674 117.393562,50.7368043 118.072577,50.8889465 C118.97793,51.1947835 121.015741,51.6527626 123.884481,51.6527626 C127.883378,51.6527626 130.147527,50.5078147 130.147527,47.6823162 C130.147527,44.6278281 127.128406,43.7118698 123.27989,43.0241248 C116.940886,41.8791769 108.638494,40.5052394 108.638494,30.5018879 C108.638494,21.0333629 116.637823,17.1382114 125.316933,17.1382114 C131.279218,17.1382114 137.091123,18.5137013 139.204891,19.3528123 L139.204891,19.3528123 L139.204891,30.4250406 L131.128838,29.8909903 L130.373866,25.9197677 C130.299443,25.30887 130.147527,25.0038093 129.620428,24.8508909 C128.639118,24.5458302 126.827645,24.2399933 124.789834,24.2399933 C121.015741,24.2399933 118.901972,25.6907781 118.901972,28.1343686 C118.901972,31.2649278 123.053552,31.9518965 127.65704,33.0215495 C133.619325,34.395487 140.337349,36.5340168 140.337349,45.4677153 C140.337349,54.7833218 132.865887,58.601626 123.27989,58.601626 C117.07362,58.601626 111.004687,57.107372 108.88785,56.1425108 L108.88785,56.1425108 L108.88785,57.6848915 L94.9998921,57.6848915 L94.2441527,53.5615266 L93.8674339,53.4854555 C91.0002278,56.310954 87.2261344,58.601626 81.1878919,58.601626 C71.6793862,58.601626 70.1686747,52.0354469 70.1686747,47.3004081 C70.1686747,39.664576 74.8488881,36.1521087 84.2829707,35.5412111 L84.2829707,35.5412111 L92.9620812,34.9310897 L92.9620812,30.7308775 C92.9620812,27.1415629 92.5853623,24.6987486 87.905149,24.6987486 C84.2829707,24.6987486 82.3955404,25.2327989 82.3955404,29.8149192 L82.3955404,29.8149192 L71.753042,28.8974084 C71.753042,18.5897724 81.0375112,17.1382114 87.9811065,17.1382114 Z M359.184799,0 L359.184799,49.6626451 C359.184799,50.8090466 359.260526,50.9620555 360.38879,51.1142877 L360.38879,51.1142877 L364,51.6494305 L364,57.6851261 L350.004936,57.6851261 L349.253015,53.4063142 L348.725982,53.3294214 C345.566078,56.4618317 341.879141,58.601626 336.386216,58.601626 C327.507734,58.601626 321.789157,52.8711715 321.789157,38.2786287 C321.789157,22.9218183 329.387154,17.1144709 337.740133,17.1144709 C342.104793,17.1144709 345.490351,18.6422297 348.350404,20.782024 L348.350404,20.782024 L348.350404,9.16888264 C348.350404,8.40461491 348.049024,7.87024886 347.372065,7.64112388 L347.372065,7.64112388 L343.233058,6.18870452 L344.059941,0 L359.184799,0 Z M157.959474,17.1382114 C162.916646,17.1382114 167.764276,18.078233 170.497432,18.8785322 L170.497432,18.8785322 L170.688745,17.9028037 L189.887951,17.9028037 L189.887951,24.2399933 L185.638175,24.6987486 L191.709283,46.154684 L192.240795,46.154684 L198.993071,18.8948331 L210.452577,18.8948331 L216.979598,46.154684 L217.434738,46.154684 L223.125534,24.6987486 L218.800159,24.2399933 L219.785267,17.9028037 L235.722892,17.9028037 L235.722892,19.902439 C234.777897,21.2996636 233.946302,23.0298416 233.23042,24.5745509 L233.23042,24.5745509 L232.989736,24.6219013 C231.928256,24.7748198 231.473116,25.1567278 231.168403,26.1495335 L231.168403,26.1495335 L221.835713,57.6848915 L209.844695,57.6848915 L203.926329,32.1055912 L203.471188,32.1055912 L197.476451,57.6848915 L183.816842,57.6848915 L174.255039,26.0734624 C173.952641,25.1567278 173.571557,25.0038093 172.661277,24.7748198 L172.661277,24.7748198 L171.923024,24.6156914 L171.923024,30.4250406 L163.803013,29.8909903 L163.043931,25.9197677 C162.969103,25.30887 162.816361,25.0038093 162.286393,24.8508909 C161.299741,24.5458302 159.478408,24.2399933 157.429506,24.2399933 C153.63487,24.2399933 151.509596,25.6907781 151.509596,28.1343686 C151.509596,31.2649278 155.683773,31.9526727 160.312318,33.0215495 C166.307056,34.395487 173.061646,36.5340168 173.061646,45.4677153 C173.061646,54.7840981 165.549517,58.601626 155.911343,58.601626 C149.005553,58.601626 142.251734,56.7689332 140.885542,55.8529748 L140.885542,55.8529748 L140.885542,44.7807466 L149.005553,45.3916442 L149.765406,49.7439986 C149.839463,50.4309674 149.992976,50.7368043 150.675687,50.8889465 C151.585967,51.1947835 153.63487,51.6527626 156.519225,51.6527626 C160.539888,51.6527626 162.816361,50.5078147 162.816361,47.6823162 C162.816361,44.6278281 159.780807,43.7118698 155.911343,43.0241248 C149.537065,41.8791769 141.190255,40.5052394 141.190255,30.5018879 C141.190255,21.0333629 149.233124,17.1382114 157.959474,17.1382114 Z M53.041996,2.21138211 C67.031947,2.21138211 71.2650602,9.69521213 71.2650602,18.4761566 C71.2650602,31.7624582 63.3269161,37.1077184 50.5468652,37.1077184 L50.5468652,37.1077184 L45.026984,37.1077184 L45.026984,49.3251233 C45.026984,50.5477177 45.1030832,50.6998628 46.2376528,50.8527841 L46.2376528,50.8527841 L57.0498864,51.4636932 L57.0498864,57.495935 L0.885260899,57.495935 L0.885260899,51.4900188 L7.38306505,50.9567435 C8.4417047,50.881003 8.59228044,50.5772679 8.59228044,49.4372954 L8.59228044,49.4372954 L8.59228031,23.1822525 C8.59228031,22.0932162 7.77668242,22.2728994 2.09610263,24.2052351 C2.09610263,24.205235 -3.45002906e-16,17.9705516 -3.45002906e-16,17.9705516 L-3.45002906e-16,17.9705516 L12.983013,10.504065 L20.0030023,10.504065 L20.0035143,49.5903339 C20.0116156,50.6725463 20.1283596,50.8842961 21.2129859,50.9567435 L21.2129859,50.9567435 L27.4096386,51.4900188 L27.4096386,51.4636932 L32.17314,50.9288567 C33.2308418,50.7767116 33.3830402,50.5477177 33.3830402,49.4019721 L33.3830402,49.4019721 L33.3830402,10.3821937 C33.3830402,9.2372244 33.2308418,8.9306055 32.17314,8.85453296 L32.17314,8.85453296 L27.4096386,8.32047269 L27.4096386,2.21138211 Z M315.713988,16.0325203 C317.464066,16.0325203 320.966545,16.345272 322.337349,16.7358148 L322.337349,16.7358148 L322.337349,30.9469665 L313.201491,30.6350086 L312.439073,26.4962081 C312.287364,25.7929137 312.059025,25.6373316 311.449091,25.6373316 C309.4699,25.6373316 307.109887,27.3550846 305.967421,28.370337 L305.967421,28.370337 L305.967937,49.2199337 C305.976099,50.3314471 306.093722,50.5489955 307.186516,50.6249229 L307.186516,50.6249229 L314.723231,51.2488387 L314.723231,57.495935 L289.824283,57.495935 L289.824283,51.1710477 L293.252455,50.7019201 C294.317518,50.5455443 294.469228,50.3113774 294.469228,49.1405429 L294.469228,49.1405429 L294.469228,26.2612474 C294.469228,25.4031647 294.24089,24.8562461 293.480794,24.6220792 L293.480794,24.6220792 L289.818091,23.3012192 C289.699664,23.0472077 289.570402,22.8003402 289.445783,22.5502976 L289.445783,22.5502976 L290.206653,16.8136058 L303.606634,16.8136058 L304.520762,23.0599083 L304.977439,23.0599083 C307.489935,19.0782774 310.840704,16.0325203 315.713988,16.0325203 Z M93.1927711,41.4634146 L87.9025113,41.8351898 C83.3144563,42.1321565 81.6807229,43.2467264 81.6807229,46.220172 C81.6807229,49.1943733 83.5477339,50.3089431 86.1145774,50.3089431 C88.7597073,50.3089431 91.4048372,48.8958952 93.1927711,47.6332198 L93.1927711,47.6332198 L93.1927711,41.4634146 Z M341.616799,26.5365854 C336.0358,26.5365854 333.849398,31.7217697 333.849398,38.4094964 C333.849398,45.6983929 335.959138,49.7560976 340.711419,49.7560976 C343.275766,49.7560976 346.066265,48.2535552 348.10241,46.5249058 L348.10241,46.5249058 L348.10241,28.7915447 C346.216523,27.5135817 343.802434,26.5365854 341.616799,26.5365854 Z M49.9502332,11.0569106 L45.5,11.0569106 L45.5,28.7479675 L49.4846088,28.7472758 C54.404074,28.7150492 59.753012,27.5287129 59.753012,19.3516924 C59.753012,12.3039263 55.3027789,11.0569106 49.9502332,11.0569106 L49.9502332,11.0569106 Z" id="1Passw--rd"></path>
        </g>
    </g>
</svg>