<svg width="330" height="101" viewBox="0 0 330 101" xmlns="http://www.w3.org/2000/svg"><title>logo</title><g fill="none" fill-rule="evenodd"><path d="M26.12 16.131c-5.492-.003-9.951 4.397-9.948 9.838.003 5.44 4.465 9.847 9.96 9.847l15.083.005c2.648 0 5.897-1.85 7.219-4.119L63.132 6.533C65.112 3.135 69.987.36 73.96.36l23.12.006c14.395.003 26.075 11.532 26.08 25.75.01 14.223-11.66 25.748-26.053 25.745l-8.86-.002c-2.647 0-5.894 1.851-7.221 4.113l-4.593 7.84-18.882-.006 12.753-21.803c1.986-3.398 6.855-6.176 10.828-6.176l15.967.006c5.5 0 9.963-4.406 9.96-9.844-.002-5.44-4.467-9.843-9.972-9.843l-18.106-.003c-2.648-.003-5.894 1.848-7.213 4.11L56.95 45.674c-1.98 3.395-6.855 6.18-10.825 6.18l-19.983-.007C11.75 51.844.072 40.31.067 26.09.06 11.87 11.722.35 26.112.35l27.27.006-9.217 15.78-18.044-.004z" fill="#26824A"/><path d="M14.674 99.9l-.712-3.07c-2.297.65-3.785.931-5.862.931-2.514 0-4.497-1.582-4.497-5.118V87.68c0-3.659 1.983-5.118 4.497-5.118 2.077 0 3.565.281 5.862.932l.712-3.041c-2.76-.774-4.37-1.023-6.606-1.023-4.465 0-8 2.948-8 7.907v5.649c0 4.96 3.535 7.907 8 7.907 2.235 0 3.846-.217 6.606-.993M28.754 92.643c0 3.66-1.954 5.147-4.497 5.147s-4.497-1.488-4.497-5.147v-4.869c0-3.566 1.954-5.18 4.497-5.18s4.497 1.614 4.497 5.18v4.87zm3.536.343v-5.555c0-4.93-3.659-7.969-8.033-7.969-4.436 0-8.033 3.038-8.033 7.97v5.554c0 4.96 3.597 7.94 8.033 7.94 4.374 0 8.033-2.98 8.033-7.94zM56.856 100.644l-2.854-20.936h-4.467l-3.038 10.114-1.055 4.558-1.055-4.558-3.041-10.114h-4.435l-2.76 20.936h3.475l1.517-12.126.437-4.59 1.054 4.59 2.728 9.056h4.157l2.728-9.056 1.054-4.59.466 4.59 1.582 12.126zM70.807 94.442c0 1.799-.993 3.07-3.38 3.07H63.64v-6.173h4.063c2.36 0 3.103 1.272 3.103 3.103m-.744-8.839c0 1.676-.653 2.821-2.886 2.821h-3.536v-5.581H66.9c2.294 0 3.164 1.117 3.164 2.76m4.28 8.839c0-1.893-.744-3.659-3.135-4.808 1.864-1.084 2.391-2.513 2.391-4.031 0-3.287-2.452-5.894-6.7-5.894h-6.79v20.935h7.317c4.436 0 6.917-2.76 6.917-6.202M89.012 92.643c0 3.66-1.954 5.147-4.497 5.147s-4.497-1.488-4.497-5.147v-4.869c0-3.566 1.954-5.18 4.497-5.18s4.497 1.614 4.497 5.18v4.87zm3.536.343v-5.555c0-4.93-3.659-7.969-8.033-7.969-4.436 0-8.033 3.038-8.033 7.97v5.554c0 4.96 3.597 7.94 8.033 7.94 4.374 0 8.033-2.98 8.033-7.94zM96.114 100.645h3.536V79.709h-3.536zM115.743 92.643c0 3.66-1.954 5.147-4.497 5.147s-4.497-1.488-4.497-5.147v-4.869c0-3.566 1.954-5.18 4.497-5.18s4.497 1.614 4.497 5.18v4.87zm3.536.343v-5.555c0-4.93-3.66-7.969-8.033-7.969-4.436 0-8.033 3.038-8.033 7.97v5.554c0 4.96 3.597 7.94 8.033 7.94 4.374 0 8.033-2.98 8.033-7.94zM135.407 94.814c0-3.879-2.76-5.273-5.147-6.234-.592-.246-1.15-.434-1.708-.683-1.457-.618-2.605-1.304-2.605-2.854 0-1.394 1.055-2.48 3.193-2.48 1.644 0 3.103.403 4.996 1.024l.93-2.976c-1.956-.686-3.878-1.18-5.926-1.18-3.782 0-6.73 2.17-6.73 5.674 0 4.342 3.476 5.18 6.64 6.577 1.426.651 2.789 1.427 2.789 3.161 0 1.77-1.518 2.918-3.411 2.918-1.737 0-3.413-.433-5.83-1.148l-.682 3.07c2.2.715 4.093 1.21 6.512 1.21 3.598 0 6.979-2.016 6.979-6.079M158.812 93.294c0 2.947-1.271 4.219-4.063 4.219h-3.721V83.245c.931-.278 2.42-.682 3.721-.682 2.358 0 4.063 1.614 4.063 4.467v6.264zm3.568.343v-6.98c0-4.28-3.474-7.226-7.631-7.226-2.45 0-4.682.744-7.257 1.708v19.506h7.257c4.746 0 7.631-2.76 7.631-7.008zM178.036 100.644v-3.132h-5.89c-1.985 0-3.256-1.304-3.256-3.07 0-1.708 1.054-3.103 3.257-3.103h5.455l.094-2.915h-5.426c-2.232 0-3.228-1.303-3.228-2.82 0-1.645.873-2.76 3.199-2.76h5.795v-3.136h-5.795c-4.377 0-6.732 2.608-6.732 5.895 0 1.734.96 3.226 2.73 4.28-1.863 1.084-2.883 2.698-2.883 4.56 0 3.441 2.63 6.201 6.79 6.201h5.89zM200.606 86.098c0 2.11-.932 3.32-2.73 3.32h-3.938v-6.575h3.938c1.798 0 2.73 1.178 2.73 3.255m3.539 0c0-3.442-2.268-6.39-6.269-6.39h-7.471v20.936h3.533v-8.186h3.938c4.001 0 6.269-2.947 6.269-6.36M218.993 92.643c0 3.66-1.951 5.147-4.494 5.147-2.543 0-4.5-1.488-4.5-5.147v-4.869c0-3.566 1.957-5.18 4.5-5.18s4.494 1.614 4.494 5.18v4.87zm3.539.343v-5.555c0-4.93-3.662-7.969-8.033-7.969-4.436 0-8.033 3.038-8.033 7.97v5.554c0 4.96 3.597 7.94 8.033 7.94 4.37 0 8.033-2.98 8.033-7.94zM236.142 85.85c0 1.862-1.084 3.102-3.006 3.102h-3.662v-6.109h3.662c1.922 0 3.006 1.207 3.006 3.006zm3.973 14.794l-4.436-9.056c2.48-.928 4.002-3.164 4.002-5.739 0-3.41-2.672-6.14-6.545-6.14h-7.195v20.935h3.533V91.99h2.79l4.095 8.654h3.756zM256.855 79.709H241.72v3.135h5.801v17.8h3.533v-17.8h5.619zM274.627 93.636V79.68h-3.54v13.614c0 2.886-1.675 4.436-4.001 4.436-2.356 0-4.062-1.55-4.062-4.436V79.68h-3.533v13.957c0 4.31 3.41 7.257 7.595 7.257 4.125 0 7.54-2.947 7.54-7.257M293.048 99.745V89.447h-5.83v2.39l2.385.218v5.364c-1.02.187-2.203.343-3.534.343-2.513 0-4.5-1.553-4.5-5.12v-4.961c0-3.472 1.987-5.12 4.5-5.12 1.987 0 3.721.344 5.924.962l.803-2.976c-2.818-.774-4.523-1.116-6.762-1.116-4.465 0-7.998 2.947-7.998 7.907v5.648c0 4.96 3.533 7.907 7.998 7.907 2.24 0 4.565-.404 7.014-1.148M308.09 91.744h-6.329l3.164-9.366 3.164 9.366zm6.573 8.9l-7.412-20.935h-4.623l-7.412 20.935h3.568l2.045-6.076h8.192l2.045 6.076h3.597zM330.015 97.512h-9.486V79.708h-3.539v20.936h12.75z" fill="#1A1919"/></g></svg>