<svg width="592" height="246" viewBox="0 0 592 246" xmlns="http://www.w3.org/2000/svg"><title>sponsor-i2s</title><g fill="none" fill-rule="evenodd"><path d="M178.678 185.84c-1.108 0-1.722.777-1.722 2.145v25.57c0 1.36.614 2.13 1.722 2.13s1.738-.77 1.738-2.13v-25.57c0-1.368-.63-2.145-1.738-2.145M205.62 185.84c-1.112 0-1.742.777-1.742 2.145v21.046l-15.014-22.026c-.446-.576-.966-1.165-1.927-1.165-1.067 0-1.758.777-1.758 1.979v25.736c0 1.36.655 2.13 1.758 2.13 1.088 0 1.739-.77 1.739-2.13v-21.328l15.239 22.308c.482.695.879 1.15 1.795 1.15 1.104 0 1.669-.678 1.669-2.05v-25.65c0-1.368-.639-2.145-1.759-2.145M219.952 198.09c-3.075-1.147-5.737-2.12-5.737-4.805 0-2.355 2.204-4.223 4.944-4.223 1.754 0 2.74.656 3.647 1.228.646.446 1.21.802 1.901.802.708 0 1.49-.802 1.49-1.826 0-1.586-3.628-3.427-6.858-3.427-4.102.111-8.587 2.552-8.587 7.643 0 4.806 4.056 6.331 7.621 7.658 3.108 1.156 6.07 2.262 6.07 5.335 0 2.88-2.455 5.976-6.356 5.976-1.97 0-4.346-1.166-4.604-1.388-.36-.317-1.14-.778-1.574-.778-.916 0-1.623.778-1.623 1.691 0 1.793 3.3 3.71 8.218 3.71 5.512 0 9.405-3.863 9.405-9.42 0-5.23-4.228-6.796-7.957-8.176M251.258 185.84c-1.116 0-1.75.777-1.75 2.145v17.049c0 5.479-4.085 7.417-7.61 7.417-3.52 0-7.601-1.938-7.601-7.417v-17.05c0-1.367-.646-2.144-1.75-2.144-1.1 0-1.722.777-1.722 2.145v17.396c0 7.07 5.753 10.305 11.073 10.305 5.36 0 11.098-3.235 11.098-10.305v-17.396c0-1.368-.651-2.145-1.738-2.145M266.027 199.603h-4.796V189.3h4.796c3.77 0 5.716 1.822 5.716 5.401 0 4.048-3.115 4.903-5.716 4.903zm-.834 2.957h2.028c4.612 0 7.982-3.505 7.982-8.383 0-4.015-3.087-8.09-8.988-8.09h-6.354c-1.42 0-2.106.587-2.106 1.805v25.663c0 1.36.667 2.13 1.75 2.13 1.092 0 1.726-.77 1.726-2.13v-10.488l11.06 11.888c.466.534.916.73 1.48.73.76 0 1.583-.572 1.583-1.48 0-.689-.172-.992-.65-1.449l-9.511-10.196zM294.396 205.96h-11.294l5.618-15.34 5.676 15.34zm-3.152-17.865c-.38-.942-.843-2.255-2.524-2.255-1.615 0-2.126 1.278-2.527 2.284l-9.245 24.844c-.184.456-.298.982-.298 1.31 0 .835.642 1.408 1.578 1.408 1.112 0 1.472-.68 1.861-1.503l1.844-5.003h13.6l1.864 5.01c.295.762.691 1.496 1.856 1.496.912 0 1.575-.573 1.575-1.407 0-.33-.123-.865-.286-1.306l-9.298-24.878zM323.935 185.84c-1.096 0-1.709.777-1.709 2.145v21.046l-15.048-22.026c-.4-.576-.993-1.165-1.938-1.165-1.075 0-1.758.777-1.758 1.979v25.736c0 1.36.654 2.13 1.758 2.13 1.092 0 1.758-.77 1.758-2.13v-21.328l15.228 22.308c.486.695.883 1.15 1.811 1.15 1.084 0 1.648-.678 1.648-2.05v-25.65c0-1.368-.65-2.145-1.75-2.145M350.358 209.633c-.417 0-.838.3-1.406.703-1.117.863-2.85 2.115-6.248 2.115-7.087 0-9.602-5.816-9.602-11.275 0-5.952 3.402-12.113 9.074-12.113 3.091 0 4.751 1.379 5.851 2.293.654.512 1.137.907 1.64.907.77 0 1.566-.685 1.566-1.822 0-1.725-4.215-4.602-8.996-4.602-8.828 0-12.83 7.953-12.83 15.337 0 7.015 3.45 14.51 13.137 14.51 5.377 0 9.298-2.847 9.298-4.32 0-1.093-.544-1.733-1.484-1.733M366.47 212.222h-8.58v-9.801h7.794c1.038 0 1.807-.692 1.807-1.622 0-.909-.769-1.596-1.807-1.596h-7.74v-9.904h8.104c1.034 0 1.815-.699 1.815-1.595 0-.93-.78-1.617-1.815-1.617h-9.552c-1.362 0-2.049.587-2.049 1.806v25.742c0 1.214.687 1.817 2.05 1.817h9.972c1.022 0 1.8-.689 1.8-1.613 0-.926-.778-1.617-1.8-1.617M388.366 199.929l12.402-11.134c.609-.522.736-.918.736-1.475 0-.73-.523-1.48-1.533-1.48-.716 0-1.26.366-1.947 1.045l-12.46 11.206v-10.106c0-1.368-.621-2.145-1.708-2.145-1.121 0-1.76.777-1.76 2.145v25.57c0 1.36.639 2.13 1.76 2.13 1.087 0 1.709-.77 1.709-2.13v-11.702l13.404 12.784c.62.63 1.19 1.049 1.909 1.049 1.035 0 1.62-.771 1.62-1.52 0-.396-.201-1-.75-1.502l-13.382-12.735zM425.031 185.84c-1.123 0-1.75.777-1.75 2.145v21.046l-15.03-22.026c-.426-.576-.982-1.165-1.918-1.165-1.076 0-1.75.777-1.75 1.979v25.736c0 1.36.657 2.13 1.75 2.13 1.054 0 1.712-.77 1.712-2.13v-21.328l15.248 22.308c.5.695.892 1.15 1.796 1.15 1.08 0 1.66-.678 1.66-2.05v-25.65c0-1.368-.618-2.145-1.718-2.145M442.958 212.451c-6.49 0-8.771-6.279-8.771-11.682 0-5.39 2.282-11.707 8.77-11.707 6.498 0 8.804 6.317 8.804 11.707 0 5.403-2.306 11.682-8.803 11.682m0-26.611c-8.583 0-12.48 7.73-12.48 14.929 0 7.192 3.897 14.917 12.48 14.917 8.599 0 12.5-7.725 12.5-14.917 0-7.199-3.901-14.929-12.5-14.929M487.36 185.84c-1.03 0-1.673.589-1.865 1.69l-3.72 23.396-6.67-23.505c-.102-.385-.458-1.581-1.807-1.581-1.329 0-1.664 1.196-1.799 1.58l-6.637 23.506-3.745-23.412c-.213-1.085-.83-1.674-1.86-1.674-.945 0-1.595.589-1.595 1.48 0 .362.056.749.498 3.049l4.07 23.48c.224 1.264 1.41 1.837 2.424 1.837 1.267 0 2.105-.61 2.441-1.81l6.203-22.297 6.076 22.297c.32 1.188 1.17 1.81 2.437 1.81 1.022 0 2.163-.573 2.396-1.836l4.261-23.481c.221-1.164.486-2.648.486-3.05 0-.89-.637-1.48-1.594-1.48M502.96 212.222h-7.3v-24.238c0-1.367-.617-2.144-1.72-2.144-1.113 0-1.743.777-1.743 2.144v25.734a1.75 1.75 0 0 0 1.743 1.734h9.02c1.067 0 1.844-.689 1.844-1.613 0-.926-.777-1.617-1.844-1.617M519.172 212.222h-8.542v-9.801h7.782c1.022 0 1.8-.692 1.8-1.622 0-.909-.778-1.596-1.8-1.596h-7.753v-9.904h8.108c1.031 0 1.795-.699 1.795-1.595 0-.93-.764-1.617-1.795-1.617h-9.552c-1.398 0-2.048.587-2.048 1.806v25.742c0 1.214.65 1.817 2.048 1.817h9.957c1.035 0 1.8-.689 1.8-1.613 0-.926-.765-1.617-1.8-1.617M543.163 200.458c0 5.35-1.582 11.764-9.168 11.764h-5.39v-22.923h5.538c6.665 0 9.02 5.745 9.02 11.159m-8.771-14.371h-7.221c-1.394 0-2.061.587-2.061 1.806v25.742c0 1.215.667 1.818 2.06 1.818h6.973c7.499 0 12.729-5.968 12.729-14.49 0-7.4-3.848-14.876-12.48-14.876M571.716 198.675h-5.54c-1.072 0-1.824.656-1.824 1.607 0 .906.793 1.605 1.824 1.605h4.816c-.036 3.384-.997 10.564-8.308 10.564-6.94 0-9.43-6.038-9.43-11.682 0-5.648 2.887-11.707 9.278-11.707 3.178 0 5.005 1.353 6.404 2.33.752.567 1.296.951 1.844.951.834 0 1.725-.552 1.725-1.826 0-1.394-4.31-4.678-10.136-4.678-8.836 0-12.828 7.731-12.828 14.93 0 6.892 3.386 14.916 12.909 14.916 7.95 0 12.01-4.882 12.01-14.51 0-1.666-.908-2.5-2.744-2.5M589.59 212.222h-8.535v-9.801h7.77c1.017 0 1.82-.692 1.82-1.622 0-.909-.803-1.596-1.82-1.596h-7.753v-9.904h8.096c1.055 0 1.827-.699 1.827-1.595 0-.93-.772-1.617-1.827-1.617h-9.507c-1.407 0-2.077.587-2.077 1.806v25.742c0 1.214.67 1.817 2.077 1.817h9.928c1.026 0 1.811-.689 1.811-1.613 0-.926-.785-1.617-1.81-1.617" fill="#5F6062"/><path d="M161.917 186.067c-1.075 0-1.71.779-1.71 2.149v55.279c0 1.353.635 2.13 1.71 2.147 1.129 0 1.767-.794 1.767-2.147v-55.28c0-1.37-.638-2.148-1.767-2.148" fill="#00A0E1"/><path d="M12.166 34.962C5.812 34.962.672 39.947.242 46.199H.16v97.776c0 6.64 5.368 12.013 12.005 12.013 6.657 0 12.03-5.373 12.03-12.013V46.199h-.07c-.413-6.252-5.61-11.237-11.96-11.237M12.166 25.218c6.657 0 12.03-5.361 12.03-12.026 0-6.634-5.373-12.036-12.03-12.036C5.529 1.156.16 6.558.16 13.192c0 6.665 5.368 12.026 12.005 12.026" fill="#5F6062"/><path d="M229.806 69.651h.008c-.044 0-.056-.023-.072-.033a34.614 34.614 0 0 1-1.58-.734c-.06-.028-.143-.057-.2-.09-3.618-1.656-7.233-3.199-10.708-4.694-13.846-5.99-25.427-11.392-25.427-21.827 0-9.652 9.454-16.295 22.286-16.295 18.514 0 23.65 10.797 32.45 10.797 8.412 0 13.15-6.339 13.15-12.393 0-5.79-2.903-8.732-3.868-9.523C243.1 4.311 226.96.455 214.345.455c-29.387 0-50.817 18.233-50.817 42.887 0 8.297 2.184 15.101 5.827 20.758 2.478 3.803 3.12 4.261 4.306 5.551 19.405 21.132 59.458 24.906 61.412 43.485.024.453.073.92.073 1.408 0 11.784-10.287 18.016-21.867 18.016-13.162 0-24.174-6.918-30.651-12.181-.871-.719-3.974-4.146-9.454-4.146-7.127 0-12.897 5.776-12.897 12.89 0 6.471 4.474 9.597 5.713 10.718 7.814 6.968 23.826 18.018 46.863 18.018 31.923 0 50.57-20.545 50.597-44.723v-.099c0-23.974-16.477-35.251-33.643-43.386" fill="#00A0E1"/><path d="M133.098 132.71H76.682c-4.073 0-5.802-1.08-5.802-3.854 0-27.662 73.573-30.67 73.573-82.134 0-28.298-22.722-45.036-49.321-45.036-.41 0-.838.004-1.235.019-12.623 0-28.885 4.037-41.634 14.583-.95.797-3.836 3.729-3.836 9.51 0 6.065 4.71 12.395 13.126 12.395 8.763 0 14.054-10.677 32.344-10.765.074 0 .115-.005.172-.005 13.093 0 22.085 7.715 22.085 19.729 0 37.099-74.408 34.094-74.408 89.207 0 14.377 2.355 20.167 15.632 20.167h75.152c6.566 0 11.887-5.342 11.887-11.901 0-6.755-5.594-11.915-11.32-11.915" fill="#5F6062"/><path d="M288.556 4.128c-6.663 0-12.097 5.42-12.097 12.083 0 6.67 5.434 12.097 12.097 12.097 6.663 0 12.086-5.427 12.086-12.097 0-6.663-5.423-12.083-12.086-12.083m0 26.768c-8.092 0-14.682-6.586-14.682-14.685 0-8.092 6.59-14.672 14.682-14.672 8.089 0 14.672 6.58 14.672 14.672 0 8.099-6.583 14.685-14.672 14.685" fill="#00A0E1"/><path d="M286.654 15.524h2.748c2.107 0 3.016-.888 3.016-2.984 0-1.514-1.187-2.797-3.06-2.797h-2.704v5.78zm0 7.82c0 .66-.382 1.077-1 1.077-.62 0-1.006-.416-1.006-1.076V9.104c0-.617.323-1.096 1.07-1.096h3.73c2.56 0 4.986 1.735 4.986 4.386 0 3.29-2.016 4.532-4.435 4.622l-.874.02 5.191 5.692c.278.298.385.548.385.916 0 .437-.409.777-.909.777-.41 0-.687-.208-.92-.458l-6.218-6.815v6.197z" fill="#00A0E1"/></g></svg>