<svg xmlns="http://www.w3.org/2000/svg" viewBox="0 0 612 288"><path d="M272.4 118.5c17.8 0 32.2 14.4 32.2 32.2v43.2c0 17.8-14.4 32.2-32.2 32.2h-43.2c-17.8 0-32.2-14.4-32.2-32.2v-43.2c0-17.8 14.4-32.2 32.2-32.2h43.2m0-10.9h-43.2c-23.8 0-43.2 19.3-43.2 43.2V194c0 23.8 19.3 43.2 43.2 43.2h43.2c23.8 0 43.2-19.3 43.2-43.2v-43.2c-.1-23.9-19.4-43.2-43.2-43.2z"/><path d="M239.8 208.5L211 179.6l7.7-7.7 21.1 21.1 46.1-46.1 7.7 7.8zM341.6 67.7h-5.9c-3.2 0-5.9 2.6-5.9 5.9v5.9c0 3.2 2.6 5.9 5.9 5.9h5.9c3.2 0 5.9-2.6 5.9-5.9v-5.9c-.1-3.3-2.7-5.9-5.9-5.9zM333.1 107.6h11v129.5h-11zM528.7 226.1c-17.8 0-32.2-14.4-32.2-32.2v-75.3h32.2v-11h-32.2V76.5h-11v117.4c0 23.8 19.3 43.2 43.2 43.2h29.6v-11h-29.6zM171 52h-11v55.5H97.5c-23.8 0-43.2 19.3-43.2 43.2v43.2c0 23.8 19.3 43.2 43.2 43.2H171V52zm-11 174.1H97.5c-17.8 0-32.2-14.4-32.2-32.2v-43.2c0-17.8 14.4-32.2 32.2-32.2H160v107.6zM432.6 166.8h-30.3c-19.9-.2-29.5-11-29.5-24.2 0-13.3 9.4-24.2 30.2-24.2h60.1v-11h-63.3c-22.4 0-37.9 15.7-37.9 35.1s15.5 35.1 37.9 35.1h30.3c19.9.2 29.5 11 29.5 24.2 0 13.3-9.4 24.2-30.2 24.2h-67.6v11h70.9c22.4 0 37.9-15.7 37.9-35.1s-15.6-35.1-38-35.1z"/></svg>