<svg xmlns="http://www.w3.org/2000/svg" width="24" height="24" viewBox="0 0 24 24"><path fill="#fff" d="M15 21c0 1.598-1.392 3-2.971 3S9 22.598 9 21h6zm.137-17.055a2.103 2.103 0 0 1-1.041-1.82v-.003C14.097.95 13.158 0 12 0S9.903.95 9.903 2.122v.003a2.1 2.1 0 0 1-1.041 1.82C4.194 6.654 6.877 15.66 2 17.251V19h20v-1.749c-4.877-1.591-2.193-10.598-6.863-13.306zM12 1a1.001 1.001 0 0 1 0 2 1 1 0 0 1 0-2zM5.549 17c1.189-1.667 1.605-3.891 1.964-5.815.447-2.39.869-4.648 2.354-5.509 1.38-.801 2.956-.76 4.267 0 1.485.861 1.907 3.119 2.354 5.509.359 1.924.775 4.148 1.964 5.815H5.549zm15.229-7.679c.18.721.05 1.446-.304 2.035l.97.584a3.808 3.808 0 0 0 .433-2.892 3.802 3.802 0 0 0-1.739-2.351l-.582.97a2.68 2.68 0 0 1 1.222 1.654zm.396-4.346l-.597.995a4.667 4.667 0 0 1 1.595 6.408l.994.598a5.825 5.825 0 0 0-1.992-8.001zM4.444 7.667l-.582-.97a3.805 3.805 0 0 0-1.739 2.351 3.81 3.81 0 0 0 .433 2.892l.97-.584a2.678 2.678 0 0 1-.304-2.035 2.68 2.68 0 0 1 1.222-1.654zM0 9.975c0 1.074.299 2.108.835 3l.994-.598a4.66 4.66 0 0 1-.53-3.534A4.657 4.657 0 0 1 3.423 5.97l-.597-.995a5.825 5.825 0 0 0-2.826 5z"/></svg>