<svg width="731" height="114" viewBox="0 0 731 114" xmlns="http://www.w3.org/2000/svg" xmlns:xlink="http://www.w3.org/1999/xlink"><title>sponsor-semasio</title><defs><path id="a" d="M0 114.94h730.446V.993H0z"/></defs><g fill="none" fill-rule="evenodd"><g transform="translate(0 -1)"><mask id="b" fill="#fff"><use xlink:href="#a"/></mask><path d="M699.034 52.278c-11.24 0-20.352-9.112-20.352-20.352 0-11.241 9.112-20.353 20.352-20.353s20.353 9.112 20.353 20.353c0 11.24-9.113 20.352-20.353 20.352zM673.468.993c-31.469 0-56.979 25.512-56.979 56.976 0 31.471 25.51 56.98 56.979 56.98 31.468 0 56.978-25.509 56.978-56.98 0-31.464-25.51-56.976-56.978-56.976z" fill="#657F91" mask="url(#b)"/><path d="M728.813 22.685c0 11.056-8.963 20.018-20.018 20.018-11.056 0-20.02-8.962-20.02-20.018 0-11.056 8.964-20.019 20.02-20.019 11.055 0 20.018 8.963 20.018 20.019" fill="#455865" mask="url(#b)"/><path d="M55.334 25.995c-.351 1.411-.676 3.142-.966 5.19a46.282 46.282 0 0 0-.439 6.536c0 2.438.056 4.968.176 7.593.115 2.63.175 4.647.175 6.057 0 .381-.238.707-.703.963a4.187 4.187 0 0 1-1.582.48c-.586.063-1.114 0-1.58-.195-.469-.19-.764-.481-.878-.867-1.29-6.788-3.397-12.012-6.325-15.665-2.928-3.653-7.613-5.479-14.052-5.479-4.334 0-7.905 1.186-10.716 3.556-2.81 2.374-4.215 5.544-4.215 9.518 0 3.332 1.168 5.894 3.512 7.689 2.341 1.795 5.447 3.461 9.312 5 1.638.641 3.6 1.439 5.883 2.402 2.285.957 4.129 1.76 5.534 2.401a104.481 104.481 0 0 1 8.521 4.804c2.635 1.668 4.918 3.621 6.85 5.866a26.408 26.408 0 0 1 4.567 7.593c1.113 2.819 1.669 6.086 1.669 9.801 0 4.875-.939 8.941-2.811 12.209-1.873 3.268-4.277 5.895-7.202 7.881-2.929 1.99-6.266 3.43-10.014 4.328-3.748.893-7.437 1.344-11.065 1.344-3.046 0-6.443-.387-10.189-1.156-3.749-.77-7.027-1.854-9.837-3.268-.702-.256-1.436-.125-2.194.387-.766.511-1.261 1.474-1.494 2.881 0 .386-.264.638-.79.769a7.236 7.236 0 0 1-1.67.192c-.469 0-.938-.094-1.406-.286-.469-.191-.702-.482-.702-.863 0-1.029.115-2.435.351-4.232.232-1.793.351-3.461.351-4.998 0-1.537-.086-3.237-.264-5.092-.173-1.856-.35-3.686-.525-5.483a320.665 320.665 0 0 1-.441-4.804C.058 87.638 0 86.615 0 85.97c0-.507.233-.894.703-1.15a4.201 4.201 0 0 1 1.581-.48c.584-.067 1.143 0 1.668.189.529.195.848.547.966 1.059.817 3.72 1.872 6.986 3.162 9.804 1.288 2.817 2.899 5.19 4.832 7.11 1.933 1.924 4.273 3.365 7.027 4.326 2.75.961 6.059 1.441 9.924 1.441 4.214 0 7.64-1.279 10.277-3.843 2.634-2.561 3.951-6.151 3.951-10.764 0-4.102-1.317-7.334-3.951-9.709-2.637-2.369-5.711-4.449-9.223-6.244a429.323 429.323 0 0 0-10.187-4.617 286.106 286.106 0 0 1-7.643-3.555c-2.52-1.219-4.742-2.723-6.674-4.522-1.932-1.789-3.486-4.037-4.656-6.724C.584 55.599 0 52.267 0 48.296c0-4.614.906-8.524 2.722-11.728 1.816-3.202 4.158-5.8 7.028-7.785 2.868-1.986 6.06-3.428 9.572-4.325 3.515-.896 6.968-1.347 10.364-1.347 3.278 0 6.176.416 8.697 1.249 2.516.837 5.297 2.342 8.343 4.521.465.256 1.082.223 1.845-.098.76-.318 1.375-1.377 1.844-3.172.115-.512.466-.833 1.057-.961a5.498 5.498 0 0 1 1.752-.097 4.292 4.292 0 0 1 1.581.479c.468.261.645.579.529.963M121.437 57.328c1.638 0 2.574-.637 2.81-1.92.234-1.279.352-2.816.352-4.613a26.57 26.57 0 0 0-1.143-7.79c-.762-2.497-1.845-4.706-3.249-6.629-1.407-1.924-3.104-3.461-5.094-4.617-1.993-1.151-4.278-1.727-6.85-1.727-3.163 0-5.887.609-8.169 1.827a18.361 18.361 0 0 0-5.798 4.804c-1.58 1.992-2.783 4.326-3.6 7.019a48.699 48.699 0 0 0-1.757 8.456c-.235 1.54-.325 2.788-.264 3.75.057.963.322 1.44.792 1.44h31.97zm-32.147 6.73c-.586 0-.909.223-.967.672-.06.451-.086.992-.086 1.635 0 6.664.672 12.303 2.018 16.916 1.346 4.613 3.221 8.365 5.621 11.246 2.399 2.883 5.271 4.967 8.61 6.248 3.335 1.281 6.939 1.924 10.802 1.924 3.981 0 7.846-.357 11.594-1.059 3.747-.705 6.966-2.277 9.662-4.714.583-.506 1.199-.7 1.846-.571.64.125 1.168.446 1.58.957.409.516.672 1.09.788 1.731.116.642 0 1.22-.351 1.732-3.749 5.381-7.965 9.1-12.646 11.145-4.686 2.052-10.483 3.08-17.391 3.08-7.027 0-13.088-1.156-18.181-3.461-5.095-2.307-9.31-5.541-12.649-9.707-3.338-4.164-5.795-9.033-7.377-14.61-1.58-5.574-2.371-11.63-2.371-18.169 0-6.276.966-12.237 2.898-17.875 1.933-5.64 4.655-10.51 8.167-14.61a40.262 40.262 0 0 1 12.474-9.804c4.801-2.431 10.129-3.653 15.984-3.653 4.92 0 9.399.931 13.44 2.786 4.041 1.861 7.465 4.423 10.276 7.693 2.81 3.266 5.006 7.176 6.587 11.724 1.581 4.551 2.369 9.453 2.369 14.707 0 2.694-.877 4.037-2.633 4.037H89.29zM179.218 89.816c0 3.207.055 5.897.175 8.072.115 2.182.526 3.977 1.228 5.383.702 1.412 1.845 2.5 3.425 3.27 1.581.769 3.777 1.344 6.589 1.728.702.131 1.229.483 1.581 1.059.35.576.526 1.248.526 2.019 0 .643-.176 1.25-.526 1.825-.352.578-.879.865-1.581.865-2.343 0-5.243-.227-8.697-.672a81.71 81.71 0 0 0-10.451-.672c-3.75 0-7.379.227-10.892.672-3.514.445-6.736.672-9.662.672-.586 0-1.053-.287-1.404-.865a3.445 3.445 0 0 1-.528-1.825c0-.771.177-1.443.528-2.019.351-.576.878-.928 1.581-1.059 2.924-.384 5.182-.959 6.764-1.728 1.58-.77 2.721-1.826 3.422-3.17.704-1.35 1.113-3.01 1.23-5 .118-1.986.178-4.455.178-7.402v-28.45c0-6.023-.06-10.828-.178-14.419-.117-3.583-.526-6.338-1.23-8.264-.701-1.923-1.785-3.235-3.248-3.939-1.465-.705-3.601-1.121-6.411-1.252-.588 0-1.055-.256-1.406-.769a4.393 4.393 0 0 1-.702-1.731 2.787 2.787 0 0 1 .265-1.825c.289-.577.788-.865 1.491-.865 1.989-.253 4.89-.767 8.694-1.537 3.806-.771 7.936-1.793 12.386-3.074.234-.13.704-.224 1.406-.291.702-.063 1.168-.095 1.406-.095 1.168 0 2.164.513 2.984 1.537.818 1.027 1.17 2.244 1.057 3.652l-.354 9.418c0 .643.235.707.703.194.585-.895 1.551-2.243 2.899-4.038 1.345-1.793 3.101-3.585 5.268-5.38 2.165-1.793 4.801-3.366 7.907-4.711 3.1-1.344 6.645-2.019 10.628-2.019 7.258 0 12.998 1.572 17.212 4.712 4.217 3.139 7.497 7.785 9.839 13.939.584-1.415 1.698-3.175 3.337-5.292 1.639-2.114 3.746-4.162 6.324-6.15 2.575-1.985 5.504-3.681 8.784-5.095 3.277-1.407 6.85-2.114 10.714-2.114 5.624 0 10.19.931 13.704 2.786 3.513 1.861 6.262 4.393 8.256 7.595 1.99 3.204 3.335 7.016 4.04 11.438.702 4.421 1.052 9.199 1.052 14.322v30.564c0 3.207.06 5.897.177 8.072.115 2.182.467 3.977 1.054 5.383.585 1.412 1.52 2.5 2.81 3.27 1.288.769 3.162 1.344 5.623 1.728.702.131 1.226.483 1.579 1.059.352.576.528 1.248.528 2.019 0 .643-.176 1.25-.528 1.825-.353.578-.877.865-1.579.865-1.526 0-3.925-.227-7.204-.672a75.688 75.688 0 0 0-10.187-.672c-3.748 0-7.351.227-10.805.672-3.454.445-6.529.672-9.221.672-.59 0-1.055-.287-1.406-.865a3.444 3.444 0 0 1-.527-1.825c0-.771.176-1.443.527-2.019.351-.576.878-.928 1.58-1.059 2.811-.384 4.946-.959 6.412-1.728 1.464-.77 2.548-1.826 3.251-3.17.7-1.35 1.109-3.01 1.23-5 .113-1.986.176-4.455.176-7.402V66.172c0-3.457-.12-7.045-.352-10.764-.236-3.717-.852-7.112-1.845-10.191-.996-3.075-2.491-5.602-4.481-7.59-1.992-1.989-4.803-2.982-8.432-2.982-3.279 0-6.351.835-9.221 2.498a27.481 27.481 0 0 0-7.465 6.346 32.339 32.339 0 0 0-5.006 8.362c-1.23 3.014-1.846 5.928-1.846 8.746v29.219c0 3.717.058 6.699.177 8.938.115 2.244.468 4.008 1.053 5.289.585 1.281 1.521 2.211 2.81 2.785 1.289.58 3.162 1.057 5.621 1.441.702.131 1.23.483 1.581 1.059s.529 1.248.529 2.019c0 .643-.178 1.25-.529 1.825-.351.578-.879.865-1.581.865-1.521 0-3.924-.227-7.201-.672a75.721 75.721 0 0 0-10.187-.672c-3.75 0-7.352.227-10.805.672-3.455.445-6.354.672-8.695.672-.586 0-1.054-.287-1.405-.865a3.445 3.445 0 0 1-.528-1.825c0-.771.177-1.443.528-2.019.351-.576.879-.928 1.58-1.059 2.576-.384 4.596-.861 6.063-1.441 1.463-.574 2.514-1.471 3.161-2.689.642-1.217 1.023-2.852 1.142-4.903.115-2.049.175-4.807.175-8.267V66.172c0-3.457-.15-7.045-.439-10.764-.295-3.717-.967-7.112-2.02-10.191-1.054-3.075-2.635-5.602-4.743-7.59-2.108-1.989-5.037-2.982-8.783-2.982-3.981 0-7.408.803-10.276 2.403-2.872 1.607-5.213 3.685-7.028 6.248-1.816 2.564-3.162 5.417-4.039 8.555-.879 3.141-1.316 6.246-1.316 9.323v28.642M357.093 73.285c0-1.408-.06-2.273-.175-2.594-.118-.32-.415-.482-.878-.482-9.605.894-16.717 3.107-21.346 6.633-4.627 3.525-6.937 8.043-6.937 13.55 0 3.846.877 7.086 2.637 9.709 1.755 2.627 4.681 3.942 8.781 3.942 2.695 0 5.531-.578 8.519-1.731a24.678 24.678 0 0 0 7.994-5c.934-1.023 1.405-2.047 1.405-3.074V73.285zm16.511 19.031c0 4.485.381 7.627 1.144 9.42.76 1.795 2.254 2.69 4.478 2.69 1.292 0 2.342-.161 3.165-.481.814-.32 1.988-.99 3.515-2.019.351-.256.727-.256 1.135 0 .412.261.763.611 1.059 1.058.291.449.494.961.614 1.539.113.574 0 1.059-.351 1.44-4.569 6.027-9.957 9.037-16.163 9.037-3.397 0-6.297-.996-8.695-2.981-2.401-1.984-4.188-4.326-5.359-7.019-.233-.637-.584-.699-1.053-.188-3.047 2.946-6.587 5.381-10.627 7.305-4.039 1.92-9.11 2.883-15.197 2.883-6.674 0-11.828-1.953-15.457-5.865-3.631-3.909-5.447-9.45-5.447-16.627 0-9.227 3.923-16.303 11.772-21.245 7.842-4.927 19.261-7.396 34.255-7.396.23 0 .408-.32.526-.963.115-.641.175-2.113.175-4.422v-5.191c0-3.199-.239-6.214-.701-9.032-.473-2.819-1.262-5.289-2.373-7.403-1.116-2.113-2.668-3.778-4.655-4.997-1.992-1.218-4.455-1.827-7.377-1.827-4.335 0-7.849.93-10.541 2.788-2.695 1.858-4.042 4.263-4.042 7.206 0 1.414.409 2.788 1.23 4.135.819 1.346 1.23 2.726 1.23 4.135 0 1.796-.819 3.526-2.46 5.19-1.641 1.666-3.63 2.498-5.969 2.498-3.164 0-5.42-.928-6.768-2.787-1.344-1.857-2.018-4.133-2.018-6.827 0-3.199.819-6.246 2.461-9.13 1.638-2.884 3.862-5.348 6.676-7.399 2.809-2.051 6.088-3.684 9.834-4.905 3.748-1.216 7.668-1.825 11.773-1.825 9.367 0 16.745 2.374 22.132 7.113 5.386 4.743 8.079 12.625 8.079 23.645v38.447zM452.25 25.995c-.356 1.411-.678 3.142-.968 5.19a46.57 46.57 0 0 0-.442 6.536c0 2.438.06 4.968.179 7.593.115 2.63.172 4.647.172 6.057 0 .381-.23.707-.702.963a4.177 4.177 0 0 1-1.58.48c-.587.063-1.112 0-1.579-.195-.47-.19-.762-.481-.877-.867-1.292-6.788-3.398-12.012-6.324-15.665-2.931-3.653-7.616-5.479-14.055-5.479-4.332 0-7.903 1.186-10.717 3.556-2.808 2.374-4.216 5.544-4.216 9.518 0 3.332 1.172 5.894 3.515 7.689 2.344 1.795 5.446 3.461 9.31 5 1.639.641 3.6 1.439 5.883 2.402a206.16 206.16 0 0 1 5.538 2.401 104.917 104.917 0 0 1 8.518 4.804c2.635 1.668 4.919 3.621 6.853 5.866a26.419 26.419 0 0 1 4.563 7.593c1.114 2.819 1.67 6.086 1.67 9.801 0 4.875-.937 8.941-2.81 12.209-1.876 3.268-4.279 5.895-7.202 7.881-2.931 1.99-6.269 3.43-10.012 4.328-3.751.893-7.44 1.344-11.069 1.344-3.045 0-6.441-.387-10.189-1.156-3.746-.77-7.026-1.854-9.835-3.268-.704-.256-1.436-.125-2.196.387-.765.511-1.262 1.474-1.492 2.881 0 .386-.266.638-.794.769a7.173 7.173 0 0 1-1.665.192c-.473 0-.942-.094-1.405-.286-.471-.191-.705-.482-.705-.863 0-1.029.115-2.435.352-4.232.232-1.793.353-3.461.353-4.998 0-1.537-.09-3.237-.265-5.092-.176-1.856-.352-3.686-.527-5.483a273.632 273.632 0 0 1-.439-4.804c-.12-1.409-.175-2.432-.175-3.077 0-.507.232-.894.701-1.15a4.213 4.213 0 0 1 1.58-.48c.587-.067 1.141 0 1.67.189.525.195.848.547.968 1.059.817 3.72 1.87 6.986 3.159 9.804 1.289 2.817 2.899 5.19 4.832 7.11 1.932 1.924 4.273 3.365 7.026 4.326 2.752.961 6.06 1.441 9.924 1.441 4.218 0 7.644-1.279 10.276-3.843 2.636-2.561 3.957-6.151 3.957-10.764 0-4.102-1.321-7.334-3.957-9.709-2.632-2.369-5.707-4.449-9.22-6.244a429.528 429.528 0 0 0-10.19-4.617 293.38 293.38 0 0 1-7.64-3.555c-2.521-1.219-4.744-2.723-6.675-4.522-1.935-1.789-3.485-4.037-4.654-6.724-1.173-2.692-1.757-6.024-1.757-9.995 0-4.614.902-8.524 2.72-11.728 1.815-3.202 4.155-5.8 7.026-7.785 2.871-1.986 6.063-3.428 9.575-4.325 3.513-.896 6.967-1.347 10.365-1.347 3.276 0 6.174.416 8.692 1.249 2.519.837 5.301 2.342 8.348 4.521.465.256 1.078.223 1.845-.098.759-.318 1.373-1.377 1.843-3.172.115-.512.467-.833 1.054-.961a5.512 5.512 0 0 1 1.754-.097 4.326 4.326 0 0 1 1.583.479c.468.261.644.579.529.963" fill="#4D4E4C" mask="url(#b)"/></g><path d="M497.407 88.816c0 3.207.055 5.897.173 8.072.117 2.182.529 3.977 1.232 5.383.701 1.412 1.785 2.5 3.249 3.27 1.461.769 3.541 1.344 6.236 1.728.704.131 1.228.483 1.579 1.059.356.576.53 1.248.53 2.019 0 .643-.174 1.25-.53 1.825-.351.578-.875.865-1.579.865-2.107 0-4.858-.227-8.254-.672a79.722 79.722 0 0 0-10.366-.672c-3.749 0-7.407.227-10.978.672-3.573.445-7.001.672-10.278.672-.587 0-1.053-.287-1.404-.865a3.447 3.447 0 0 1-.53-1.825c0-.771.179-1.443.53-2.019.351-.576.88-.928 1.583-1.059 3.041-.384 5.413-.959 7.11-1.728 1.7-.77 2.929-1.826 3.691-3.17.76-1.35 1.199-3.01 1.317-5 .115-1.986.178-4.455.178-7.402V59.021c0-5.511-.121-9.929-.351-13.264-.238-3.33-.766-5.864-1.582-7.596-.82-1.728-2.052-2.91-3.69-3.553-1.641-.641-3.865-1.156-6.673-1.539-.703 0-1.232-.318-1.583-.964-.351-.638-.53-1.278-.53-1.92 0-.639.179-1.279.53-1.923.351-.64.88-.96 1.583-.96 1.165-.125 2.604-.254 4.301-.384 1.696-.128 3.484-.288 5.36-.482a93.475 93.475 0 0 0 5.709-.767 64.003 64.003 0 0 0 5.179-1.058c1.288-.256 2.31-.544 3.076-.865.758-.319 1.373-.482 1.844-.482 1.403 0 2.31.45 2.724 1.347.408.898.614 1.73.614 2.497v61.708M577.597 66.428c0-4.87-.293-9.614-.88-14.227-.584-4.611-1.64-8.711-3.16-12.302-1.524-3.588-3.632-6.47-6.324-8.65-2.695-2.177-6.147-3.268-10.365-3.268-4.681 0-8.493 1.091-11.417 3.268-2.929 2.18-5.245 5.095-6.937 8.745-1.699 3.651-2.871 7.787-3.516 12.402-.644 4.612-.969 9.418-.969 14.412 0 4.362.297 8.846.881 13.461.587 4.612 1.697 8.776 3.337 12.493 1.644 3.718 3.892 6.794 6.766 9.228 2.866 2.436 6.524 3.65 10.977 3.65 4.569 0 8.259-1.154 11.068-3.459 2.814-2.306 5.007-5.316 6.589-9.033 1.58-3.717 2.633-7.914 3.16-12.592.527-4.675.79-9.386.79-14.128zm18.445-2.116c0 7.819-.996 14.739-2.989 20.762-1.991 6.027-4.826 11.084-8.519 15.184-3.684 4.103-8.108 7.213-13.259 9.324-5.158 2.115-10.891 3.174-17.215 3.174-5.509 0-10.599-.996-15.286-2.981-4.683-1.984-8.723-4.933-12.119-8.845-3.396-3.907-6.092-8.84-8.078-14.797-1.994-5.959-2.987-12.977-2.987-21.051 0-6.535.993-12.526 2.987-17.973 1.986-5.445 4.772-10.094 8.342-13.937 3.573-3.844 7.873-6.853 12.91-9.037 5.035-2.174 10.54-3.267 16.512-3.267 5.738 0 11.038.96 15.897 2.884 4.86 1.923 9.047 4.711 12.56 8.361 3.514 3.651 6.264 8.172 8.255 13.554 1.993 5.382 2.989 11.598 2.989 18.645z" fill="#4D4E4C"/></g></svg>