<svg xmlns="http://www.w3.org/2000/svg" width="521.578" height="112.631" viewBox="0 0 521.57837 112.63082"><defs><clipPath id="a"><path d="M0 107h428V0H0z"/></clipPath><clipPath id="b"><path d="M25.965 57.032c0-11.046 8.953-20 19.998-20 11.046 0 19.998 8.954 19.998 20 0 11.045-8.952 19.998-19.998 19.998-11.045 0-19.998-8.953-19.998-19.998"/></clipPath><clipPath id="c"><path d="M0 107h428V0H0z"/></clipPath><clipPath id="d"><path d="M79.637 57.032c0-11.046 8.954-20 19.998-20 11.045 0 19.998 8.954 19.998 20 0 11.045-8.953 19.998-19.998 19.998-11.044 0-19.998-8.953-19.998-19.998"/></clipPath><clipPath id="e"><path d="M0 107h428V0H0z"/></clipPath><clipPath id="f"><path d="M133.308 57.032c0-11.046 8.954-20 19.998-20 11.045 0 19.999 8.954 19.999 20 0 11.045-8.954 19.998-19.999 19.998-11.044 0-19.998-8.953-19.998-19.998"/></clipPath><clipPath id="g"><path d="M0 107h428V0H0z"/></clipPath><clipPath id="h"><path d="M186.98 57.032c0-11.046 8.953-20 19.998-20 11.045 0 19.998 8.954 19.998 20 0 11.045-8.953 19.998-19.998 19.998-11.045 0-19.998-8.953-19.998-19.998"/></clipPath><clipPath id="i"><path d="M0 107h428V0H0z"/></clipPath><clipPath id="j"><path d="M240.652 57.032c0-11.046 8.953-20 19.999-20 11.045 0 19.998 8.954 19.998 20 0 11.045-8.953 19.998-19.998 19.998-11.046 0-19.999-8.953-19.999-19.998"/></clipPath><clipPath id="k"><path d="M0 107h428V0H0z"/></clipPath><clipPath id="l"><path d="M294.324 57.032c0-11.046 8.953-20 19.998-20 11.045 0 19.998 8.954 19.998 20 0 11.045-8.953 19.998-19.998 19.998-11.045 0-19.998-8.953-19.998-19.998"/></clipPath><clipPath id="m"><path d="M0 107h428V0H0z"/></clipPath></defs><text transform="matrix(1.33333 0 0 1.33333 0 109.076)" style="-inkscape-font-specification:TrebuchetMS" font-weight="400" font-size="12" font-family="Trebuchet MS" fill="#231f20"><tspan x="0 7.0560002 12.804 18.552 26.615999 33.768002 37.080002 44.136002 51.287998 58.344002 66.407997 69.996002 77.328003 83.736 86.664001 93.720001 101.352 108.3 111.612 119.7 127.764 133.51199 136.44 143.496 149.54401 157.29601 164.92799 172.992 178.74001 182.328 189.66 196.06799 199.65601 206.064 213.696 221.784 228.192 235.82401 243.64799 250.70399 257.664 260.97601 267.37201 270.95999 274.272 281.90399 288.17999 296.24399 303.20401 311.68799 318.74399 325.69199 329.004 336.15601 342.552 346.14001 353.47198 359.86801 363.45599 369.73199 376.14001 383.892" y="0">ASSOCIAÇÃO DE ANTIGOS ALUNOS DE ENGENHARIA INFORMÁTICA DA FEUP</tspan></text><path d="M429.69 52.68v8l-389.536.222v-8.221z" fill="#231f20" fill-rule="evenodd"/><g clip-path="url(#a)" transform="matrix(1.33333 0 0 -1.33333 -34.62 134.315)"><path d="M25.965 57.032c0 11.045 8.953 19.998 19.998 19.998 11.045 0 19.998-8.953 19.998-19.998 0-11.045-8.953-20-19.998-20-11.045 0-19.998 8.955-19.998 20" fill="#231f20" fill-rule="evenodd"/></g><g clip-path="url(#b)" transform="matrix(1.33333 0 0 -1.33333 -34.62 134.315)"><path d="M28.515 53.005c1.562 1.02 4.68 2.403 9.351 4.154v2.165c0 1.733-.17 2.94-.51 3.62-.577 1.137-1.776 1.705-3.592 1.706a4.945 4.945 0 0 1-2.472-.663c-.782-.459-1.173-1.087-1.173-1.885 0-.204.043-.553.128-1.045.084-.476.126-.78.127-.917 0-.95-.314-1.614-.942-1.988-.356-.22-.782-.33-1.274-.33-.764 0-1.35.246-1.758.738-.407.51-.612 1.07-.612 1.681 0 1.19.73 2.43 2.192 3.721 1.477 1.308 3.635 1.961 6.472 1.962 3.294 0 5.528-1.07 6.701-3.21.63-1.173.942-2.88.943-5.122V47.374c0-.986.067-1.665.203-2.039.221-.662.68-.993 1.376-.993.391 0 .713.06.97.18.254.117.695.405 1.324.865v-1.325a8.318 8.318 0 0 0-1.759-1.63c-.95-.647-1.919-.968-2.904-.97-1.155 0-1.996.374-2.522 1.122-.51.747-.79 1.64-.84 2.675-1.293-1.12-2.397-1.953-3.314-2.496-1.547-.918-3.015-1.377-4.408-1.377-1.46 0-2.727.51-3.797 1.53-1.07 1.035-1.605 2.343-1.605 3.923 0 2.463 1.231 4.518 3.695 6.166m9.351 2.88c-1.954-.646-3.567-1.359-4.84-2.14-2.448-1.513-3.67-3.228-3.67-5.148 0-1.546.51-2.684 1.528-3.414a3.705 3.705 0 0 1 2.217-.713c1.121 0 2.191.313 3.211.942 1.036.628 1.554 1.426 1.554 2.396z" fill="#fff" fill-rule="evenodd"/><path d="M28.515 53.005c1.562 1.02 4.68 2.403 9.351 4.154v2.165c0 1.733-.17 2.94-.51 3.62-.577 1.137-1.776 1.705-3.592 1.706a4.945 4.945 0 0 1-2.472-.663c-.782-.459-1.173-1.087-1.173-1.885 0-.204.043-.553.128-1.045.084-.476.126-.78.127-.917 0-.95-.314-1.614-.942-1.988-.356-.22-.782-.33-1.274-.33-.764 0-1.35.246-1.758.738-.407.51-.612 1.07-.612 1.681 0 1.19.73 2.43 2.192 3.721 1.477 1.308 3.635 1.961 6.472 1.962 3.294 0 5.528-1.07 6.701-3.21.63-1.173.942-2.88.943-5.122V47.374c0-.986.067-1.665.203-2.039.221-.662.68-.993 1.376-.993.391 0 .713.06.97.18.254.117.695.405 1.324.865v-1.325a8.318 8.318 0 0 0-1.759-1.63c-.95-.647-1.919-.968-2.904-.97-1.155 0-1.996.374-2.522 1.122-.51.747-.79 1.64-.84 2.675-1.293-1.12-2.397-1.953-3.314-2.496-1.547-.918-3.015-1.377-4.408-1.377-1.46 0-2.727.51-3.797 1.53-1.07 1.035-1.605 2.343-1.605 3.923 0 2.463 1.231 4.518 3.695 6.166zm9.351 2.88c-1.954-.646-3.567-1.359-4.84-2.14-2.448-1.513-3.67-3.228-3.67-5.148 0-1.546.51-2.684 1.528-3.414a3.705 3.705 0 0 1 2.217-.713c1.121 0 2.191.313 3.211.942 1.036.628 1.554 1.426 1.554 2.396z" fill="none" stroke="#fff" stroke-width="2.174" stroke-miterlimit="3.864"/></g><g clip-path="url(#c)" transform="matrix(1.33333 0 0 -1.33333 -34.62 134.315)"><path d="M79.636 57.032c0 11.045 8.954 19.998 20 19.998 11.044 0 19.997-8.953 19.997-19.998 0-11.045-8.953-20-19.998-20-11.045 0-19.999 8.955-19.999 20" fill="#231f20" fill-rule="evenodd"/></g><g clip-path="url(#d)" transform="matrix(1.33333 0 0 -1.33333 -34.62 134.315)"><path d="M84.807 42.482c1.58.153 2.65.467 3.211.943.56.493.841 1.444.841 2.854v24.894c0 1.122-.094 1.894-.28 2.319-.34.714-1.029 1.07-2.065 1.07-.237 0-.5-.025-.789-.076a21.997 21.997 0 0 1-1.045-.23v.84c2.293.613 5.053 1.428 8.281 2.448.118 0 .187-.051.203-.153.035-.102.051-.324.052-.663V46.177c0-1.478.255-2.438.765-2.88.51-.424 1.561-.696 3.16-.815v-.713H84.806z" fill="#fff" fill-rule="evenodd"/><path d="M84.807 42.482c1.58.153 2.65.467 3.211.943.56.493.841 1.444.841 2.854v24.894c0 1.122-.094 1.894-.28 2.319-.34.714-1.029 1.07-2.065 1.07-.237 0-.5-.025-.789-.076a21.997 21.997 0 0 1-1.045-.23v.84c2.293.613 5.053 1.428 8.281 2.448.118 0 .187-.051.203-.153.035-.102.051-.324.052-.663V46.177c0-1.478.255-2.438.765-2.88.51-.424 1.561-.696 3.16-.815v-.713H84.806z" fill="none" stroke="#fff" stroke-width="2.174" stroke-miterlimit="3.864"/></g><g clip-path="url(#e)" transform="matrix(1.33333 0 0 -1.33333 -34.62 134.315)"><path d="M133.308 57.032c0 11.045 8.954 19.998 19.998 19.998 11.045 0 20-8.953 20-19.998 0-11.045-8.955-20-20-20-11.044 0-19.998 8.955-19.998 20" fill="#231f20" fill-rule="evenodd"/></g><g clip-path="url(#f)" transform="matrix(1.33333 0 0 -1.33333 -34.62 134.315)"><path d="M139.63 65.364V49.056c0-1.155.161-2.081.484-2.777.628-1.291 1.784-1.936 3.466-1.936 1.154 0 2.284.38 3.39 1.146.627.425 1.264 1.01 1.91 1.759V61.21c0 1.307-.255 2.165-.765 2.573-.509.408-1.529.654-3.057.739v.84h8.23V47.427c0-1.156.204-1.955.612-2.395.424-.426 1.307-.611 2.65-.561v-.713a77.372 77.372 0 0 1-2.065-.586c-.442-.12-1.18-.35-2.216-.69-.443-.151-1.41-.516-2.906-1.095-.085 0-.135.043-.152.128a1.036 1.036 0 0 0-.025.255v4.102c-1.156-1.375-2.209-2.395-3.16-3.057-1.445-1.02-2.973-1.53-4.586-1.53-1.478 0-2.872.527-4.179 1.58-1.325 1.036-1.987 2.777-1.987 5.224v13.224c0 1.359-.29 2.268-.867 2.727-.375.288-1.173.492-2.395.612v.713z" fill="#fff" fill-rule="evenodd"/><path d="M139.63 65.364V49.056c0-1.155.161-2.081.484-2.777.628-1.291 1.784-1.936 3.466-1.936 1.154 0 2.284.38 3.39 1.146.627.425 1.264 1.01 1.91 1.759V61.21c0 1.307-.255 2.165-.765 2.573-.509.408-1.529.654-3.057.739v.84h8.23V47.427c0-1.156.204-1.955.612-2.395.424-.426 1.307-.611 2.65-.561v-.713a77.372 77.372 0 0 1-2.065-.586c-.442-.12-1.18-.35-2.216-.69-.443-.151-1.41-.516-2.906-1.095-.085 0-.135.043-.152.128a1.036 1.036 0 0 0-.025.255v4.102c-1.156-1.375-2.209-2.395-3.16-3.057-1.445-1.02-2.973-1.53-4.586-1.53-1.478 0-2.872.527-4.179 1.58-1.325 1.036-1.987 2.777-1.987 5.224v13.224c0 1.359-.29 2.268-.867 2.727-.375.288-1.173.492-2.395.612v.713z" fill="none" stroke="#fff" stroke-width="2.174" stroke-miterlimit="3.864"/></g><g clip-path="url(#g)" transform="matrix(1.33333 0 0 -1.33333 -34.62 134.315)"><path d="M186.98 57.032c0 11.045 8.953 19.998 19.998 19.998 11.045 0 19.998-8.953 19.998-19.998 0-11.045-8.953-20-19.998-20-11.045 0-19.998 8.955-19.998 20" fill="#231f20" fill-rule="evenodd"/></g><g clip-path="url(#h)" transform="matrix(1.33333 0 0 -1.33333 -34.62 134.315)"><path d="M181.647 42.431c1.325.12 2.209.34 2.65.662.68.492 1.019 1.478 1.02 2.956v13.174c0 1.257-.171 2.081-.51 2.472-.323.39-.866.585-1.631.586-.356 0-.629-.018-.815-.052a4.394 4.394 0 0 1-.611-.178v.892l1.834.612c.663.22 1.75.62 3.261 1.197 1.512.577 2.311.866 2.396.867.084 0 .135-.043.152-.128.018-.085.025-.247.025-.484v-3.44c1.682 1.53 3.135 2.581 4.358 3.16 1.224.594 2.479.891 3.771.892 1.749 0 3.142-.595 4.179-1.784.543-.646.993-1.52 1.351-2.625 1.256 1.274 2.351 2.217 3.287 2.828 1.613 1.053 3.261 1.58 4.943 1.581 2.735 0 4.56-1.114 5.478-3.338.526-1.258.789-3.246.79-5.963V45.744c0-1.207.262-2.03.79-2.472.543-.425 1.511-.705 2.905-.84v-.663h-11.492v.713c1.477.136 2.446.432 2.904.892.476.458.713 1.393.714 2.803V57.16c0 1.646-.179 2.861-.535 3.642-.629 1.393-1.86 2.09-3.694 2.09-1.105 0-2.201-.365-3.288-1.096-.628-.425-1.401-1.104-2.318-2.038V46.712c0-1.377.236-2.42.713-3.135.492-.712 1.52-1.095 3.083-1.146v-.662h-11.695v.662c1.613.204 2.641.594 3.083 1.172.441.578.662 1.996.662 4.256v7.135c0 2.615-.17 4.416-.509 5.401-.561 1.664-1.751 2.496-3.567 2.497-1.038 0-2.057-.289-3.058-.866a9.411 9.411 0 0 1-2.65-2.217V45.87c0-1.29.22-2.182.663-2.674.458-.494 1.443-.748 2.955-.765v-.662h-11.594z" fill="#fff" fill-rule="evenodd"/><path d="M181.647 42.431c1.325.12 2.209.34 2.65.662.68.492 1.019 1.478 1.02 2.956v13.174c0 1.257-.171 2.081-.51 2.472-.323.39-.866.585-1.631.586-.356 0-.629-.018-.815-.052a4.394 4.394 0 0 1-.611-.178v.892l1.834.612c.663.22 1.75.62 3.261 1.197 1.512.577 2.311.866 2.396.867.084 0 .135-.043.152-.128.018-.085.025-.247.025-.484v-3.44c1.682 1.53 3.135 2.581 4.358 3.16 1.224.594 2.479.891 3.771.892 1.749 0 3.142-.595 4.179-1.784.543-.646.993-1.52 1.351-2.625 1.256 1.274 2.351 2.217 3.287 2.828 1.613 1.053 3.261 1.58 4.943 1.581 2.735 0 4.56-1.114 5.478-3.338.526-1.258.789-3.246.79-5.963V45.744c0-1.207.262-2.03.79-2.472.543-.425 1.511-.705 2.905-.84v-.663h-11.492v.713c1.477.136 2.446.432 2.904.892.476.458.713 1.393.714 2.803V57.16c0 1.646-.179 2.861-.535 3.642-.629 1.393-1.86 2.09-3.694 2.09-1.105 0-2.201-.365-3.288-1.096-.628-.425-1.401-1.104-2.318-2.038V46.712c0-1.377.236-2.42.713-3.135.492-.712 1.52-1.095 3.083-1.146v-.662h-11.695v.662c1.613.204 2.641.594 3.083 1.172.441.578.662 1.996.662 4.256v7.135c0 2.615-.17 4.416-.509 5.401-.561 1.664-1.751 2.496-3.567 2.497-1.038 0-2.057-.289-3.058-.866a9.411 9.411 0 0 1-2.65-2.217V45.87c0-1.29.22-2.182.663-2.674.458-.494 1.443-.748 2.955-.765v-.662h-11.594z" fill="none" stroke="#fff" stroke-width="2.174" stroke-miterlimit="3.864"/></g><g clip-path="url(#i)" transform="matrix(1.33333 0 0 -1.33333 -34.62 134.315)"><path d="M240.652 57.032c0 11.045 8.953 19.998 19.998 19.998 11.045 0 19.998-8.953 19.998-19.998 0-11.045-8.953-20-19.998-20-11.045 0-19.998 8.955-19.998 20" fill="#231f20" fill-rule="evenodd"/></g><g clip-path="url(#j)" transform="matrix(1.33333 0 0 -1.33333 -34.62 134.315)"><path d="M238.123 42.482c1.205.153 2.047.45 2.523.893.493.458.739 1.468.739 3.03v12.92c0 1.087-.102 1.85-.307 2.293-.322.645-.984.968-1.986.968-.153 0-.315-.008-.485-.025a19.9 19.9 0 0 1-.586-.077v.893c.696.203 2.344.73 4.944 1.579l2.394.79c.119 0 .188-.043.205-.127.034-.086.049-.204.051-.357v-3.746c1.563 1.46 2.785 2.463 3.668 3.007 1.326.832 2.701 1.248 4.129 1.249a5.407 5.407 0 0 0 3.158-.994c1.836-1.292 2.752-3.593 2.752-6.905v-11.9c0-1.223.246-2.106.74-2.65.493-.544 1.317-.823 2.471-.841v-.713h-10.879v.713c1.239.17 2.106.51 2.598 1.02.492.526.738 1.655.74 3.388v10.88c0 1.46-.273 2.667-.816 3.619-.543.968-1.547 1.452-3.006 1.452-1.004 0-2.022-.34-3.059-1.02-.578-.39-1.324-1.036-2.242-1.936V45.617c0-1.224.272-2.047.817-2.472.542-.408 1.4-.63 2.572-.663v-.713h-11.135z" fill="#fff" fill-rule="evenodd"/><path d="M238.123 42.482c1.205.153 2.047.45 2.523.893.493.458.739 1.468.739 3.03v12.92c0 1.087-.102 1.85-.307 2.293-.322.645-.984.968-1.986.968-.153 0-.315-.008-.485-.025a19.9 19.9 0 0 1-.586-.077v.893c.696.203 2.344.73 4.944 1.579l2.394.79c.119 0 .188-.043.205-.127.034-.086.049-.204.051-.357v-3.746c1.563 1.46 2.785 2.463 3.668 3.007 1.326.832 2.701 1.248 4.129 1.249a5.407 5.407 0 0 0 3.158-.994c1.836-1.292 2.752-3.593 2.752-6.905v-11.9c0-1.223.246-2.106.74-2.65.493-.544 1.317-.823 2.471-.841v-.713h-10.879v.713c1.239.17 2.106.51 2.598 1.02.492.526.738 1.655.74 3.388v10.88c0 1.46-.273 2.667-.816 3.619-.543.968-1.547 1.452-3.006 1.452-1.004 0-2.022-.34-3.059-1.02-.578-.39-1.324-1.036-2.242-1.936V45.617c0-1.224.272-2.047.817-2.472.542-.408 1.4-.63 2.572-.663v-.713h-11.135z" fill="none" stroke="#fff" stroke-width="2.174" stroke-miterlimit="3.864"/></g><g clip-path="url(#k)" transform="matrix(1.33333 0 0 -1.33333 -34.62 134.315)"><path d="M294.324 57.032c0 11.045 8.953 19.998 19.998 19.998 11.045 0 19.998-8.953 19.998-19.998 0-11.045-8.953-20-19.998-20-11.045 0-19.998 8.955-19.998 20" fill="#231f20" fill-rule="evenodd"/></g><g clip-path="url(#l)" transform="matrix(1.33333 0 0 -1.33333 -34.62 134.315)"><path d="M297.87 42.482c1.815.17 2.962.476 3.438.918.475.458.713 1.682.713 3.669v12.154c0 1.104-.076 1.868-.228 2.293-.256.696-.79 1.044-1.606 1.045-.187 0-.375-.017-.56-.051-.17-.034-2.565-.09-3.58-.09l-.123.472 3.27.357c2.972.968 5.044 1.698 6.216 2.19.477.205.781.307.918.307.033-.12.051-.247.051-.382V47.069c0-1.937.228-3.151.687-3.644.477-.493 1.537-.807 3.186-.943v-.713H297.87zm4.024 34.067c.51.527 1.14.79 1.885.79.731 0 1.35-.263 1.861-.79.526-.51.79-1.138.79-1.885 0-.731-.264-1.36-.79-1.885a2.531 2.531 0 0 0-1.86-.765c-.747 0-1.376.255-1.886.765a2.615 2.615 0 0 0-.763 1.885c0 .73.254 1.359.763 1.885" fill="#fff" fill-rule="evenodd"/><path d="M297.87 42.482c1.815.17 2.962.476 3.438.918.475.458.713 1.682.713 3.669v12.154c0 1.104-.076 1.868-.228 2.293-.256.696-.79 1.044-1.606 1.045-.187 0-.375-.017-.56-.051-.17-.034-2.565-.09-3.58-.09l-.123.472 3.27.357c2.972.968 5.044 1.698 6.216 2.19.477.205.781.307.918.307.033-.12.051-.247.051-.382V47.069c0-1.937.228-3.151.687-3.644.477-.493 1.537-.807 3.186-.943v-.713H297.87zm4.024 34.067c.51.527 1.14.79 1.885.79.731 0 1.35-.263 1.861-.79.526-.51.79-1.138.79-1.885 0-.731-.264-1.36-.79-1.885a2.531 2.531 0 0 0-1.86-.765c-.747 0-1.376.255-1.886.765a2.615 2.615 0 0 0-.763 1.885c0 .73.254 1.359.763 1.885z" fill="none" stroke="#fff" stroke-width="2.174" stroke-miterlimit="3.864"/></g><g clip-path="url(#m)" transform="matrix(1.33333 0 0 -1.33333 -34.62 134.315)"><path d="M363.087 61.16c0 4.084 5.128 11.503 12.54 11.503 7.365 0 12.543-7.92 12.543-11.502zm33.583-7.5s.457 2.11.376 4c0 11.832-9.591 21.422-21.42 21.422-11.83 0-21.42-9.59-21.42-21.421 0-11.83 9.172-21.418 21.42-21.418 10.502 0 17.052 6.536 20.434 13.918-.062-.002-8.73-.03-8.973 0-2.607-4.793-6.917-7.604-11.461-7.593-4.123.01-10.706 3.26-12.372 11.01z" fill="#231f20"/><path d="M405.777 79.29h7.332V36.035h-7.332zM401.32 92.822a7.914 7.914 0 0 0 7.915 7.914 7.914 7.914 0 0 0 7.914-7.914 7.914 7.914 0 0 0-7.914-7.914 7.914 7.914 0 0 0-7.915 7.914" fill="#231f20" fill-rule="evenodd"/></g></svg>