<svg width="17" height="15" viewBox="0 0 17 15" xmlns="http://www.w3.org/2000/svg"><path d="M3.458 8.89c0 .229-.027.563-.083 1.005a9.18 9.18 0 0 0-.083 1.114c0 .729.126 1.34.38 1.832.253.493.588.82 1.005.982V14h-1.49c-.895-.427-1.343-1.361-1.343-2.803 0-.265.03-.627.088-1.087.06-.46.089-.815.089-1.065 0-.758-.34-1.177-1.021-1.258v-.574c.68-.073 1.02-.493 1.02-1.258 0-.25-.029-.605-.088-1.065a9.055 9.055 0 0 1-.088-1.087c0-1.442.448-2.376 1.344-2.803h1.49v.177c-.418.161-.753.489-1.006.982-.254.493-.38 1.103-.38 1.832 0 .301.027.673.083 1.114.056.442.083.776.083 1.005 0 .772-.364 1.232-1.093 1.379v.022c.729.147 1.093.607 1.093 1.38zm10.094-2.78c0-.229.028-.563.083-1.005a9.18 9.18 0 0 0 .084-1.114c0-.729-.127-1.34-.38-1.832-.254-.493-.589-.82-1.006-.982V1h1.48c.895.427 1.343 1.361 1.343 2.803 0 .265-.03.627-.088 1.087-.06.46-.089.83-.089 1.11 0 .279.077.542.23.788.152.247.416.388.791.425v.574c-.375.044-.639.188-.792.43-.152.243-.229.504-.229.784s.03.65.089 1.109c.059.46.088.822.088 1.087 0 1.442-.448 2.376-1.344 2.803h-1.479v-.177c.417-.161.752-.489 1.006-.982.253-.493.38-1.103.38-1.832a9.18 9.18 0 0 0-.084-1.114 8.746 8.746 0 0 1-.083-1.005c0-.772.365-1.232 1.094-1.379v-.022c-.73-.147-1.094-.607-1.094-1.38z" stroke="#FFE200" stroke-width="2" fill="#FFE200" fill-rule="evenodd"/></svg>