<svg width="24" height="20" viewBox="0 0 24 20" xmlns="http://www.w3.org/2000/svg"><title>Shape</title><path d="M7.548 19.545c9.056 0 14.01-7.504 14.01-14.01 0-.214 0-.426-.015-.637A10.019 10.019 0 0 0 24 2.349a9.828 9.828 0 0 1-2.828.775A4.941 4.941 0 0 0 23.337.4a9.868 9.868 0 0 1-3.127 1.196 4.929 4.929 0 0 0-8.391 4.49A13.98 13.98 0 0 1 1.67.942a4.928 4.928 0 0 0 1.525 6.573A4.887 4.887 0 0 1 .96 6.899v.062a4.926 4.926 0 0 0 3.95 4.827 4.916 4.916 0 0 1-2.223.084 4.93 4.93 0 0 0 4.6 3.42A9.88 9.88 0 0 1 0 17.332a13.94 13.94 0 0 0 7.548 2.209" fill-rule="nonzero" fill="#5D00F3"/></svg>