<svg xmlns="http://www.w3.org/2000/svg" xmlns:xlink="http://www.w3.org/1999/xlink" width="194" height="56" viewBox="0 0 194 56"><defs><path id="a" d="M3.373.3a2.235 2.235 0 0 0-.514.297 3.896 3.896 0 0 0-.445.4c-.138.145-.26.287-.366.427a.28.28 0 0 0-.06.187c0 .1.034.196.1.293a.66.66 0 0 0 .148.173c.303.191.607.39.915.6.306.207.58.432.82.672.24.242.438.505.589.788.151.284.228.595.228.93a.87.87 0 0 1-.13.487 1 1 0 0 1-.351.326 1.674 1.674 0 0 1-.514.188 3.07 3.07 0 0 1-.608.06 3.055 3.055 0 0 1-1.236-.283 2.505 2.505 0 0 1-.519-.321 1.386 1.386 0 0 1-.36-.426.324.324 0 0 0-.204-.178.84.84 0 0 0-.242-.04.572.572 0 0 0-.415.193.636.636 0 0 0-.187.46c0 .034.006.077.02.13.078.343.213.638.404.886.19.248.42.45.688.61.267.158.562.275.884.35.323.077.656.114 1 .114.454 0 .904-.055 1.35-.163.444-.11.84-.267 1.185-.475.347-.208.627-.462.841-.763.214-.3.321-.639.321-1.015 0-.297-.057-.601-.173-.912a3.742 3.742 0 0 0-.504-.915 5.086 5.086 0 0 0-.806-.857A5.839 5.839 0 0 0 4.154 1.8c.093-.073.187-.149.283-.228.095-.08.18-.159.256-.239.076-.078.138-.16.183-.247a.55.55 0 0 0 .07-.266.393.393 0 0 0-.075-.214.811.811 0 0 0-.203-.208 1.095 1.095 0 0 0-.316-.154A1.49 1.49 0 0 0 3.374.3z"/><path id="c" d="M5.311.498c-.194.11-.357.29-.49.541l-2.086 4.15H1.667a.898.898 0 0 0-.405.089c-.119.06-.22.13-.302.213a.91.91 0 0 0-.187.268A.608.608 0 0 0 .709 6c0 .152.068.288.207.407.138.119.392.178.762.178h.424c-.184.37-.373.756-.569 1.159L.945 8.962a6.957 6.957 0 0 0-.375.961 3.42 3.42 0 0 0-.169 1.03c0 .185.023.359.07.52.045.162.124.304.232.426.11.121.252.218.43.287.178.07.4.104.663.104.396 0 .804-.079 1.226-.237.421-.16.85-.371 1.281-.64.432-.266.867-.576 1.305-.925.438-.35.872-.72 1.3-1.11a1.31 1.31 0 0 0 .396-.466c.073-.157.11-.313.11-.464a.62.62 0 0 0-.11-.377.329.329 0 0 0-.277-.148.528.528 0 0 0-.297.109 22.2 22.2 0 0 1-1.38 1.084c-.26.188-.525.37-.795.545-.27.175-.528.33-.772.465a5.637 5.637 0 0 1-.681.326 1.503 1.503 0 0 1-.525.124c-.1 0-.17-.026-.213-.079a.336.336 0 0 1-.064-.218c0-.158.038-.341.114-.549.076-.208.153-.391.233-.55.19-.382.396-.8.612-1.253.218-.452.449-.916.692-1.391l4.115-.03c.171-.013.31-.04.42-.08a.727.727 0 0 0 .257-.148.46.46 0 0 0 .129-.198.728.728 0 0 0 .034-.217.66.66 0 0 0-.08-.347.553.553 0 0 0-.221-.203 1 1 0 0 0-.341-.1 3.445 3.445 0 0 0-.436-.024H4.605c.25-.469.487-.914.71-1.337.1-.178.2-.364.303-.555a175.72 175.72 0 0 1 .568-1.045c.086-.155.16-.289.218-.401.092-.172.167-.322.222-.45a.954.954 0 0 0 .084-.382c0-.245-.081-.42-.247-.525a.986.986 0 0 0-.544-.159c-.21 0-.414.056-.608.163z"/><path id="e" d="M7.623.384a2.146 2.146 0 0 0-.387.545 6.745 6.745 0 0 0-.312.712 5.135 5.135 0 0 1-.33.724c-.178.336-.4.707-.668 1.114a8.626 8.626 0 0 1-.895 1.138c-.33.354-.69.649-1.078.887a2.315 2.315 0 0 1-1.226.356c-.151 0-.26-.05-.326-.148a.574.574 0 0 1-.099-.327c.013-.284.069-.576.167-.877.1-.3.218-.595.357-.886.138-.29.288-.57.45-.842.161-.27.315-.523.46-.757.144-.235.271-.443.38-.625.11-.18.18-.328.213-.44a.596.596 0 0 0 .03-.188.449.449 0 0 0-.08-.263.637.637 0 0 0-.207-.188A1.012 1.012 0 0 0 3.795.21a1.268 1.268 0 0 0-.287-.034c-.211 0-.407.054-.588.163-.181.109-.34.288-.48.54-.54.95-.96 1.76-1.256 2.426-.297.667-.515 1.21-.657 1.629-.142.42-.226.726-.252.921a8.84 8.84 0 0 0-.04.302c0 .285.046.52.139.709.092.188.213.338.366.45.15.112.327.192.529.238.201.046.41.07.627.07.482 0 .926-.068 1.335-.204a4.663 4.663 0 0 0 1.109-.53 5.482 5.482 0 0 0 1.522-1.506 4.24 4.24 0 0 0-.158 1.062c0 .428.1.731.296.91.198.179.456.267.772.267.317 0 .672-.074 1.068-.222a7.55 7.55 0 0 0 1.206-.59c.409-.243.805-.523 1.192-.837a8.473 8.473 0 0 0 1.013-.965l-.099-1.347a6.46 6.46 0 0 1-.885.94c-.333.29-.665.544-.999.758-.332.215-.65.382-.954.5-.303.12-.557.179-.761.179-.29 0-.436-.119-.436-.357 0-.257.046-.536.134-.836.089-.302.201-.609.337-.922.134-.313.282-.622.44-.926.158-.304.304-.589.44-.856.135-.268.247-.506.335-.714.09-.208.135-.37.135-.49A.786.786 0 0 0 8.73.393C8.591.242 8.403.165 8.166.165a.733.733 0 0 0-.543.219z"/><path id="g" d="M9.656.316c.145-.07.31-.105.494-.105.251 0 .458.055.623.164.165.11.247.32.247.63 0 .125-.017.253-.05.386-.032.131-.07.26-.112.385-.044.126-.09.25-.14.372-.048.123-.093.237-.132.342a85.7 85.7 0 0 0-1.039 2.155C9.185 5.42 8.826 6.2 8.47 6.987A148.11 148.11 0 0 0 7.45 9.284c-.322.746-.606 1.42-.85 2.02a.117.117 0 0 0-.01.05c0 .02-.003.037-.01.05 0 .118.03.242.089.371.06.13.156.193.287.193a.271.271 0 0 0 .119-.02c.375-.112.756-.29 1.142-.534.386-.245.757-.512 1.112-.802a13.262 13.262 0 0 0 1.73-1.703c.093-.113.196-.17.307-.17.1 0 .187.047.263.14a.573.573 0 0 1 .114.375c0 .126-.035.274-.104.447-.07.17-.183.355-.342.553-.389.43-.788.843-1.196 1.24-.409.395-.821.746-1.237 1.053a6.726 6.726 0 0 1-1.24.739 2.944 2.944 0 0 1-1.211.277c-.482 0-.861-.137-1.138-.411-.277-.274-.416-.685-.416-1.233v-.104a.55.55 0 0 1 .01-.104c-.152.277-.346.53-.583.757a3.98 3.98 0 0 1-.78.585 4.108 4.108 0 0 1-.882.376c-.303.09-.595.134-.879.134a2.16 2.16 0 0 1-.673-.1 1.32 1.32 0 0 1-.529-.316 1.466 1.466 0 0 1-.346-.555 2.353 2.353 0 0 1-.124-.812c0-.555.086-1.081.257-1.58.172-.498.4-.957.683-1.377.283-.419.608-.795.974-1.129a7.107 7.107 0 0 1 1.137-.851 5.718 5.718 0 0 1 1.172-.54c.389-.126.745-.188 1.069-.188.375 0 .697.062.968.188.132.066.254.155.366.268.027-.06.053-.116.08-.17.065-.157.125-.294.177-.41.052-.115.089-.2.11-.253.019-.06.075-.198.167-.415a243.359 243.359 0 0 1 .716-1.714c.142-.337.273-.653.391-.95l.307-.769c.086-.214.138-.35.158-.411.047-.164.109-.325.188-.48a1.72 1.72 0 0 1 .282-.405 1.26 1.26 0 0 1 .38-.278zM6.303 7.432c-.395.013-.81.1-1.246.258-.5.17-.958.427-1.374.767-.415.34-.766.758-1.053 1.252a3.819 3.819 0 0 0-.49 1.705c0 .264.112.396.336.396.277 0 .54-.058.792-.173.25-.116.488-.271.717-.466a4.65 4.65 0 0 0 .637-.669c.198-.25.381-.51.55-.781.168-.272.319-.54.454-.808.136-.268.252-.517.351-.748l.14-.307c.051-.125.113-.267.186-.426z"/><path id="i" d="M3.961.54a1.34 1.34 0 0 0-.672.768 1.43 1.43 0 0 0-.084.47c.02.211.112.382.276.51.166.129.452.194.861.194a1.167 1.167 0 0 0 .95-.451c.098-.13.173-.27.222-.421.05-.152.074-.29.074-.416a.754.754 0 0 0-.227-.56C5.208.485 4.942.412 4.56.412c-.23 0-.43.042-.598.128zM2.503 3.61c-.145.08-.274.212-.386.396-.119.245-.23.476-.337.694-.092.185-.18.367-.261.544-.082.179-.14.312-.174.397-.091.23-.203.474-.336.728-.13.254-.257.519-.376.792-.118.274-.22.556-.306.847-.086.29-.128.587-.128.891 0 .582.153 1.01.46 1.283.305.275.726.41 1.26.41.376 0 .749-.071 1.118-.216.369-.146.737-.34 1.102-.58a9.057 9.057 0 0 0 1.074-.832c.349-.313.692-.642 1.028-.985.171-.152.295-.315.37-.486.076-.171.115-.333.115-.485 0-.166-.039-.3-.114-.406a.346.346 0 0 0-.292-.16c-.132 0-.264.064-.396.19-.099.119-.223.253-.371.405-.148.153-.31.311-.484.475-.175.166-.362.33-.56.491a5.484 5.484 0 0 1-.602.43 3.843 3.843 0 0 1-.608.308c-.201.08-.394.12-.579.12-.165 0-.292-.03-.38-.086-.09-.055-.134-.173-.134-.35 0-.166.03-.347.094-.546.063-.198.139-.4.227-.604.09-.204.184-.404.283-.6.098-.194.186-.374.266-.538l.168-.357a23.456 23.456 0 0 1 .534-1.07.537.537 0 0 0 .064-.179c.01-.059.019-.118.025-.178 0-.25-.09-.456-.272-.618a.937.937 0 0 0-.648-.243c-.151 0-.3.04-.444.118z"/><path id="k" d="M3.629.457A4.259 4.259 0 0 1 5.21.176c.25 0 .52.032.807.099.287.066.551.178.795.336.245.159.447.368.608.63.163.26.243.582.243.964 0 .198-.026.424-.08.679-.052.255-.13.52-.237.798.067.08.142.135.228.168.086.033.178.05.277.05a1.1 1.1 0 0 0 .46-.119c.168-.08.341-.182.519-.308.177-.125.356-.267.534-.426a12.556 12.556 0 0 0 .934-.926c.128-.141.236-.262.321-.36a.233.233 0 0 1 .169-.07c.092 0 .175.048.247.143.073.095.109.23.109.401 0 .172-.052.37-.153.594-.102.225-.292.46-.57.704l-.543.594a7.254 7.254 0 0 1-.653.634c-.23.199-.47.367-.722.505-.25.139-.5.208-.75.208-.172 0-.34-.026-.5-.079a1.78 1.78 0 0 1-.49-.258c-.238.37-.508.707-.811 1.011-.303.303-.64.565-1.014.782a5.034 5.034 0 0 1-2.586.693c-.184 0-.398-.036-.642-.108a2.155 2.155 0 0 1-.697-.362 2.079 2.079 0 0 1-.558-.658c-.152-.271-.228-.601-.228-.99 0-.266.042-.582.129-.952.085-.37.215-.75.39-1.144.174-.392.395-.782.662-1.169a5.19 5.19 0 0 1 .955-1.04c.369-.306.79-.554 1.266-.743zm-.89 5.304c.118.086.276.13.474.13.304 0 .598-.082.884-.243.288-.163.543-.374.767-.634.224-.26.403-.557.535-.887.131-.33.197-.663.197-1a3.64 3.64 0 0 0-.024-.411 1.106 1.106 0 0 0-.119-.39.764.764 0 0 0-.272-.293c-.12-.077-.28-.115-.484-.115-.31 0-.609.078-.896.233-.287.156-.54.36-.76.614a3.086 3.086 0 0 0-.53.863c-.132.32-.198.648-.198.984 0 .126.01.263.03.411.02.149.06.288.124.416.062.13.152.237.272.322z"/><path id="m" d="M.735.638a1.615 1.615 0 0 0-.492 1.185v30.203c0 .461.164.857.492 1.185.329.33.723.493 1.183.493.462 0 .856-.164 1.184-.493a1.62 1.62 0 0 0 .492-1.185V21.12c0-2.083.736-3.862 2.21-5.338 1.472-1.474 3.249-2.212 5.329-2.212 2.08 0 3.856.738 5.329 2.212 1.473 1.476 2.209 3.255 2.209 5.338v10.907c0 .461.164.857.492 1.185.328.33.723.493 1.184.493.46 0 .855-.164 1.183-.493.328-.328.492-.724.492-1.185V21.12c0-3.006-1.064-5.574-3.193-7.707-2.13-2.133-4.695-3.2-7.696-3.2-2.932 0-5.446 1.015-7.539 3.043V1.823c0-.461-.165-.856-.492-1.185A1.614 1.614 0 0 0 1.918.146c-.46 0-.854.165-1.183.492z"/><path id="o" d="M3.816 3.471c2.29-2.293 5.053-3.44 8.292-3.44 3.24 0 6.004 1.147 8.294 3.44 2.288 2.294 3.433 5.062 3.433 8.306v10.068c0 .46-.163.856-.491 1.184a1.61 1.61 0 0 1-1.184.493 1.61 1.61 0 0 1-1.183-.493 1.62 1.62 0 0 1-.492-1.184v-1.846c-2.346 2.348-5.138 3.523-8.377 3.523-3.239 0-6.002-1.147-8.292-3.44S.381 15.022.381 11.778c0-3.244 1.145-6.012 3.435-8.306zm2.366 14.242c1.633 1.635 3.61 2.453 5.926 2.453 2.318 0 4.293-.818 5.927-2.453 1.633-1.636 2.45-3.615 2.45-5.936 0-2.321-.817-4.3-2.45-5.936-1.634-1.636-3.61-2.454-5.927-2.454-2.317 0-4.293.818-5.926 2.454-1.634 1.637-2.45 3.615-2.45 5.936 0 2.32.816 4.3 2.45 5.936z"/><path id="q" d="M3.511 3.471c2.29-2.293 5.055-3.44 8.293-3.44 3.239 0 6.003 1.147 8.293 3.44 2.29 2.294 3.434 5.062 3.434 8.306 0 3.244-1.145 6.012-3.434 8.306-2.29 2.292-5.054 3.439-8.293 3.439-3.238 0-6.003-1.147-8.293-3.44L3.428 20v11.913c0 .461-.164.856-.493 1.184a1.61 1.61 0 0 1-1.183.493c-.46 0-.855-.163-1.183-.493a1.618 1.618 0 0 1-.492-1.184V11.777c0-.31.01-.615.031-.916v-9.15c0-.463.164-.858.493-1.187A1.614 1.614 0 0 1 1.784.03c.46 0 .855.165 1.183.493.328.329.459.724.459 1.186v1.848l.085-.087zm2.367 14.242c1.633 1.635 3.609 2.453 5.926 2.453s4.293-.818 5.927-2.453c1.633-1.636 2.45-3.615 2.45-5.936 0-2.321-.817-4.3-2.45-5.936-1.634-1.636-3.61-2.454-5.927-2.454-2.317 0-4.293.818-5.926 2.454-1.634 1.637-2.45 3.615-2.45 5.936 0 2.32.816 4.3 2.45 5.936z"/><path id="s" d="M.937.731A2.02 2.02 0 0 0 .32 2.21c0 .573.205 1.066.617 1.478.412.413.904.619 1.477.619.572 0 1.064-.206 1.476-.62.412-.411.617-.904.617-1.477 0-.573-.205-1.066-.617-1.479A2.016 2.016 0 0 0 2.414.112C1.84.112 1.349.32.937.731zm.293 7.005a1.619 1.619 0 0 0-.492 1.186v20.135c0 .46.164.856.492 1.184.329.33.724.493 1.184.493.46 0 .856-.164 1.183-.493.328-.328.492-.723.492-1.184V8.922a1.62 1.62 0 0 0-.492-1.186 1.616 1.616 0 0 0-1.183-.493c-.46 0-.855.165-1.184.493z"/><path id="u" d="M.574.596A1.61 1.61 0 0 1 1.757.104c.461 0 .855.164 1.183.492.328.33.493.725.493 1.185v11.955l.084-.083c2.29-2.293 5.053-3.44 8.292-3.44s6.003 1.147 8.293 3.44c2.29 2.293 3.434 5.062 3.434 8.306 0 3.244-1.144 6.012-3.434 8.306-2.29 2.292-5.054 3.439-8.293 3.439-3.239 0-6.003-1.147-8.292-3.44l-.087-.087v1.85c0 .46-.158.856-.487 1.184-.327.33-.721.493-1.182.493-.46 0-.855-.164-1.183-.493a1.616 1.616 0 0 1-.493-1.185v-9.773a17.008 17.008 0 0 1-.003-.294V1.781c0-.46.164-.855.492-1.185zm5.31 27.299c1.632 1.635 3.608 2.453 5.925 2.453 2.318 0 4.293-.818 5.926-2.453 1.634-1.636 2.45-3.616 2.45-5.936 0-2.322-.816-4.3-2.45-5.936-1.633-1.636-3.608-2.454-5.926-2.454-2.317 0-4.293.818-5.926 2.454-1.634 1.637-2.45 3.614-2.45 5.936 0 2.32.816 4.3 2.45 5.936z"/><path id="w" d="M3.636 3.471C5.925 1.178 8.689.031 11.928.031c3.24 0 6.003 1.147 8.293 3.44 2.29 2.294 3.435 5.062 3.435 8.306 0 3.244-1.145 6.012-3.435 8.306-2.29 2.292-5.054 3.439-8.293 3.439-3.239 0-6.003-1.147-8.292-3.44C1.346 17.79.2 15.022.2 11.778c0-3.244 1.146-6.012 3.435-8.306zm2.366 14.242c1.633 1.635 3.609 2.453 5.926 2.453 2.318 0 4.294-.818 5.927-2.453 1.634-1.636 2.45-3.615 2.45-5.936 0-2.321-.816-4.3-2.45-5.936-1.633-1.636-3.61-2.454-5.927-2.454-2.317 0-4.293.818-5.926 2.454-1.633 1.637-2.45 3.615-2.45 5.936 0 2.32.817 4.3 2.45 5.936z"/><path id="y" d="M4.163.638a1.615 1.615 0 0 0-.492 1.185v8.39H1.995c-.46 0-.854.165-1.182.493a1.618 1.618 0 0 0-.492 1.186c0 .46.164.855.492 1.184a1.61 1.61 0 0 0 1.182.493h1.676v11.746c0 5.593 2.792 8.389 8.377 8.389.46 0 .855-.164 1.183-.493.328-.328.492-.724.492-1.185 0-.462-.164-.856-.492-1.185a1.614 1.614 0 0 0-1.183-.493c-3.351 0-5.026-1.677-5.026-5.033V13.569h3.371a1.61 1.61 0 0 0 1.183-.493c.33-.329.493-.724.493-1.184 0-.462-.164-.857-.493-1.186a1.613 1.613 0 0 0-1.183-.493h-3.37v-8.39c0-.461-.165-.856-.493-1.185A1.615 1.615 0 0 0 5.346.146c-.46 0-.855.165-1.183.492z"/><path id="A" d="M0 3.989V.256h24.016v3.733H0z"/></defs><g fill="none" fill-rule="evenodd"><g transform="translate(147.406 48.238)"><mask id="b" fill="#fff"><use xlink:href="#a"/></mask><path fill="#414141" mask="url(#b)" d="M-2.957 10.606H9.694V-2.797H-2.957z"/></g><g transform="translate(153.76 43.571)"><mask id="d" fill="#fff"><use xlink:href="#c"/></mask><path fill="#414141" mask="url(#d)" d="M-2.577 15.273h14.461V-2.648H-2.577z"/></g><g transform="translate(159.266 48.238)"><mask id="f" fill="#fff"><use xlink:href="#e"/></mask><path fill="#414141" mask="url(#f)" d="M-2.744 10.606h16.973V-2.818H-2.744z"/></g><g transform="translate(168.585 42.298)"><mask id="h" fill="#fff"><use xlink:href="#g"/></mask><path fill="#414141" mask="url(#h)" d="M-2.905 16.545H14.72V-2.772H-2.905z"/></g><g transform="translate(177.904 45.268)"><mask id="j" fill="#fff"><use xlink:href="#i"/></mask><path fill="#414141" mask="url(#j)" d="M-2.78 13.576H9.704V-2.571H-2.78z"/></g><g transform="translate(182.563 48.238)"><mask id="l" fill="#fff"><use xlink:href="#k"/></mask><path fill="#414141" mask="url(#l)" d="M-2.752 10.606h16.874V-2.807H-2.752z"/></g><g transform="translate(37.699 8.783)"><mask id="n" fill="#fff"><use xlink:href="#m"/></mask><path fill="#414141" mask="url(#n)" d="M-2.735 36.687H25V-2.837H-2.735z"/></g><g transform="translate(62.69 18.965)"><mask id="p" fill="#fff"><use xlink:href="#o"/></mask><path fill="#414141" mask="url(#p)" d="M-2.597 26.505h29.411V-2.952H-2.597z"/></g><g transform="translate(89.8 18.965)"><mask id="r" fill="#fff"><use xlink:href="#q"/></mask><path fill="#414141" mask="url(#r)" d="M-2.901 36.572H26.51V-2.952H-2.901z"/></g><g transform="translate(117.332 11.753)"><mask id="t" fill="#fff"><use xlink:href="#s"/></mask><path fill="#414141" mask="url(#t)" d="M-2.658 33.717H7.486V-2.871H-2.658z"/></g><g transform="translate(126.65 8.783)"><mask id="v" fill="#fff"><use xlink:href="#u"/></mask><path fill="#414141" mask="url(#v)" d="M-2.896 36.687h29.411V-2.879H-2.896z"/></g><g transform="translate(153.336 18.965)"><mask id="x" fill="#fff"><use xlink:href="#w"/></mask><path fill="#414141" mask="url(#x)" d="M-2.777 26.505h29.411V-2.952H-2.777z"/></g><g transform="translate(180.022 8.783)"><mask id="z" fill="#fff"><use xlink:href="#y"/></mask><path fill="#414141" mask="url(#z)" d="M-2.658 36.687h19.359V-2.837H-2.658z"/></g><path fill="#80DEEA" d="M17.856 41.547a1.212 1.212 0 0 1-.959.681 46.56 46.56 0 0 1-9.78.005 1.209 1.209 0 0 1-.96-.683l-.002-.002a1.206 1.206 0 0 1 1.215-1.723 44.65 44.65 0 0 0 9.272-.002 1.206 1.206 0 0 1 1.214 1.724"/><path fill="#00BCD4" d="M20.813 35.411v.001a1.21 1.21 0 0 1-.881.67 46.467 46.467 0 0 1-7.944.678c-2.692 0-5.334-.23-7.905-.673a1.211 1.211 0 0 1-.883-.67c-.43-.891.331-1.88 1.304-1.713 2.432.416 4.933.633 7.484.633 2.563 0 5.074-.217 7.519-.639.975-.168 1.737.821 1.306 1.713"/><g transform="translate(0 27.025)"><mask id="B" fill="#fff"><use xlink:href="#A"/></mask><path fill="#00838F" d="M23.894 1.999c-.158.327-.451.57-.803.656a46.623 46.623 0 0 1-11.103 1.334c-3.81 0-7.516-.458-11.06-1.323a1.213 1.213 0 0 1-.804-.656l-.002-.003C-.318 1.09.498.059 1.482.299a44.154 44.154 0 0 0 10.506 1.262c3.632 0 7.165-.438 10.545-1.269.985-.242 1.801.791 1.36 1.707" mask="url(#B)"/></g><path fill="#414141" d="M6.888 21.499A2.5 2.5 0 0 1 4.39 24a2.5 2.5 0 0 1-2.499-2.502 2.5 2.5 0 0 1 2.499-2.502 2.5 2.5 0 0 1 2.498 2.502m15.198 0A2.5 2.5 0 0 1 19.588 24a2.5 2.5 0 0 1-2.499-2.502 2.5 2.5 0 0 1 2.5-2.502 2.5 2.5 0 0 1 2.497 2.502M14.724 3.144a2.718 2.718 0 0 1-2.716 2.72 2.718 2.718 0 0 1-2.716-2.72 2.718 2.718 0 0 1 2.716-2.72c1.5 0 2.716 1.218 2.716 2.72"/><path stroke="#414141" stroke-linecap="round" stroke-width="2.384" d="M11.996 3.142l-.005 3.983a2.982 2.982 0 0 0 2.98 2.987l12.037.002a2.978 2.978 0 0 1 2.976 2.979v9.724"/></g></svg>