<svg xmlns="http://www.w3.org/2000/svg" width="340.156" height="74.497" viewBox="0 0 89.999496 19.710649"><g fill="#231f20"><path d="M90 0v19.71H0V0zm-.492.491H.491V19.22h89.017V.49" stroke-width=".035"/><path d="M26.312 3.538h-1.859v-.3h5.352c1.514 0 2.72.288 3.614.865.895.578 1.343 1.512 1.343 2.805 0 1.23-.472 2.149-1.418 2.757-.945.609-2.062.913-3.351.913-.752 0-1.34-.106-1.766-.319v5.914h1.916v.3h-5.69v-.3h1.86zm1.915 6.344c.163.1.373.192.63.273.256.082.529.123.816.123.789 0 1.496-.248 2.122-.744.626-.496.94-1.315.94-2.457 0-1.217-.28-2.112-.837-2.683-.557-.57-1.398-.856-2.525-.856h-1.146v6.344M42.385 2.956c1.59 0 2.976.675 4.16 2.025 1.182 1.35 1.774 2.974 1.774 4.874 0 1.913-.585 3.54-1.756 4.884-1.17 1.344-2.563 2.016-4.178 2.016-1.59 0-2.976-.675-4.16-2.025-1.182-1.35-1.774-2.975-1.774-4.875 0-1.912.586-3.54 1.756-4.884 1.17-1.343 2.563-2.015 4.178-2.015zm0 13.498c1.014 0 1.803-.353 2.366-1.059.563-.706.942-1.543 1.136-2.512.194-.969.291-1.978.291-3.028 0-1.087-.09-2.106-.272-3.055-.182-.95-.554-1.778-1.117-2.485-.564-.706-1.365-1.059-2.404-1.059-1.014 0-1.803.353-2.366 1.06-.563.706-.942 1.543-1.136 2.512a15.382 15.382 0 0 0-.291 3.027c0 1.088.091 2.106.272 3.056.182.95.554 1.778 1.118 2.484.563.706 1.364 1.06 2.403 1.06M51.532 3.538h-1.878v-.3h5.765c1.34 0 2.426.232 3.258.696.833.465 1.249 1.343 1.249 2.636 0 1.017-.414 1.751-1.24 2.203-.826.452-1.752.74-2.779.866 1.19.126 2.05.392 2.582.798.532.407.867 1.199 1.005 2.375l.263 2.29c.062.476.184.792.366.949a.912.912 0 0 0 .61.234c.2 0 .457-.062.77-.187l.113.244c-.2.075-.423.134-.667.178a4.997 4.997 0 0 1-.873.066c-1.04 0-1.706-.241-2-.723-.294-.482-.523-1.367-.685-2.657l-.132-1.126c-.075-.726-.284-1.283-.629-1.67-.344-.389-.998-.583-1.962-.583h-1.22v6.346h1.915v.3h-5.709v-.3h1.878zm1.915 5.989h.94c1.164 0 2.04-.23 2.628-.688.589-.458.883-1.214.883-2.27 0-.903-.226-1.634-.676-2.193-.451-.559-1.283-.838-2.497-.838h-1.278v5.989" fill-rule="evenodd" stroke-width=".035"/><path d="M67.047 3.538h-.394c-1.703 0-2.81.216-3.324.648-.513.431-.77 1.41-.77 2.938h-.3V3.238H73.75v3.886h-.3c0-1.515-.257-2.49-.77-2.929-.513-.438-1.615-.657-3.305-.657h-.413v12.635h1.934v.3h-5.783v-.3h1.934V3.538" stroke-width=".035"/><path d="M81.06 2.956c1.589 0 2.975.675 4.158 2.025 1.183 1.35 1.775 2.974 1.775 4.874 0 1.913-.585 3.54-1.756 4.884-1.17 1.344-2.563 2.016-4.178 2.016-1.59 0-2.976-.675-4.159-2.025-1.183-1.35-1.774-2.975-1.774-4.875 0-1.912.585-3.54 1.755-4.884 1.17-1.343 2.563-2.015 4.178-2.015zm0 13.498c1.013 0 1.802-.353 2.365-1.059.564-.706.942-1.543 1.136-2.512.194-.969.291-1.978.291-3.028 0-1.087-.09-2.106-.272-3.055-.182-.95-.554-1.778-1.117-2.485-.564-.706-1.365-1.059-2.404-1.059-1.014 0-1.803.353-2.366 1.06-.563.706-.942 1.543-1.136 2.512a15.382 15.382 0 0 0-.29 3.027c0 1.088.09 2.106.271 3.056.182.95.555 1.778 1.118 2.484.563.706 1.364 1.06 2.403 1.06" fill-rule="evenodd" stroke-width=".035"/><path d="M.246.246v19.219h22.358V.245zM3.09 3.22h5.915v.337H7.485v8.249c0 1.374.229 2.424.686 3.149.457.725 1.328 1.203 2.6 1.087 1.005-.092 1.58-.325 2.219-.975.638-.65.957-1.587.957-2.812V5.132c0-.562-.09-.965-.272-1.21-.182-.243-.325-.365-.8-.365h-.545V3.22h3.718v.337h-.489c-.337 0-.585.128-.741.384-.156.257-.235.654-.235 1.191v7.012c0 1.424-.41 2.543-1.23 3.355-.82.813-2.062 1.219-3.727 1.219-1.54 0-2.77-.416-3.69-1.247-.92-.831-1.38-1.971-1.38-3.421V3.557H3.091zm14.992 10.733c.372 0 .687.129.944.386.258.258.386.573.386.945s-.128.687-.386.945a1.284 1.284 0 0 1-.944.386c-.373 0-.688-.129-.945-.386a1.285 1.285 0 0 1-.386-.945c0-.372.128-.687.386-.945.257-.257.572-.386.945-.386z" stroke-width=".133"/></g></svg>