<svg xmlns="http://www.w3.org/2000/svg" width="569.096" height="173.017" viewBox="0 0 533.52783 162.20375"><defs><linearGradient id="a" gradientTransform="matrix(306.48291 0 0 -306.48291 326.931 122.793)" gradientUnits="userSpaceOnUse" x2="1"><stop offset="0"/><stop offset=".5" stop-color="#001"/><stop offset=".514" stop-color="#35373f"/><stop offset="1" stop-color="#16171a"/></linearGradient><linearGradient id="b" gradientTransform="matrix(.99993 .01166 -.01406 1.2056 -1621.27 -2166.968)" gradientUnits="userSpaceOnUse" y2="1907" x2="2172" y1="1861" x1="2172"><stop offset="0"/><stop offset=".438"/><stop offset=".465" stop-color="#727176"/><stop offset=".628" stop-color="#727176"/><stop offset="1" stop-color="#727176"/></linearGradient><linearGradient id="c" gradientTransform="matrix(0 45.86609 45.86609 0 479.653 99.86)" gradientUnits="userSpaceOnUse" x2="1"><stop offset="0" stop-color="#07060a"/><stop offset=".5" stop-color="#080808"/><stop offset=".514" stop-color="#35373f"/><stop offset="1" stop-color="#16171a"/></linearGradient><linearGradient id="d" gradientTransform="scale(-99.23585 99.23585) rotate(-29.777 .815 7.032)" gradientUnits="userSpaceOnUse" x2="1"><stop offset="0" stop-color="#0097fb"/><stop offset="1" stop-color="#002136"/></linearGradient><linearGradient id="e" gradientTransform="scale(117.2096 -117.2096) rotate(-9.407 -4.822 -11.413)" gradientUnits="userSpaceOnUse" x2="1"><stop offset="0" stop-color="#003457"/><stop offset="1" stop-color="#0097fb"/></linearGradient></defs><path d="M345.002 144.304c-.598-.586-.946-1.325-1.143-1.796l-16.928-42.197 8.551-.006 12.663 32.734 12.764-32.735 8.548.009-16.964 42.134c-.556 1.63-1.904 3.279-4.273 3.279a4.26 4.26 0 0 1-3.218-1.422m111.798-2.565v-41.431h7.63v29.564l18.319-27.573.629-.8c.723-.842 1.908-1.64 3.322-1.64 3.175 0 3.852 3.048 3.898 4.455l.014 1.228v39.679h-7.629v-29.492l-17.799 26.804-.42.698c-.986 1.221-2.204 2.383-3.897 2.383-2.416 0-3.771-1.702-4.067-3.875m168.984 3.482v-18.893h-18.778l.001 18.893h-7.629v-44.913h7.629l-.001 18.445h18.778v-18.445h7.631v44.913h-7.631zm-50.144 0c-6.762 0-11.859-4.005-11.859-11.298v-21.81c0-3.565 1.118-6.702 3.62-8.996 1.347-1.207 2.891-2.118 4.582-2.513 1.016-.226 2.578-.296 4.386-.296h18.476v7.574h-18.476c-1.84 0-2.715.236-2.999.377-1.177.583-1.961 1.606-1.961 3.932v21.879c0 2.49 1.362 3.578 4.288 3.578h19.261v7.573H575.64zm-35.833 0c-.616 0-1.349-.065-2.202-.206-6.327-1.047-9.826-5.133-9.826-11.541v-21.699c0-6.179 3.324-10.194 9.408-11.256a12.853 12.853 0 0 1 2.228-.211h19.317v7.574h-19.171c-2.768 0-4.257 1.404-4.265 4.065l.108 8.483-.108 4.232v8.821c0 2.899 1.43 4.165 4.303 4.165h19.245v7.573h-19.037zm-45.051 0v-7.573h11.55v-37.34h7.629v37.34h11.607v7.573h-30.786zm-65.047 0c-.617 0-1.35-.065-2.203-.206-6.327-1.047-9.827-5.133-9.827-11.541v-21.699c0-6.179 3.324-10.194 9.408-11.256a12.853 12.853 0 0 1 2.228-.211h19.317v7.574h-19.17c-2.768 0-4.258 1.404-4.265 4.065l.108 8.483-.108 4.232v8.821c0 2.899 1.429 4.165 4.303 4.165h19.245v7.573h-19.036zm-24.407-44.913h7.629v44.914h-7.629v-44.914zm-34.546 44.729v-33.125c0-2.585.432-4.981 1.584-6.901 1.306-2.157 3.44-3.566 5.953-4.419 1.493-.498 3.735-.652 6.342-.652h17.355v7.573h-17.411c-2.761 0-4.244.434-4.937.875-.621.416-1.256 1.273-1.256 3.478v33.171h-7.63zm168.268-19.542v-4.242h13.337l.125 4.242h-13.462zm-110.099 0v-4.242h13.336l.125 4.242h-13.461zm-84.108-6.663v-4.241h6.673l.126 4.241h-6.799z" fill="url(#a)" transform="matrix(1.25 0 0 -1.25 -258.24 230.476)"/><path d="M456.8 141.739v-39.333l7.63.089v27.377l18.049-27.167 7.876.092c.164.567.23 1.111.243 1.517l.014 1.228v39.679h-7.629v-29.492l-17.799 26.804-.42.698c-.986 1.221-2.204 2.383-3.897 2.383-2.416 0-3.771-1.702-4.067-3.875m168.984 3.482v-18.893h-18.778l.001 18.893h-7.629v-41.152l7.629.089-.001 14.595h18.778v-14.376l6.386.074 1.245.015v40.755h-7.631zm-50.144 0c-6.762 0-11.859-4.005-11.859-11.298v-21.81c0-3.277.945-6.192 3.041-8.424l28.023.327v3.866h-18.476c-1.84 0-2.715.236-2.999.377-1.177.583-1.961 1.606-1.961 3.932v21.879c0 2.49 1.362 3.578 4.288 3.578h19.261v7.573H575.64zm-35.833 0c-.616 0-1.349-.065-2.202-.206-6.327-1.047-9.826-5.133-9.826-11.541v-21.699c0-3.637 1.152-6.525 3.341-8.502l27.612.322v4.287h-19.171c-2.768 0-4.257 1.404-4.265 4.065l.108 8.483-.108 4.232v8.821c0 2.899 1.43 4.165 4.303 4.165h19.245v7.573h-19.037zm-45.051 0v-7.573h11.55v-34.665l7.629.09v34.575h11.607v7.573h-30.786zm-65.047 0c-.617 0-1.35-.065-2.203-.206-6.327-1.047-9.827-5.133-9.827-11.541v-21.699c0-4.51 1.772-7.868 5.095-9.765l25.858.301v5.571h-19.17c-2.768 0-4.258 1.404-4.265 4.065l.108 8.483-.108 4.232v8.821c0 2.899 1.429 4.165 4.303 4.165h19.245v7.573h-19.036zm-24.407 0v-43.416l7.63.089v43.327h-7.63zm-34.546-.184v-.843l.021-1.782.401-34.476c.254-1.057.632-2.042 1.162-2.925.931-1.539 2.285-2.697 3.897-3.544l16.34.19 9.413.11v5.746h-17.411c-2.761 0-4.244.434-4.937.875-.621.415-1.256 1.273-1.256 3.478v33.171h-7.63zm168.268-19.543v-4.241h13.337l.125 4.241h-13.462zm-110.099 0v-4.241h13.336l.125 4.241h-13.461z" fill="url(#b)" transform="matrix(1.25 0 0 -1.25 -258.24 230.476)"/><path d="M345.002 144.304c-.598-.586-.946-1.325-1.143-1.796l-16.928-42.197 8.551-.006 12.663 32.734 12.764-32.735 8.548.009-16.964 42.134c-.556 1.63-1.904 3.279-4.273 3.279a4.26 4.26 0 0 1-3.218-1.422m111.798-2.565v-41.431h7.63v29.564l18.319-27.573.629-.8c.723-.842 1.908-1.64 3.322-1.64 3.175 0 3.852 3.048 3.898 4.455l.014 1.228v39.679h-7.629v-29.492l-17.799 26.804-.42.698c-.986 1.221-2.204 2.383-3.897 2.383-2.416 0-3.771-1.702-4.067-3.875m168.984 3.482v-18.893h-18.778l.001 18.893h-7.629v-44.913h7.629l-.001 18.445h18.778v-18.445h7.631v44.913h-7.631zm-50.144 0c-6.762 0-11.859-4.005-11.859-11.298v-21.81c0-3.565 1.118-6.702 3.62-8.996 1.347-1.207 2.891-2.118 4.582-2.513 1.016-.226 2.578-.296 4.386-.296h18.476v7.574h-18.476c-1.84 0-2.715.236-2.999.377-1.177.583-1.961 1.606-1.961 3.932v21.879c0 2.49 1.362 3.578 4.288 3.578h19.261v7.573H575.64zm-35.833 0c-.616 0-1.349-.065-2.202-.206-6.327-1.047-9.826-5.133-9.826-11.541v-21.699c0-6.179 3.324-10.194 9.408-11.256a12.853 12.853 0 0 1 2.228-.211h19.317v7.574h-19.171c-2.768 0-4.257 1.404-4.265 4.065l.108 8.483-.108 4.232v8.821c0 2.899 1.43 4.165 4.303 4.165h19.245v7.573h-19.037zm-45.051 0v-7.573h11.55v-37.34h7.629v37.34h11.607v7.573h-30.786zm-65.047 0c-.617 0-1.35-.065-2.203-.206-6.327-1.047-9.827-5.133-9.827-11.541v-21.699c0-6.179 3.324-10.194 9.408-11.256a12.853 12.853 0 0 1 2.228-.211h19.317v7.574h-19.17c-2.768 0-4.258 1.404-4.265 4.065l.108 8.483-.108 4.232v8.821c0 2.899 1.429 4.165 4.303 4.165h19.245v7.573h-19.036zm-24.407-44.913h7.629v44.914h-7.629v-44.914zm-34.546 44.729v-33.125c0-2.585.432-4.981 1.584-6.901 1.306-2.157 3.44-3.567 5.953-4.419 1.493-.498 3.735-.652 6.342-.652h17.355v7.573h-17.411c-2.761 0-4.244.434-4.937.875-.621.415-1.256 1.273-1.256 3.478v33.171h-7.63zm168.268-19.543v-4.241h13.337l.125 4.241h-13.462zm-110.099 0v-4.241h13.336l.125 4.241h-13.461zm-84.108-6.662v-4.241h6.673l.126 4.241h-6.799z" fill="url(#c)" transform="matrix(1.25 0 0 -1.25 -258.24 230.476)"/><path d="M308.295 152.329l-3.924-73.304-.212-.27 20.924 5.704.809.227c-6.804 7.698-11.431 17.464-12.777 28.431-1.685 13.72 2.065 26.853 9.563 37.241l-1.886 1.971h-12.497zm-50.899 0l-9.087-14.814v-10.279c9.94 9.88 19.985 18.287 29.048 25.093h-19.961zm33.273-6.878c-16.087-6.98-30.354-17.311-42.36-28.202v-14.003l29.802 11.127c1.815.678 3.127-.331 2.914-2.279l-.394-3.584c-.222-2.011-1.929-4.193-3.796-4.845l-28.526-9.959V63.529l16.455 4.485 25.389 6.922-.379.38 6.032 66.325c.25 2.75-.771 4.109-3.028 4.109-.612 0-1.316-.1-2.109-.299" fill="url(#d)" transform="matrix(1.25 0 0 -1.25 -258.24 230.476)"/><path d="M286.576 184.381c-5.813-.08-13.043-5.748-18.908-15.308l-25.262-41.181-14.378-23.439c26.976 34.557 61.186 57.348 76.038 65.354l-11.549 12.066c-1.6 1.671-3.546 2.478-5.693 2.508h-.248zm21.38-38.4a118.265 118.265 0 0 0 14.037 3.405c.224.327.453.651.685.972l-8.778 9.172-4.943 5.165-1.001-18.714zm-17.287-.53c-45.101-19.567-75.88-65.472-82.716-76.236-2.95-8.853-1.112-14.586 5.614-14.597h.039c1.325.003 2.836.226 4.539.69l34.511 9.407a52.798 52.798 0 0 0-2.761 16.822c0 4.556.59 9.009 1.718 13.322l-5.387-1.881c-1.594-.557-2.552.558-2.154 2.465l.707 3.404c.386 1.853 1.948 3.808 3.504 4.389l7.613 2.842c7.544 14.845 21.733 27.288 39.89 35.35l.02.213c.25 2.75-.771 4.109-3.028 4.109-.612 0-1.316-.1-2.109-.299" fill="url(#e)" transform="matrix(1.25 0 0 -1.25 -258.24 230.476)"/></svg>