<svg id="Layer_1" xmlns="http://www.w3.org/2000/svg" viewBox="0 0 449 98"><style>.st0{fill:#5d00f3}.st1{fill:#fff}</style><path class="st0" d="M449 98H0V0h449v98z"/><path class="st1" d="M67.2 68.5V43.2h-.1l-8.7 25.3h-7.3l-8.7-25.7h-.1v25.7h-7.4V30.1h10.2l9.7 28.3h.1l9.6-28.3h10.1v38.4h-7.4zM88.1 68.8l-6.4-3.7v-9.5l6.4-3.7H97v-4.4H84.5v-6.4h13.7l6.4 3.7v24H101l-4-2.2-3.9 2.2h-5zm1.2-11.1v4.8H97v-4.8h-7.7zM119.7 28.5v23.6h.1l8.5-11h8.6l-9.8 12.2 11.5 15.2h-8.7l-7.1-9.7-3 3.8v5.9h-7.5v-40h7.4zM164.7 62.1v6.4h-16.4l-6.4-3.7V44.5l6.4-3.7h10l6.4 3.7v13.1h-15.3v4.5h15.3zm-15.3-14.8V52h7.7v-4.7h-7.7zM208.3 65.1l-6.4 3.7h-11.7l-6.4-3.7V44.5l6.4-3.7h11.7l6.4 3.7v20.6zm-16.9-17.8v15.1h9.4V47.3h-9.4zM232.9 47.5h-9.4v21H216V41.1h6.2l1.3 2.2 3.9-2.2h5.5v6.4zM277.1 45.9l-4.8 2.7v.1l4.8 2.7v13.4l-6.4 3.7h-20.8V30.1h20.8l6.4 3.7v12.1zm-19.5-9.2v8.7h11.8v-8.7h-11.8zm0 15.3v10h11.8V52h-11.8zM302.3 47.5h-9.4v21h-7.5V41.1h6.2l1.3 2.2 3.9-2.2h5.5v6.4zM330 62.1v6.4h-16.4l-6.4-3.7V44.5l6.4-3.7h10l6.4 3.7v13.1h-15.3v4.5H330zm-15.3-14.8V52h7.7v-4.7h-7.7zM342.9 68.8l-6.4-3.7v-9.5l6.4-3.7h8.9v-4.4h-12.5v-6.4H353l6.4 3.7v24h-3.6l-3.9-2.2-3.9 2.2h-5.1zm1.2-11.1v4.8h7.7v-4.8h-7.7zM374.5 28.5v23.6h.1l8.5-11h8.6l-9.8 12.2 11.5 15.2h-8.7l-7.1-9.7-3 3.8v5.9H367v-40h7.5z"/><g><path class="st1" d="M415.2 59.2H400v9.4h15.1v-9.4z"/></g></svg>