<svg width="693" height="315" viewBox="0 0 693 315" xmlns="http://www.w3.org/2000/svg" xmlns:xlink="http://www.w3.org/1999/xlink"><title>sponsor-scale-up-porto</title><defs><path id="a" d="M170.412.113H.06V315H340.765V.113z"/></defs><g fill="none" fill-rule="evenodd"><mask id="b" fill="#fff"><use xlink:href="#a"/></mask><path fill="#CF232A" mask="url(#b)" d="M280.767 55.549h-.379l-18.117 25.905h.379l-24.689 35.302h-.379l-18.117 25.904h.379l-24.696 35.327h-.387l-18.11 25.908h.38l-24.69 35.306h-.386l-18.11 25.9h.38l-24.496 35.06L130.968 315 340.765 14.974 319.518.113l-38.751 55.436M209.797.117L0 300.161 21.24 315l34.881-49.899h56.645l18.117-25.9H74.246l24.677-35.298h56.649l18.117-25.916h-56.638l24.686-35.327h56.648l18.117-25.904h-56.637l24.671-35.298h56.637l18.128-25.909h-56.637l28.369-40.583L209.797.117"/><path d="M346.092 217.188v18.846h4.839c7.052 0 12.285-2.424 12.285-9.68 0-7.151-5.233-9.166-12.285-9.166h-4.839zm0 55.511h-17.229v-70.521h25.492c17.634 0 26.592 10.876 26.592 24.176 0 13.3-8.958 24.689-26.592 24.689h-8.263v21.656zM397.072 249.229c0 5.739 3.731 10.073 9.069 10.073 5.234 0 9.063-4.334 9.063-10.073 0-5.85-3.829-9.984-9.063-9.984-5.338 0-9.069 4.134-9.069 9.984m-16.117 0c0-14.31 11.18-24.585 25.186-24.585s25.18 10.275 25.18 24.585c0 14.304-11.174 24.674-25.18 24.674s-25.186-10.37-25.186-24.674M466.5 239.178h-5.836c-6.958 0-8.773 6.022-8.773 11.962v21.559h-16.125v-46.85h15.516v7.463c.967-5.338 4.386-7.627 7.509-7.627 1.204 0 7.709.164 7.709.164v13.329M494.34 209.122v16.727h9.375v13.21h-9.375v17.017c0 2.721 2.321 3.123 4.134 3.123 3.019 0 5.241-.298 5.241-.298v13.798s-7.56.602-11.486.602c-7.567 0-14.006-2.119-14.006-11.783v-22.436h-6.943v-13.233h6.943v-16.727h16.117M523.238 249.229c0 5.739 3.723 10.073 9.061 10.073 5.242 0 9.071-4.334 9.071-10.073 0-5.85-3.829-9.984-9.071-9.984-5.338 0-9.061 4.134-9.061 9.984m-16.118 0c0-14.31 11.173-24.585 25.179-24.585 14.006 0 25.188 10.275 25.188 24.585 0 14.304-11.182 24.674-25.188 24.674-14.006 0-25.179-10.37-25.179-24.674M570.192 253.66a10.15 10.15 0 0 1 10.178 10.178c0 5.531-4.536 10.065-10.178 10.065-5.539 0-10.081-4.534-10.081-10.065 0-5.643 4.542-10.178 10.081-10.178M656.592 174.683c2.157 3.285 6.981 6.452 13.746 6.452 12.414 0 22.347-10.548 22.347-25.112 0-14.563-9.933-25.013-22.347-25.013-7.494 0-11.999 3.075-14.155 6.454 0 0 .409-.822.409-4.301v-.922H640.2v65.711h16.392v-23.269zm9.345-28.823c5.739 0 9.739 4.517 9.739 10.163 0 5.531-4 10.259-9.739 10.259-5.65 0-9.649-4.728-9.649-10.259 0-5.646 3.999-10.163 9.649-10.163zm-53.318 7.401c0 7.278-3.39 12.204-10.675 12.204-7.286 0-10.766-4.926-10.766-12.204v-45.122h-17.529v47.687c0 14.039 9.635 25.309 28.094 25.309 18.451 0 28.19-11.27 28.19-25.309v-47.687h-17.314v45.122zm-71.265-9.144c4.401 0 7.688 2.673 8.506 6.274h-17.018c.825-3.601 4.104-6.274 8.512-6.274zm25.634 15.59c0-20.303-12.207-28.697-25.634-28.697-14.459 0-25.23 10.55-25.23 25.013 0 14.564 10.972 25.112 25.439 25.112 11.062 0 20.191-4.608 24.503-15.574l-16.206-2.669c-1.324 2.766-4.61 4.312-7.896 4.312-4.714 0-7.895-3.182-8.608-6.575h33.632v-.922zm-74.64 20.195h16.393v-71.763h-16.393v71.763zm-47.273-30.86c3.486-2.048 10.563-4.2 14.979-4.2 4.305 0 6.245 1.635 6.245 3.487v.204c0 1.743-1.226 2.87-3.792 2.87h-7.999c-10.556 0-17.329 5.33-17.329 14.663 0 7.688 5.538 15.069 16.72 15.069 5.843 0 10.147-2.259 12.4-5.337v4.104h16.4V148.12c0-10.148-7.375-17.11-21.634-17.11-9.322 0-17.113 2.87-21.633 5.532l5.643 12.5zm14.251 20.808c-2.766 0-5.33-1.739-5.33-4.505 0-2.557 2.044-4 5.136-4h3.68c1.547 0 2.773-.617 3.487-1.43v3.171c0 4.519-3.174 6.764-6.973 6.764zm-50.658-23.99c4.61 0 7.889 3.086 8.922 7.598l16.192-3.182c-2.453-11.783-12.713-19.266-25.217-19.266-14.251 0-25.626 10.45-25.626 25.013 0 14.564 11.375 25.112 25.626 25.112 12.504 0 22.86-7.478 25.217-19.269l-16.192-3.178c-1.033 4.517-4.312 7.594-8.922 7.594-5.441 0-9.336-4.416-9.336-10.259 0-5.951 3.895-10.163 9.336-10.163zm-30.45-28.491c-6.972-7.386-16.712-10.452-26.145-10.452-13.839 0-24.812 9.009-24.812 21.213 0 8.924 5.431 15.995 16.299 20.715l8.208 3.595c5.122 2.252 7.479 4.3 7.479 7.277 0 2.974-2.454 5.643-7.379 5.643-6.661 0-13.842-3.694-17.738-7.69l-9.538 12.715c4.208 4.298 14.247 10.75 27.481 10.75 17.224 0 26.25-11.166 26.25-22.134 0-9.743-4.922-16.003-18.451-21.947l-8.416-3.694c-4.409-1.948-5.123-4.004-5.123-5.747 0-2.152 1.948-4.925 6.765-4.925 4.408 0 10.565 1.947 15.382 7.081l9.738-12.4z" fill="#010000"/></g></svg>