<svg width="148" height="77" viewBox="0 0 148 77" xmlns="http://www.w3.org/2000/svg" xmlns:xlink="http://www.w3.org/1999/xlink"><title>sponsor-cmp</title><defs><path id="a" d="M.06 76.94h147.911V.928H.06z"/></defs><g fill="none" fill-rule="evenodd"><mask id="b" fill="#fff"><use xlink:href="#a"/></mask><path d="M4.004 72.996h139.963V4.932H4.004v68.064zM0 77h147.971V.928H0V77z" fill="#273674" mask="url(#b)"/><path d="M29.402 30.198v7.908h2.032c2.959 0 5.16-1.015 5.16-4.061 0-3.003-2.201-3.847-5.16-3.847h-2.032zm0 23.305h-7.233V23.894h10.7c7.406 0 11.171 4.569 11.171 10.151 0 5.585-3.765 10.365-11.171 10.365h-3.467v9.093zM50.807 43.648c0 2.411 1.564 4.231 3.807 4.231 2.199 0 3.808-1.82 3.808-4.231 0-2.453-1.609-4.189-3.808-4.189-2.243 0-3.807 1.736-3.807 4.189zm-6.767 0c0-6.006 4.694-10.322 10.574-10.322 5.881 0 10.573 4.316 10.573 10.322 0 6.006-4.692 10.363-10.573 10.363-5.88 0-10.574-4.357-10.574-10.363zM79.959 39.43h-2.453c-2.921 0-3.682 2.527-3.682 5.023v9.05h-6.769V33.834h6.513v3.13c.408-2.238 1.846-3.202 3.156-3.202.505 0 3.235.072 3.235.072v5.596M91.648 26.813v7.021h3.936v5.544h-3.936v7.146c0 1.143.973 1.312 1.737 1.312 1.267 0 2.199-.128 2.199-.128v5.795s-3.173.254-4.826.254c-3.172 0-5.878-.887-5.878-4.948V39.39h-2.917v-5.556h2.917v-7.021h6.768M103.779 43.648c0 2.411 1.565 4.231 3.807 4.231 2.199 0 3.808-1.82 3.808-4.231 0-2.453-1.609-4.189-3.808-4.189-2.242 0-3.807 1.736-3.807 4.189zm-6.767 0c0-6.006 4.693-10.322 10.574-10.322 5.879 0 10.574 4.316 10.574 10.322 0 6.006-4.695 10.363-10.574 10.363-5.881 0-10.574-4.357-10.574-10.363zM123.494 45.51a4.258 4.258 0 0 1 4.272 4.272c0 2.326-1.901 4.229-4.272 4.229a4.243 4.243 0 0 1-4.229-4.229c0-2.369 1.905-4.272 4.229-4.272" fill="#273674"/></g></svg>