<svg xmlns="http://www.w3.org/2000/svg" width="238" height="120.947" viewBox="0 0 238 120.947"><path fill="#009ED1" d="M238 35.946h-30.061V8.947H49v97h42v15h42v-12h30v-25h15v17h29.939v-35H238z"/><path fill="#231F20" d="M0 80.947h49v9h41.193L104 76.101V22.946L90.252 8.947H49V0H0z"/><path fill="#FFF" d="M17 24.946v-16H9v55h22l4-4v-31l-4-4H17zm0 31v-23h10v23H17zm32 8.001h-8v-38.95h8v38.95zm13 0h-8v-25h8v25zm0-31.001h-8v-8h8v8zm28 31.001l4-4v-31l-4-3.95H68v54.95h8v-16h14zm-4.205-8.001H75.609v-23h10.186v23z"/><g fill="#F4F5F5"><path d="M115.76 33.306l2.352 7.875h.035l2.245-7.875h1.265l2.245 7.875h.036l2.352-7.875h1.193l-2.957 9.193h-1.23l-2.262-7.732h-.035l-2.246 7.732h-1.229l-2.957-9.193h1.193zM129.077 39.461c.112.434.294.823.544 1.167.249.345.563.629.943.855.381.226.838.338 1.372.338.819 0 1.461-.213 1.925-.641.463-.428.783-.998.961-1.71h1.123c-.238 1.045-.674 1.853-1.31 2.423-.636.57-1.535.855-2.699.855-.725 0-1.351-.128-1.88-.383a3.448 3.448 0 0 1-1.291-1.051 4.582 4.582 0 0 1-.74-1.55 7.06 7.06 0 0 1 0-3.643 4.788 4.788 0 0 1 .74-1.559 3.71 3.71 0 0 1 1.291-1.104c.529-.279 1.155-.419 1.88-.419.736 0 1.366.149 1.889.446s.946.686 1.273 1.167c.327.481.562 1.033.704 1.657s.201 1.256.178 1.897h-7.072c0 .403.056.822.169 1.255zm5.559-3.429a3.362 3.362 0 0 0-.579-1.042 2.884 2.884 0 0 0-.908-.73 2.607 2.607 0 0 0-1.212-.276c-.464 0-.873.092-1.229.276a2.873 2.873 0 0 0-.908.73 3.64 3.64 0 0 0-.598 1.051 5.151 5.151 0 0 0-.293 1.221h5.95a4.136 4.136 0 0 0-.223-1.23zM138.172 29.778v5.273h.035c.119-.332.288-.624.508-.873a3.266 3.266 0 0 1 1.684-1.016 4.11 4.11 0 0 1 .998-.125c.701 0 1.31.131 1.826.392s.947.615 1.291 1.06c.345.445.6.962.767 1.55.167.588.249 1.209.249 1.862s-.082 1.274-.249 1.862-.422 1.104-.767 1.55a3.648 3.648 0 0 1-1.291 1.051c-.517.255-1.125.383-1.826.383-.748 0-1.416-.172-2.004-.517a2.954 2.954 0 0 1-1.274-1.479h-.036v1.746h-1.033V29.778h1.122zm6.066 6.708a3.908 3.908 0 0 0-.535-1.256 2.931 2.931 0 0 0-.935-.899c-.38-.232-.837-.348-1.372-.348-.594 0-1.096.116-1.506.348a2.98 2.98 0 0 0-.997.899c-.256.369-.44.787-.552 1.256a6.026 6.026 0 0 0 0 2.833c.111.469.296.888.552 1.256.255.369.588.668.997.9.41.231.912.347 1.506.347.535 0 .992-.116 1.372-.347s.691-.531.935-.9c.244-.368.422-.787.535-1.256a6.027 6.027 0 0 0 0-2.833zM116.32 54.251c.113.434.295.823.544 1.167.249.345.563.629.944.855.38.226.837.338 1.371.338.82 0 1.461-.213 1.925-.641.463-.428.784-.998.962-1.71h1.123c-.238 1.045-.675 1.853-1.311 2.423-.635.57-1.535.855-2.699.855-.725 0-1.351-.128-1.879-.383a3.451 3.451 0 0 1-1.292-1.051c-.333-.446-.579-.962-.739-1.55a7.06 7.06 0 0 1 0-3.643c.16-.582.406-1.102.739-1.559a3.714 3.714 0 0 1 1.292-1.104c.528-.279 1.154-.419 1.879-.419.736 0 1.366.149 1.889.446a3.75 3.75 0 0 1 1.273 1.167c.327.481.562 1.033.705 1.657s.201 1.256.178 1.897h-7.073c0 .403.056.821.169 1.255zm5.559-3.43a3.38 3.38 0 0 0-.578-1.042c-.25-.303-.553-.546-.909-.73s-.761-.276-1.212-.276a2.64 2.64 0 0 0-1.229.276 2.85 2.85 0 0 0-.908.73 3.64 3.64 0 0 0-.598 1.051 5.202 5.202 0 0 0-.294 1.221h5.95a4.018 4.018 0 0 0-.222-1.23zM125.397 48.096v1.585h.036c.213-.558.594-1.006 1.141-1.345a3.351 3.351 0 0 1 1.799-.508c.641 0 1.179.083 1.612.25.433.167.78.401 1.042.704.262.303.445.674.553 1.113.106.439.16.933.16 1.479v5.915h-1.123v-5.737c0-.392-.035-.757-.106-1.096-.071-.338-.196-.632-.374-.882s-.419-.445-.722-.588-.681-.214-1.132-.214-.852.08-1.202.241a2.6 2.6 0 0 0-.891.659 3.042 3.042 0 0 0-.57.998 4.087 4.087 0 0 0-.223 1.256v5.363h-1.122v-9.193h1.122zM140.959 58.375a3.587 3.587 0 0 1-.703 1.39c-.32.38-.739.671-1.256.873-.517.202-1.149.303-1.897.303-.464 0-.915-.054-1.354-.161a3.817 3.817 0 0 1-1.184-.499 2.923 2.923 0 0 1-.873-.864c-.232-.351-.365-.769-.401-1.256h1.122c.06.344.176.632.348.864.172.232.38.419.623.562.244.143.514.246.811.312s.6.098.909.098c1.045 0 1.8-.297 2.263-.891.463-.594.695-1.449.695-2.565v-1.248h-.036a3.283 3.283 0 0 1-1.149 1.372c-.505.345-1.096.517-1.772.517-.737 0-1.366-.122-1.889-.365a3.517 3.517 0 0 1-1.292-1.006 4.103 4.103 0 0 1-.738-1.506 7.068 7.068 0 0 1-.232-1.844c0-.629.092-1.226.276-1.791a4.455 4.455 0 0 1 .802-1.479c.35-.421.783-.754 1.301-.998.517-.243 1.107-.365 1.772-.365.345 0 .668.048.972.143.303.095.578.229.828.401.249.172.472.372.668.597.195.226.348.463.454.712h.036v-1.585h1.122v8.445a7.094 7.094 0 0 1-.226 1.834zm-2.574-2.449c.369-.208.678-.481.927-.82.249-.338.437-.727.562-1.167.125-.439.188-.891.188-1.354 0-.451-.055-.902-.161-1.354-.106-.451-.278-.861-.517-1.229s-.543-.665-.918-.891c-.373-.226-.828-.339-1.362-.339s-.991.11-1.372.33c-.38.22-.694.508-.943.864-.25.356-.432.763-.544 1.22a5.814 5.814 0 0 0-.169 1.398c0 .463.059.915.178 1.354.119.44.303.829.553 1.167.249.339.563.612.943.82.381.208.832.312 1.354.312.486 0 .914-.103 1.281-.311zM144.016 44.568v1.8h-1.123v-1.8h1.123zm0 3.528v9.193h-1.123v-9.193h1.123zM146.83 48.096v1.585h.035c.215-.558.594-1.006 1.141-1.345a3.357 3.357 0 0 1 1.8-.508c.642 0 1.179.083 1.612.25.434.167.781.401 1.042.704.261.303.445.674.552 1.113.107.439.161.933.161 1.479v5.915h-1.122v-5.737a5.34 5.34 0 0 0-.107-1.096c-.071-.338-.195-.632-.374-.882s-.419-.445-.722-.588-.68-.214-1.131-.214-.853.08-1.203.241c-.35.16-.647.38-.891.659a3.024 3.024 0 0 0-.57.998 4.057 4.057 0 0 0-.223 1.256v5.363h-1.122v-9.193h1.122zM155.676 54.251c.112.434.293.823.543 1.167.25.345.564.629.944.855.38.226.837.338 1.372.338.818 0 1.461-.213 1.924-.641s.783-.998.962-1.71h1.122c-.237 1.045-.674 1.853-1.309 2.423-.637.57-1.535.855-2.699.855-.725 0-1.352-.128-1.88-.383a3.451 3.451 0 0 1-1.292-1.051 4.6 4.6 0 0 1-.739-1.55 7.06 7.06 0 0 1 0-3.643 4.806 4.806 0 0 1 .739-1.559 3.714 3.714 0 0 1 1.292-1.104c.528-.279 1.155-.419 1.88-.419.736 0 1.365.149 1.889.446.521.297.946.686 1.273 1.167.326.481.561 1.033.703 1.657s.202 1.256.179 1.897h-7.073c0 .403.056.821.17 1.255zm5.558-3.43a3.364 3.364 0 0 0-.58-1.042c-.249-.303-.552-.546-.908-.73s-.76-.276-1.211-.276c-.464 0-.873.092-1.23.276a2.884 2.884 0 0 0-.908.73 3.661 3.661 0 0 0-.597 1.051 5.153 5.153 0 0 0-.294 1.221h5.951a4.11 4.11 0 0 0-.223-1.23zM164.477 54.251c.113.434.294.823.543 1.167.25.345.564.629.945.855.379.226.836.338 1.371.338.819 0 1.461-.213 1.924-.641s.784-.998.963-1.71h1.122c-.237 1.045-.675 1.853-1.31 2.423-.636.57-1.535.855-2.699.855-.725 0-1.352-.128-1.879-.383a3.455 3.455 0 0 1-1.293-1.051c-.332-.446-.578-.962-.738-1.55a7.06 7.06 0 0 1 0-3.643c.16-.582.406-1.102.738-1.559a3.717 3.717 0 0 1 1.293-1.104c.527-.279 1.154-.419 1.879-.419.736 0 1.365.149 1.889.446.522.297.947.686 1.273 1.167.326.481.562 1.033.704 1.657s.202 1.256.179 1.897h-7.074c0 .403.056.821.17 1.255zm5.558-3.43a3.382 3.382 0 0 0-.579-1.042 2.854 2.854 0 0 0-.909-.73 2.597 2.597 0 0 0-1.211-.276c-.463 0-.873.092-1.229.276s-.659.427-.908.73a3.661 3.661 0 0 0-.597 1.051 5.204 5.204 0 0 0-.295 1.221h5.951a4.049 4.049 0 0 0-.223-1.23zM173.482 48.096v2.156h.035c.285-.749.728-1.324 1.328-1.729.6-.403 1.314-.588 2.146-.552v1.123a3.394 3.394 0 0 0-1.391.205c-.415.16-.774.389-1.077.686-.303.297-.538.65-.704 1.06a3.55 3.55 0 0 0-.249 1.345v4.899h-1.122v-9.193h1.034zM182.906 49.886a1.842 1.842 0 0 0-.525-.633 2.192 2.192 0 0 0-.757-.365 3.472 3.472 0 0 0-.909-.116c-.249 0-.502.027-.757.08a2.362 2.362 0 0 0-.704.268 1.515 1.515 0 0 0-.516.49c-.131.202-.196.452-.196.749 0 .249.062.46.187.632s.282.318.473.437c.189.119.397.217.623.294s.434.14.624.187l1.497.338c.32.048.638.134.953.258.314.125.594.288.836.49.244.202.443.451.598.748s.231.647.231 1.051c0 .499-.112.923-.339 1.274-.226.35-.514.635-.863.855a3.68 3.68 0 0 1-1.186.472 6.141 6.141 0 0 1-1.301.143c-1.08 0-1.957-.255-2.627-.766-.672-.511-1.055-1.33-1.149-2.458h1.122c.048.76.324 1.333.828 1.719.506.386 1.132.579 1.881.579.272 0 .555-.029.846-.089.291-.059.561-.16.811-.303s.454-.324.615-.543c.16-.22.24-.49.24-.811 0-.273-.057-.502-.17-.686s-.264-.338-.454-.463a2.871 2.871 0 0 0-.649-.312 8.329 8.329 0 0 0-.74-.214l-1.443-.321a8.19 8.19 0 0 1-1.016-.33 3.283 3.283 0 0 1-.811-.463c-.23-.184-.412-.41-.543-.677s-.195-.597-.195-.989c0-.463.104-.861.311-1.194.209-.332.479-.6.812-.801a3.768 3.768 0 0 1 1.113-.446 5.38 5.38 0 0 1 1.22-.143c.464 0 .895.06 1.293.178.396.119.748.303 1.051.552.303.25.543.559.721.927.179.368.279.802.303 1.3h-1.121a2.172 2.172 0 0 0-.218-.898z"/></g></svg>