<svg width="65" height="76" viewBox="0 0 65 76" xmlns="http://www.w3.org/2000/svg"><title>psc-logo-white</title><g fill-rule="nonzero" fill="#FFF"><path d="M3.914 51.431c-2.008 0-3.345-1.069-3.345-3.027v-2.886h2.355v2.163c0 1.021.399 1.343.962 1.343.618 0 .992-.376.992-1.982 0-1.66-.134-3.052-1.392-5.14a123.595 123.595 0 0 1-1.258-2.085C.971 37.759.489 36.311.489 33.956c0-2.754 1.417-4.253 3.478-4.253 2.33 0 3.264 1.687 3.32 3.826.027.91.027 2.329.027 2.329H4.931v-1.902c0-1.094-.239-1.738-.964-1.738-.72 0-1.016.537-1.016 1.98 0 1.633.643 3.052 1.418 4.309.239.373 1.124 1.792 1.312 2.114 1.282 2.114 1.684 3.824 1.684 6.446.001 3.104-1.311 4.364-3.451 4.364M13.167 51.401c-2.14 0-3.533-1.094-3.533-3.476V29.836h2.49v17.713c0 1.123.32 1.445.99 1.445.668 0 .909-.376.909-1.421V29.836h2.516v18.089c.001 2.222-1.204 3.476-3.372 3.476M26.937 51.241l.028-14.689-1.767 14.689h-2.14l-1.741-14.662.028 14.662h-2.303V29.836h3.265l1.82 15.277 1.953-15.277h3.159v21.405zM39.667 51.241l.029-14.689-1.767 14.689H35.79l-1.74-14.662.027 14.662h-2.303V29.836h3.265l1.821 15.277 1.953-15.277h3.157v21.405zM44.506 51.241V29.836h5.967v2.541h-3.452v6.878h3.078v2.407h-3.078v7.093h3.478v2.486zM6.523 71.449c.027-.883.052-5.302.052-7.065 0-1.474 0-5.888-.026-6.743-.027-1.152-.27-1.607-1.019-1.607-.856 0-.935.615-.987 1.66-.055.854-.028 5.244-.028 6.767 0 1.607-.027 6.05.028 6.987.052.879.212 1.441.987 1.441.726.001.938-.639.993-1.44m2.514-14.052c.052.913.052 4.765.052 6.88 0 2.3 0 5.805-.052 7.172-.079 2.515-1.124 3.853-3.559 3.853-2.38 0-3.45-1.259-3.533-3.75 0-.639-.026-5.215-.026-7.197 0-1.978.026-6.392.026-6.821.055-2.353 1.018-3.935 3.533-3.935 2.355 0 3.452 1.23 3.559 3.798M14.059 56.25v6.85h3.212v2.461h-3.212v9.551h-2.516V53.706h6.076v2.544zM31.719 71.582c0 2.275-1.256 3.72-3.477 3.72-2.302 0-3.319-1.235-3.504-3.188-.136-1.792-.136-5.859-.136-7.836 0-1.983.052-6.289.052-7.012.136-2.622 1.421-3.667 3.8-3.667 2.087 0 3.161 1.259 3.24 3.989v3.369h-2.437v-3.769c-.026-.806-.427-1.128-.908-1.128-.749 0-1.097.459-1.097 1.313-.027.937-.027 5.322-.027 6.851 0 1.977.027 6.45.052 7.011.055 1.309.43 1.685 1.017 1.685.51 0 .99-.298.99-1.792v-3.213h2.434v3.667h.001zM38.606 71.449c.027-.883.051-5.302.051-7.065 0-1.474 0-5.888-.025-6.743-.027-1.152-.269-1.607-1.016-1.607-.855 0-.937.615-.991 1.66-.055.854-.027 5.244-.027 6.767 0 1.607-.028 6.05.027 6.987.054.879.214 1.441.991 1.441.723.001.938-.639.99-1.44m2.514-14.052c.056.913.056 4.765.056 6.88 0 2.3 0 5.805-.056 7.172-.08 2.515-1.121 3.853-3.56 3.853-2.379 0-3.45-1.259-3.53-3.75 0-.639-.027-5.215-.027-7.197 0-1.978.027-6.392.027-6.821.051-2.353 1.016-3.935 3.53-3.935 2.356 0 3.452 1.23 3.56 3.798M48.016 63.901c0-.747-.054-5.644-.054-6.396-.025-1.04-.51-1.553-1.098-1.553h-.748v17.099h.987c.43 0 .835-.322.859-1.147.027-.884.054-7.256.054-8.003m-.775 11.211h-3.614V53.706h3.211c1.77 0 2.732.669 3.24 2.061.375 1.045.426 5.752.426 8.159 0 3.134-.051 8.403-.454 9.179-.591 1.152-1.018 2.007-2.809 2.007M52.88 75.112V53.706h5.969v2.544h-3.455v6.875h3.081v2.407h-3.081v7.094h3.481v2.486zM55.995 39.201c-.21.027-.771.027-.801.027v-3.147l-2.461-4.651v19.81h2.432v-9.657h.621l1.602 9.657h2.49l-1.684-9.498-1.594-3.005a.798.798 0 0 1-.605.464M56.986 34.065c0 .776-.134 2.007-.292 2.461-.03.081-.057.159-.094.232l1.593 3.003-.162-.906c.374-.161.908-.803 1.124-1.499.002-.015.007-.027.011-.041l-2.196-4.148c.008.302.016.612.016.898M52.733 27.856v1.594l2.461 4.651V30.29h.254l-1.289-2.434zM57.282 25.876H55.15l1.289 2.434h.469c.561 0 .908.535.962 1.257.019.174.064.874.088 1.619l2.196 4.15c.234-.776.337-1.838.337-3.545v-.112l-3.071-5.798c-.043-.002-.093-.005-.138-.005M57.919 23.901l3.066 5.798c-.007-1.706-.218-2.903-.454-3.689-.361-1.315-1.299-2.057-2.612-2.109M4.629 16.072h-.727v4.639h.727a2.322 2.322 0 0 0 2.318-2.319 2.322 2.322 0 0 0-2.318-2.32m0 7.307h-.727v3.479H1.23V13.404h3.399c2.75 0 4.99 2.236 4.99 4.988a4.995 4.995 0 0 1-4.99 4.987M18.223 24.443a4.302 4.302 0 0 0 4.303-4.304 4.3 4.3 0 0 0-4.303-4.301c-2.376 0-4.322 1.924-4.322 4.301-.001 2.378 1.946 4.304 4.322 4.304m0 2.688c-3.87 0-7.013-3.125-7.013-6.992a7.016 7.016 0 0 1 7.013-7.011c3.869 0 6.994 3.142 6.994 7.011a6.985 6.985 0 0 1-6.994 6.992M30.991 16.075h-.725v4.634h.725a2.322 2.322 0 0 0 2.319-2.317 2.32 2.32 0 0 0-2.319-2.317m2.319 6.716l3.555 4.065H33.31l-3.044-3.476v3.476h-2.672V13.401h3.397a4.999 4.999 0 0 1 4.99 4.99 4.974 4.974 0 0 1-2.671 4.4M38.197 13.401v2.674h2.239v10.78h2.669v-10.78h1.496l-1.414-2.674zM46.612 20.139a6.974 6.974 0 0 0 3.274 5.915l-3.267-6.169c-.003.083-.007.169-.007.254M43.187 11.421l1.414 2.674h.765v-2.674zM49.35 18.77l-1.988-3.755a6.93 6.93 0 0 0-.742 2.891l3.267 6.169c.83.525 1.787.879 2.807 1.013l-1.997-3.767a4.287 4.287 0 0 1-1.347-2.551M48.349 13.035l1.99 3.755a4.524 4.524 0 0 1-.047-.61c0-.881.271-1.704.732-2.387l-1.362-2.566a7.034 7.034 0 0 0-1.313 1.808M51.688 19.341l1.994 3.767a6.842 6.842 0 0 0 2.239-.058l-1.357-2.568a4.331 4.331 0 0 1-2.876-1.141M55.111 18.501h-.054l1.359 2.568a6.954 6.954 0 0 0 1.922-.662l-1.26-2.38c-.59.303-1.26.474-1.967.474M50.156 9.246l1.362 2.566a4.393 4.393 0 0 1 1.533-1.391l-1.264-2.39a7.057 7.057 0 0 0-1.631 1.215M52.279 6.051l1.269 2.39a4.3 4.3 0 0 1 1.992-.52l-1.357-2.566a7.004 7.004 0 0 0-1.904.696M57.572 16.048l1.26 2.378a6.883 6.883 0 0 0 1.641-1.187l-1.348-2.546a4.336 4.336 0 0 1-1.553 1.355M60.401 10.242c0 .918-.29 1.773-.783 2.468l1.353 2.549a6.953 6.953 0 0 0 1.328-1.78l-1.914-3.613c.011.122.016.247.016.376M56.1 3.228c-.485 0-.962.054-1.423.149l1.357 2.563c.025 0 .047-.003.066-.003 1.03 0 1.978.364 2.718.969l-1.924-3.633a7.382 7.382 0 0 0-.794-.045M57.391 1.295l1.922 3.633a4.292 4.292 0 0 1 1.567 2.959l1.912 3.613c.444-.85.722-1.799.783-2.812l-3.423-6.462a6.942 6.942 0 0 0-2.761-.931M60.648.738l3.423 6.465A7.012 7.012 0 0 0 60.648.738"/></g></svg>