<svg width="842" height="596" viewBox="0 0 842 596" xmlns="http://www.w3.org/2000/svg"><title>sponsor-liberty</title><g fill="none" fill-rule="evenodd"><path fill="#093566" d="M.06 595.887h841.83V.611H.06z"/><path d="M377.132 345.223h-2.359c-1.527 1.527-2.914 2.22-4.163 2.22-2.082 0-4.441-.555-6.939-1.11-2.497-.556-5.272-1.11-8.326-1.11-14.987 0-25.536 9.714-25.536 23.729 0 6.385 2.36 12.352 7.219 17.209 6.798 6.799 21.092 12.767 27.337 19.012 3.053 3.053 4.163 6.661 4.163 9.298 0 6.66-6.243 11.518-14.987 11.518-11.656 0-19.428-8.327-21.787-20.4h-2.36v24.424h2.36c.833-1.666 2.359-2.636 4.163-2.636 4.162 0 10.13 3.192 19.844 3.192 9.992 0 26.089-5.69 26.089-23.592 0-7.077-2.775-12.629-8.881-18.735-4.995-4.996-23.592-14.848-27.616-18.872-2.497-2.499-4.024-5.551-4.024-8.605 0-6.106 5.968-10.963 13.323-10.963 8.325 0 17.068 7.356 20.121 16.791h2.359v-21.37M444.506 397.679c-1.943-14.433-12.628-23.592-27.477-23.592-16.515 0-29.143 12.352-29.143 28.588 0 15.959 12.213 27.894 28.589 27.894 12.626 0 23.313-6.939 28.031-18.179h-2.358c-4.996 7.632-11.102 11.379-18.735 11.379-9.715 0-19.428-8.882-18.596-26.09h39.689zm-39.689-3.192c.416-9.991 4.719-16.653 11.102-16.653 6.384 0 11.102 6.939 11.658 16.653h-22.76zM513.038 374.365h-27.34c-.832 0-4.579-.278-7.772-.278-15.68 0-26.505 9.438-26.505 21.511 0 9.019 5.275 14.709 17.486 18.456v.278c-12.352 2.775-17.069 5.552-17.069 11.657 0 5.689 2.498 10.824 18.318 12.489v.278c-15.266 1.527-22.343 8.881-22.343 15.542 0 9.575 12.35 16.237 30.113 16.237 23.317 0 34.974-11.658 34.974-23.73 0-3.47-1.527-7.91-4.997-11.38-12.35-12.351-43.436-5.689-43.436-14.294 0-4.44 6.383-5.551 16.791-5.551 15.684 0 25.258-8.88 25.258-19.15 0-5.135-1.943-9.02-7.077-13.322l.277-.278 13.322.972v-9.437zm-45.935 20.677c0-11.517 4.301-17.068 12.49-17.068 6.105 0 11.24 5.272 11.24 16.652 0 12.213-5.274 17.208-11.796 17.208-7.216 0-11.934-6.522-11.934-16.792zm-6.522 53.567c0-4.858 5.689-8.049 14.432-8.049 8.049 0 29.004 2.081 29.004 12.628 0 4.996-5.551 8.604-13.322 8.604-10.41 0-30.114-3.192-30.114-13.183zM526.619 414.61c0 9.991 6.521 15.959 17.347 15.959 8.465 0 14.987-3.887 20.815-12.768h.278v12.768l24.008-2.082v-2.359c-6.939-1.805-8.327-3.47-8.327-10.408v-41.633h-2.358l-21.511 2.082v2.36c5.412.97 8.188 3.469 8.188 7.771v26.09c-4.579 7.215-7.771 9.436-13.045 9.436-5.69 0-9.713-2.915-9.713-9.159v-38.58h-2.36l-21.509 2.082v2.36c6.245 1.109 8.187 3.191 8.187 9.02v27.061M646.38 378.529c-2.499-2.915-5.83-4.442-9.299-4.442-6.523 0-12.213 5.274-17.347 16.653h-.278v-16.653h-2.359l-22.898 2.082v2.36c6.663.554 9.577 3.608 9.577 10.269v27.616c0 5.966-1.805 8.048-8.743 9.714v2.359h33.306v-2.359c-7.633-1.527-8.883-3.47-8.883-9.714v-21.372c4.026-5.551 6.939-7.493 11.658-7.493 3.608 0 7.216 2.358 11.795 6.799l3.471-15.819M713.482 402.259c0-12.907-9.992-28.172-32.613-28.172-24.842 0-32.752 17.347-32.752 28.172 0 14.016 10.963 28.31 32.752 28.31 21.788 0 32.613-14.433 32.613-28.31zm-17.347 0c0 15.264-5.551 24.563-15.266 24.563-9.437 0-15.405-9.299-15.405-23.592 0-14.71 4.442-25.396 15.405-25.396 10.271 0 15.266 9.715 15.266 24.425zM756.625 374.226h-2.359c-.694.555-1.944 1.388-3.192 1.388-.973 0-3.192-.416-5.83-.833-2.636-.277-5.689-.694-8.048-.694-11.518 0-18.318 7.633-18.318 15.96 0 19.705 30.808 15.265 30.808 29.141 0 4.164-4.303 7.634-9.298 7.634-7.494 0-13.738-5.413-19.013-16.515h-2.358v20.262h2.358c1.112-1.111 2.915-1.804 4.858-1.804 1.665 0 3.608.416 6.106.832 2.359.555 5.274.972 8.604.972 8.465 0 18.874-6.8 18.874-18.042 0-21.648-30.392-17.762-30.392-28.864 0-3.469 3.885-5.829 8.742-5.829 6.939 0 12.907 4.719 16.099 12.629h2.359v-16.237M359.44 213.75c0-7.506 2.355-9.272 10.89-11.478v-2.504h-40.765v2.504c8.977 2.206 10.889 4.414 10.889 12.066v55.042c0 9.272-1.028 11.479-10.889 13.981v2.502h65.785l2.501-22.37h-2.501c-6.918 14.276-11.775 17.514-22.371 17.514-10.596 0-13.539-2.208-13.539-9.272V213.75M424.762 228.32h-2.503l-24.135 2.061v2.501c8.095 1.619 10.007 3.532 10.007 10.302v29.581c0 7.065-1.766 9.124-9.271 10.596v2.502h34.879v-2.502c-6.182-.736-8.977-3.826-8.977-9.419V228.32zm-17.955-25.019c0 5.299 4.415 9.713 9.713 9.713 5.298 0 9.565-4.414 9.565-9.713a9.546 9.546 0 0 0-9.565-9.566c-5.298 0-9.713 4.268-9.713 9.566zM460.206 193.735h-2.503l-22.515 1.619v2.502c5.149.883 8.387 3.532 8.387 8.241v79.766c8.389 1.619 16.631 2.207 27.08 2.207 27.081 0 37.382-14.128 37.382-31.199 0-16.189-11.479-28.698-26.492-28.698-7.947 0-14.716 3.238-21.339 10.154v-44.592zm0 48.566c5.593-5.151 8.537-6.623 12.95-6.623 9.861 0 16.484 9.419 16.484 22.958 0 18.102-8.242 25.461-20.605 25.461-6.622 0-8.829-2.944-8.829-9.271v-32.525zM575.245 253.192c-2.061-15.306-13.393-25.019-29.141-25.019-17.512 0-30.905 13.098-30.905 30.317 0 16.924 12.951 29.58 30.317 29.58 13.392 0 24.724-7.358 29.729-19.279h-2.503c-5.298 8.095-11.773 12.068-19.868 12.068-10.301 0-20.603-9.419-19.721-27.667h42.092zm-42.092-3.385c.442-10.596 5.004-17.661 11.774-17.661s11.775 7.358 12.362 17.661h-24.136zM632.909 232.882c-2.649-3.09-6.181-4.709-9.861-4.709-6.915 0-12.95 5.592-18.394 17.66h-.296v-17.66h-2.502l-24.282 2.208v2.501c7.064.589 10.155 3.826 10.155 10.891v29.286c0 6.328-1.913 8.536-9.273 10.302v2.502h35.322v-2.502c-8.096-1.619-9.42-3.679-9.42-10.302v-22.664c4.268-5.886 7.359-7.947 12.363-7.947 3.827 0 7.653 2.502 12.51 7.211l3.678-16.777M644.615 270.411c0 12.656 8.388 17.659 18.838 17.659 8.24 0 13.686-2.942 17.809-9.86l-1.767-1.619c-2.651 3.091-5.151 4.416-8.095 4.416-7.801 0-10.155-5.298-10.155-14.276v-31.936h18.25v-4.414h-18.25v-21.488h-2.797c-7.8 10.008-16.923 18.838-23.842 23.107v2.795h10.009v35.616" fill="#FFFFFE"/><path d="M731.122 247.158c4.561-10.303 6.329-12.363 13.393-14.276v-2.501h-23.107v2.501c7.064 1.472 8.683 5.886 3.68 17.66l-7.653 17.808-11.773-24.284c-3.385-7.063-3.385-10.301 2.944-11.184v-2.501h-33.851v2.501c8.096 2.06 10.009 4.857 13.541 12.363l20.31 42.825c-6.77 18.249-12.658 25.607-22.96 25.607-2.208 0-3.976-.147-7.507-1.324l-3.384 16.777c2.062.295 3.238.295 4.711.295 11.479 0 17.807-4.858 23.694-18.397l27.962-63.87M328.328 316.924h333.343v-4.387H328.328zM712.451 316.924h68.812v-4.387h-68.812zM227.527 242.982c1.328.635 1.472.621 2.626 1.435l23.915-25.805c-7.76-8.097-15.363-13.449-25.835-18.073-3.888-1.694-5.081-2.288-9.302-3.46l5.721 44.778s1.879.645 2.875 1.125M147.792 201.192l42.841 40.607s1.614-.806 2.3-1.062c1.341-.498 2.751-.811 2.751-.811l4.153-46.307c-4.324-.531-7.005-.713-11.627-.872-10.624-.361-25.446 1.714-35.193 5.916-3.511 1.378-5.225 2.529-5.225 2.529M122.36 385.387c-.165-17.29-3.715-42.479-6.757-52.977-1.866-6.468-16.44-49.575-16.857-51.198-.279-1.091-.774-12.464-1.179-22.555-6.939 18.821-10.396 40.632-10.396 64.044v.015c0 37.855 10.029 71.955 29.213 95.965 5.614-14.07 5.657-24.965 5.968-33.048 0-.078.008-.153.008-.246M174.317 388.921c16.626-13.9 26.661-18.663 44.361-27.549-26.164 5.271-56.04 22.52-72.181 42.644-10.905 13.569-18.132 25.517-18.468 26.055 2.426 1.604 4.966 2.961 7.689 4.157 11.45-21.127 28.123-36.564 38.599-45.307M135.517 207.69c-1.632 1.03-2.213 1.862-2.738 2.384 7.568 18.988 17.914 44.148 20.484 51.209.329.906.663 1.894.982 2.898l17.13 8.516.277-.18s-.174-2.366-.194-3.077c-.029-.618.479-3 .479-3l-33.69-60.245c-1.049.465-1.431.675-2.73 1.495" fill="#FFFFFE"/><path d="M178.984 395.653c-17.816 16.657-29.832 37.075-33.382 42.107 1.824.546 3.72 1.082 5.726 1.612 38.867-67.407 100.671-82.574 135.485-83.964.45-1.897 0 .438.415-2.821-23.903-.456-69.517 7.718-108.244 43.066M256.296 262.807c.218.211.325.31.602.75l21.236-8.854c-2.618-6.238-5.775-12.696-9.223-18.139l-13.645 25.402c.386.231.803.617 1.03.841M266.428 295.632c-.621 2.041-2.208 4.636-2.208 4.636l1.351 15.725 17.318 27.89 5.178.844c.756-7.325 1.191-14.29 1.191-22.026 0-16.898-.545-31.567-4.146-46.271l-17.667 14.4s-.473 2.979-1.017 4.802M309.861 249.727l-43.433 32.55c-.709-5.274-2.51-9.962-5.308-13.487l48.501-19.466s.325-.132.409.02c.077.15-.169.383-.169.383M146.49 208.907s-.126-.17.061-.298c.184-.124.312.058.312.058l36.913 36.831c-3.509 1.925-7.231 6.611-8.765 10.849l-28.521-47.44M167.974 277.827s-.965 2.054-1.059 4.362c-.092 2.5.763 4.871.763 4.871l-11.154-7.486c.133-2.545-.094-3.179-.26-5.362-.012-.225-.33-2.906-.389-3.231l12.099 6.846M150.442 359.858c-1.432 12.899-4.667 24.108-9.521 32.113-3.116 5.162-11.875 15.596-14.941 19.545 3.321-6.446 5.891-22.014 5.679-34.127-.141-7.859-2.595-25.206-.464-36.697 2.311-12.329 5.892-19.273 14.375-26.862 4.324-3.879 13.162-8.833 25.797-5.49l10.206 18.721c-5.463-1.013-12.69-.098-17.51 3.505-9.064 6.789-12.103 15.919-13.621 29.292" fill="#FFFFFE"/><path d="M151.435 385.302c2.491-5.445 5.762-20.982 6.677-26.173 1.174-6.677 2.276-16.408 10.428-22.954 4.004-3.234 10.579-3.651 13.199-2.903l11.556 22.941c1.036 2.44 4.43 3.281 6.701 3.136-10.833 3.443-38.123 16.079-48.561 25.953M249.746 312.082c-1.842 2.828-1.188 5.536-.153 7.436 1.163 2.137 7.279 13.154 7.279 13.154 1.944 4.987 3.433 7.506 5.269 10.721 3.312 0 6.904-.082 10.694 0-4.04-8.826-13.263-25.862-13.263-25.862l-1.301-13.456c-2.698 1.575-6.652 5.186-8.525 8.007M208.669 171.185l-5.992 67.593c3.997-.7 12.896.499 15.081 1.466l-8.708-69.059s-.029-.233-.2-.233c-.166 0-.181.233-.181.233M112.534 185.45c-.278-.793-.851-2.945-1.796-3.35-1.038-.453-3.256-1.644-4.575-2.156-1.145-.442-3.183-2.548-4.141-2.548-4.557 0-9.798-1.481-11.595-2.695-1.93 3.63-.595 5.686 1.127 7.374 1.383 1.339 5.081 2.44 8.671 2.714l.965 20.03c.969 1.491 3.998 2.422 6.625 2.555v.672l-3.59 2.559c.139 2.285 3.312 67.633 4.006 68.836.684 1.213 16.962 49.639 17.386 52.598 1.156-5.58 6.293-17.716 12.08-23.237 5.937-5.639 13.171-8.111 17.58-7.975-.967-1.081-5.926-12.379-6.065-13.454-.136-1.076-2.064-15.186-2.616-16.128-.557-.947-33.79-84.979-34.062-85.795M278.843 203.043l-42.667 44.62c2.848 1.686 10.095 7.065 13.05 9.808l29.932-54.216s.111-.205.01-.291c-.107-.082-.325.079-.325.079" fill="#FFFFFE"/><path d="M256.65 276.945c-.516-2.61-7.244-10.428-18.697-18.885-8.947-6.626-22.047-13.143-32.836-13.083-18.224.096-25.74 12.285-27.107 18.652-.843 3.838-.632 8.006.199 10.286-2.909 2.427-4.002 4.38-4.562 7.129-.389 1.999 0 4.838 1.871 6.586-.218-2.619 1.613-5.669 3.103-7.664 1.665-2.214 4.422-3.085 6.922-4.559l.404 4.851c-2.372 1.325-5.271 4.145-5.462 5.624l.191 8.012 6.262-3.648 1.202 2.437-2.277 14.115 3.512-.61 6.435 2.573-6.217 5.085v2.019s.946-1.244 3.127-1.145c2.181.087 7.836 2.557 7.836 2.557l-.209 1.218H189.375c-.413 1.412.886 2.495 1.703 3.094 1.436-.399 2.955-1.118 3.774-1.118.823 0 2.725.476 4.397.678l-2.001 2.588s-1.023.767-2.899.401c-1.03-.207-2.067 1.207-2.067 2.362 0 1.223.815 4.247.815 4.247 1.007 4.537 5.77 3.625 6.379 3.57 3.022-.256 12.887-3.72 12.887-3.72l-9.479 12.946 4.133 13.833c6.256-2.509 24.923-8.962 45.202-12.208-2.212-3.594-2.584-5.004-5.297-10.344l-10.352-23.191 1.442-3.431c2.284.808 5.795-.807 8.077-2.621 2.284-1.813 4.974-5.039 6.005-7.063-1.445-.801-2.688-.608-3.934.204-1.238.815-2.206 2.368-3.922 1.611-1.872-.789-.965-2.786-.754-4.605.207-1.804-2.16-1.834-3.799-.436-1.673 1.413-5.184.807-7.458-1.398-2.277-2.229-13.24-11.102-17.17-13.313-5.67-3.171-13.258-3.977-18.841-2.999-3.264.564-5.598 1.981-6.841 1.377l-4.088-6.175.66-.402c1.451.613 2.82 1.748 4.671 1.138 1.87-.609 7.859-1.938 13.249-2.019 8.286-.138 18.35 2.816 22.771 4.643.207 5.241 11.037 11.898 15.926 12.498 4.127.505 6.638-.6 9.116-2.016l-10.559-9.044 5.58-6.894s8.908 8.271 10.156 9.893c.397-.95 0-2.523-.207-3.636zm-63.54 10.485s4.542-2.537 8.829-3.43c6.312-1.32 13.308 2.377 18.278 6.17l-.95 1.463-7.114 1.635c-1.387-1.198-4.005-1.734-6.839-1.603-2.522.117-4.542 1.018-4.542 1.018l1.392 2.209-3.263.808c-1.449-1.806-3.731-4.035-5.791-4.634v-3.636zm-10.774-15.929c-1.851-6.089 3.114-12.109 5.385-14.319l3.524 7.868c-2.681 1.41-6.831 4.482-8.909 6.451zm32.721-6.859c-3.331-2.225-14.285-1.813-18.841-.809l-3.321-9.284c2.482-1.804 7.247-3.016 11.591-3.016 4.352 0 9.11 1.011 12.423 2.619l-1.852 10.49zm21.513 9.517c-4.556-2.853-13.464-7.093-16.131-7.904l3.924-9.881c3.314 1.623 15.52 8.869 17.385 10.692l-5.178 7.093zM91.393 169.402c9.384.022 13.828 3.827 16.023 5.841.283-3.091-.222-5.819-3.173-8.158-2.444-1.937-6.76-3.646-13.385-3.646-4.416 0-8.85 1.264-11.612 3.543-2.524 2.093-2.952 4.456-2.398 7.962.831-2.554 6.812-5.572 14.545-5.542M74.584 121.435c-.2 3.488.74 7.132 2.4 9.28.935 1.228 3.177 3.577 4.829 3.487 2.356-.133 4.55-4.515 10.071-4.307 3.584.135 5.928 5.078 8.969 5.248 2.35.139 3.588-2.147 5.959-2.396 2.033-.211 2.725.786 3.983 1.988.828-1.868 2.027-3.154 5.102-5.363 3.722-2.7 16.418-5.253 21.807-9.96 2.695-2.355 3.303-6.705 2.444-9.632-2.043 2.79-7.688 5.74-13.214 6.002-2.759.137-9.381-1.054-11.727-2.261 1.174-1.968 1.559-4.204.589-6.365-1.799 1.352-9.552 2.086-12.593 2.086-3.039 0-8.958-1.204-13.549-.958-10.073.533-14.74 7.498-15.07 13.151M78.232 192.687c-1.519.27-4.692 2.694-6.238 5.209.442 1.631 2.237 5.421 3.996 6.458.409-1.751 2.375-4.671 3.35-5.336 1.365-.962 2.749-1.617 3.85-2.154 1.113-.535 1.517-1.078 1.517-2.302 0-1.2-.153-1.765-.718-2.976 1.104-.129 3.144.035 3.842-.917.684-.934 1.022-2.154 1.022-3.357 0-1.21-.56-1.48-1.788-1.611-1.258-.136-4.869-.228-6.653-.089 0 0 2.778-1.385 3.611-1.809.819-.389 1.102-1.2 1.249-1.866.13-.675.1-2.194-.287-4.027-4.139.126-11.445 3.752-13.379 5.371l1.526 3.634-2.764-.11c-.424 1.847-.145 4.677.686 6.292 2.486-.41 5.38-.541 7.178-.41M102.363 223.884c-.13-1.474-1.205-2.281-2.343-3.216.593-3.504.563-6.863.428-9.683-.143-2.834-1.103-5.382-2.776-7.668-1.775-2.47-5.102-5.771-7.347-7.264 0 1.339-.618 2.392-1.998 2.799-1.379.394-6.454 3.922-6.454 3.922l1.05 17.611c-.035.013-.067.024-.091.038-.045.014-.097.04-.16.072-1.918.943-3.94 2.808-3.597 5.635.324 2.67 2.607 4.732 6.862 5.654.578.127 1.205.239 1.835.332l.136-.896c-.405-.037-1.1-.214-1.541-.318-4.272-1.051-5-4.09-2.253-5.244 2.28-.959 4.724-1.396 7.486-1.507 3.601-.138 8.149 2.028 9.798 2.963.554-1.209 1.109-1.74.965-3.23" fill="#FFFFFE"/><path d="M124.716 162.837c-.102-2.142-3.436-8.194-3.571-10.217-.137-2.014.413-3.357.822-5.245-1.383.268-6.207 2.16-8.287.545-2.209-1.737-.681-6.055-3.583-7.124-2.903-1.087-7.442 2.278-10.348 1.879-2.897-.411-5.378-4.296-8.407-4.296-3.049 0-4.561 3.621-8.293 4.431-2.869.624-7.639-1.491-9.523-1.352-2.063.148-3.316 1.724-4.24 3.641-.905 1.943-1.641 2.733-4.068 3.33-1.936.475-4.718-1.182-6.096-.893.655.639 1.317 2.446 1.512 4.317-.134 5.395-3.942 7.351-3.942 15.556 0 8.888 9.689 13.112 9.689 13.112l1.148-.784c-2.873-1.284-6.847-5.109-6.966-10.884-.012-.454.033-.875.071-1.294.516-3.035 2.035-5.73 4.458-7.984l.089-.092c5.375-4.928 14.913-7.758 26.792-7.541 21.799.409 31.653 10.222 31.933 18.293 1.09-2.425.955-4.707.81-7.398" fill="#FFFFFE"/></g></svg>