<svg xmlns="http://www.w3.org/2000/svg" width="282.215" height="282.21" viewBox="0 0 264.5762 264.57227"><path d="M0 0v264.572h264.576V0H0zm204.518 34.389a16.354 16.354 0 0 1 7.986 15.086l-7.986-15.086zm-7.6 1.298a16.257 16.257 0 0 1 6.443 2.17l7.989 15.08a16.264 16.264 0 0 1-1.829 6.563l-4.462-8.432a10.013 10.013 0 0 0-3.655-6.904l-4.486-8.477zm-3.012 4.512c.632 0 1.246.042 1.85.11l4.492 8.474a9.994 9.994 0 0 0-6.342-2.262c-.045 0-.097.008-.154.008l-3.168-5.982a16.396 16.396 0 0 1 3.322-.348zm-4.472 4.961l3.168 5.988c-1.686.03-3.272.461-4.649 1.213l-2.96-5.576a16.363 16.363 0 0 1 4.44-1.625zm-5.594 6.244l2.951 5.576a10.268 10.268 0 0 0-3.578 3.249l-3.178-5.989a16.575 16.575 0 0 1 3.805-2.836zm20.064 4.285l4.465 8.43a16.218 16.218 0 0 1-3.1 4.152l-3.156-5.947a9.938 9.938 0 0 0 1.828-5.76c0-.3-.009-.59-.037-.875zm-25.02 3.172l3.179 5.989a9.938 9.938 0 0 0-1.71 5.57c0 .484.047.962.11 1.424l-4.643-8.762a16.489 16.489 0 0 1 3.065-4.22zm-15.109.455h5.084v6.239h-1.783l-3.3-6.239zm-58.25 3.983c9.028 0 16.319 7.332 16.319 16.361 0 9.023-7.29 16.315-16.319 16.315S89.16 88.683 89.16 79.66c0-9.03 7.336-16.361 16.365-16.361zm21.866.639h7.925c6.415 0 11.645 5.227 11.645 11.642 0 4.307-2.428 8.294-6.232 10.266l8.294 9.484h-8.294l-7.104-8.111v8.111h-6.234V63.937zm24.742 0h11.642l3.301 6.236h-3.494V95.33h-6.225V70.174h-5.224v-6.237zm-86.26.003h7.932c6.417 0 11.644 5.22 11.644 11.64 0 6.414-5.227 11.638-11.644 11.638h-1.696v8.119h-6.236V63.942zm135.09 3.01l3.146 5.942a16.023 16.023 0 0 1-3.828 2.767l-2.941-5.549a10.075 10.075 0 0 0 3.623-3.16zm-27.445.752l4.638 8.76a9.996 9.996 0 0 0 3.143 5.953l4.66 8.791a16.226 16.226 0 0 1-6.55-2.365l-7.624-14.395c.08-2.421.706-4.698 1.733-6.744zm-67.993 1.92c-5.544 0-10.088 4.49-10.088 10.037 0 5.548 4.544 10.043 10.088 10.043 5.548 0 10.037-4.495 10.037-10.043 0-5.548-4.489-10.037-10.037-10.037zm-33.416.547v10.822h1.696a5.421 5.421 0 0 0 5.41-5.412c0-2.98-2.428-5.41-5.41-5.41h-1.696zm61.516.004v10.813h1.691c2.986 0 5.413-2.433 5.413-5.407a5.415 5.415 0 0 0-5.413-5.406h-1.691zm62.564 4.559l2.942 5.554a16.259 16.259 0 0 1-4.486 1.543l-3.172-5.992h.125c1.65 0 3.213-.399 4.591-1.105zm-12.578 3.064a10.096 10.096 0 0 0 6.711 2.66l3.166 5.994c-.99.188-2.005.29-3.047.29-.74 0-1.462-.058-2.175-.155l-4.655-8.789zm-11.826 1.272l7.623 14.394c-4.592-2.888-7.64-7.981-7.64-13.803 0-.2.007-.398.017-.591zm26.365 9.369c3.066.12 5.253 1.852 6.094 4.922.552 1.834 1.044 4.626 1.059 8.607l-7.153-13.53zm-6.46 4.61h4.974c.107 0 .221.004.322.01l7.166 13.53v.262c0 3.982-.239 6.46-.787 8.271l-5.123-9.685c-.057-1.736-.162-3.37-.207-3.776-.124-1.686-.935-2.933-2.244-2.933h-1.094l-3.008-5.68zm-5.641 4.618h3.328l3.008 5.68h-.594v8.892l-5.742-10.851v-3.72zm-113.79 4.307c5.438 0 7.616 3.937 7.747 8.928.063 2.124.062 5.433.062 5.433h-5.56v-4.437c0-2.552-.558-4.055-2.248-4.055-1.68 0-2.371 1.252-2.371 4.617 0 3.812 1.5 7.122 3.31 10.057.558.87 2.622 4.18 3.06 4.931 2.991 4.934 3.932 8.924 3.932 15.041 0 7.247-3.06 10.188-8.054 10.188-4.686 0-7.805-2.495-7.805-7.064v-6.733h5.496v5.047c0 2.381.93 3.133 2.244 3.133 1.442 0 2.315-.877 2.315-4.625 0-3.874-.314-7.123-3.248-11.996-.69-1.116-2.439-3.994-2.936-4.866-2.933-4.8-4.058-8.18-4.058-13.675 0-6.427 3.307-9.924 8.115-9.924zm13.223.314h5.813v41.332c0 2.619.746 3.371 2.31 3.371 1.558 0 2.122-.877 2.122-3.316v-41.387h5.87v42.207c0 5.186-2.812 8.112-7.87 8.112-4.994 0-8.245-2.552-8.245-8.112v-42.207zm21.954 0h7.619l4.246 35.647 4.556-35.647h7.372v49.946h-5.372l.067-34.274-4.125 34.274h-4.992l-4.063-34.213.067 34.213h-5.375v-49.946zm29.709 0h7.617l4.252 35.647 4.556-35.647h7.364v49.946h-5.372l.069-34.274-4.123 34.274h-4.992l-4.06-34.213.062 34.213h-5.373v-49.946zm29.709 0h13.921v5.928h-8.054v16.049h7.183v5.615h-7.183v16.553h8.117v5.8h-13.984v-49.945zm19.195 3.719l5.742 10.852v7.343c.07 0 1.38 0 1.87-.062.756-.143 1.15-.565 1.411-1.084l3.717 7.014 3.93 22.164h-5.81l-3.737-22.534h-1.45v22.534h-5.673v-46.227zm9.885 4.05l5.125 9.68c-.011.034-.02.062-.026.096-.502 1.624-1.749 3.12-2.62 3.496l.376 2.114-3.717-7.006c.086-.17.148-.353.219-.541.37-1.059.682-3.932.682-5.742 0-.667-.018-1.39-.04-2.096zM75.785 157.736c5.495 0 8.054 2.87 8.305 8.863.123 2.13.123 11.12.123 16.053 0 5.365 0 13.545-.123 16.736-.184 5.868-2.622 8.988-8.305 8.988-5.553 0-8.049-2.937-8.242-8.748 0-1.493-.06-12.17-.06-16.795 0-4.614.06-14.913.06-15.916.128-5.49 2.375-9.181 8.242-9.181zm53.613 0c4.871 0 7.378 2.938 7.561 9.306v7.863h-5.686v-8.796c-.06-1.88-.998-2.631-2.12-2.631-1.749 0-2.561 1.069-2.561 3.062-.063 2.188-.063 12.421-.063 15.987 0 4.613.063 15.048.123 16.359.128 3.053 1.004 3.932 2.373 3.932 1.191 0 2.309-.695 2.309-4.182v-7.498h5.682v8.557c0 5.309-2.932 8.681-8.114 8.681-5.372 0-7.744-2.882-8.177-7.44-.316-4.18-.317-13.67-.317-18.284 0-4.627.123-14.674.123-16.36.316-6.118 3.317-8.556 8.867-8.556zm21.247 0c5.497 0 8.055 2.87 8.308 8.863.13 2.13.129 11.12.129 16.053 0 5.365 0 13.545-.129 16.736-.188 5.868-2.615 8.988-8.308 8.988-5.552 0-8.05-2.937-8.237-8.748 0-1.493-.062-12.17-.062-16.795 0-4.614.062-14.913.062-15.916.119-5.49 2.37-9.181 8.237-9.181zm-60.707.25h14.175v5.935H95.81v15.984h7.494v5.743h-7.494v22.285h-5.871v-49.947zm74.865 0h7.492c4.13 0 6.373 1.56 7.559 4.808.874 2.437.996 13.42.996 19.037 0 7.314-.12 19.606-1.06 21.418-1.378 2.69-2.376 4.684-6.556 4.684h-8.431v-49.947zm21.59 0h13.927v5.935h-8.06v16.041h7.187v5.617h-7.187v16.553h8.123v5.8h-13.99v-49.946zm-15.782 5.24v39.898h2.303c1.001 0 1.947-.75 2.004-2.676.063-2.062.125-16.93.125-18.673 0-1.744-.125-13.17-.125-14.924-.057-2.428-1.189-3.625-2.56-3.625h-1.747zm-94.703.193c-1.996 0-2.182 1.436-2.304 3.875-.128 1.993-.067 12.235-.067 15.79 0 3.749-.061 14.116.067 16.304.122 2.05.496 3.361 2.304 3.361 1.692 0 2.187-1.493 2.315-3.361.062-2.061.123-12.373.123-16.486 0-3.442 0-13.74-.06-15.733-.064-2.69-.629-3.75-2.378-3.75zm74.87 0c-1.995 0-2.187 1.436-2.311 3.875-.128 1.993-.063 12.235-.063 15.79 0 3.749-.065 14.116.063 16.304.124 2.05.498 3.361 2.31 3.361 1.686 0 2.188-1.493 2.307-3.361.063-2.061.121-12.373.121-16.486 0-3.442 0-13.74-.059-15.733-.062-2.69-.626-3.75-2.369-3.75z" fill="#181210"/></svg>