<svg width="618" height="356" viewBox="0 0 618 356" xmlns="http://www.w3.org/2000/svg"><title>sponsor-lom</title><g fill-rule="nonzero" fill="#E74C3C"><path d="M0 354.165V275.64h9.13v70.254h34.644v8.271H0zm64.668 0h-8.916v-58.867h8.916v58.867zM55 279.345c0-2.04.501-3.535 1.504-4.484 1.003-.95 2.256-1.423 3.76-1.423 1.432 0 2.667.483 3.706 1.45 1.038.966 1.557 2.452 1.557 4.458 0 2.005-.519 3.5-1.557 4.485-1.039.984-2.274 1.477-3.706 1.477-1.504 0-2.757-.493-3.76-1.477-1.003-.985-1.504-2.48-1.504-4.485zm55.107 22.882H95.122v51.938h-8.916v-51.938H75.68v-4.029l10.527-3.222v-3.277c0-14.466 6.32-21.699 18.96-21.699 3.115 0 6.768.627 10.957 1.88l-2.31 7.143c-3.437-1.11-6.373-1.665-8.808-1.665-3.366 0-5.855 1.12-7.466 3.357-1.611 2.238-2.417 5.828-2.417 10.77v3.813h14.985v6.929zm35.61 53.012c-8.7 0-15.566-2.65-20.597-7.949-5.031-5.3-7.547-12.658-7.547-22.075 0-9.49 2.337-17.026 7.01-22.612 4.672-5.586 10.948-8.38 18.825-8.38 7.377 0 13.213 2.427 17.51 7.278 4.297 4.852 6.445 11.253 6.445 19.202v5.64h-40.551c.179 6.91 1.924 12.156 5.236 15.737 3.313 3.58 7.976 5.371 13.992 5.371 6.338 0 12.604-1.325 18.799-3.974v7.949c-3.151 1.36-6.132 2.336-8.943 2.927-2.81.59-6.204.886-10.178.886zm-2.416-53.55c-4.727 0-8.495 1.54-11.306 4.62-2.811 3.079-4.467 7.34-4.969 12.783h30.777c0-5.622-1.254-9.928-3.76-12.918-2.507-2.99-6.087-4.485-10.742-4.485zm118.647 22.989c0 9.596-2.417 17.089-7.25 22.478-4.835 5.389-11.513 8.083-20.035 8.083-5.264 0-9.936-1.235-14.018-3.706-4.083-2.47-7.234-6.015-9.454-10.635-2.22-4.619-3.33-10.026-3.33-16.22 0-9.597 2.4-17.071 7.198-22.425 4.798-5.353 11.458-8.03 19.98-8.03 8.236 0 14.78 2.74 19.631 8.218 4.852 5.479 7.278 12.891 7.278 22.237zm-44.848 0c0 7.52 1.504 13.248 4.511 17.187 3.008 3.94 7.43 5.908 13.267 5.908s10.268-1.96 13.293-5.88c3.026-3.922 4.539-9.66 4.539-17.215 0-7.484-1.513-13.168-4.539-17.053-3.025-3.886-7.492-5.828-13.4-5.828-5.837 0-10.241 1.916-13.213 5.747-2.972 3.831-4.458 9.543-4.458 17.134zm100.761 29.487v-38.081c0-4.798-1.092-8.379-3.276-10.742-2.184-2.363-5.604-3.545-10.259-3.545-6.159 0-10.67 1.665-13.535 4.995s-4.297 8.826-4.297 16.49v30.883h-8.916v-58.867h7.251l1.45 8.056h.43c1.826-2.9 4.386-5.147 7.68-6.74 3.295-1.594 6.965-2.39 11.011-2.39 7.09 0 12.426 1.71 16.006 5.129 3.581 3.42 5.371 8.89 5.371 16.409v38.403h-8.916zm91.9 0l-26.64-69.61h-.43c.5 5.515.751 12.068.751 19.659v49.951h-8.432V275.64h13.75l24.868 64.775h.43l25.083-64.775h13.642v78.525h-9.13v-50.596c0-5.8.25-12.102.751-18.906h-.43l-26.855 69.502h-7.358zm99.419 0l-1.773-8.379h-.43c-2.936 3.688-5.863 6.186-8.781 7.493-2.919 1.307-6.562 1.96-10.93 1.96-5.837 0-10.411-1.504-13.724-4.511-3.312-3.008-4.968-7.287-4.968-12.837 0-11.888 9.507-18.119 28.52-18.692l9.991-.322v-3.652c0-4.62-.994-8.03-2.981-10.232-1.987-2.202-5.165-3.304-9.534-3.304-4.905 0-10.455 1.504-16.65 4.512l-2.74-6.821c2.901-1.576 6.079-2.811 9.534-3.706a41.29 41.29 0 0 1 10.393-1.343c7.019 0 12.22 1.558 15.603 4.673 3.384 3.115 5.076 8.11 5.076 14.985v40.176h-6.606zm-20.142-6.284c5.55 0 9.91-1.522 13.079-4.566 3.169-3.043 4.753-7.304 4.753-12.783v-5.317l-8.916.376c-7.09.25-12.201 1.352-15.334 3.303-3.134 1.952-4.7 4.986-4.7 9.104 0 3.223.976 5.675 2.927 7.358 1.952 1.683 4.682 2.525 8.191 2.525zm71.973-53.657c2.614 0 4.959.214 7.036.644l-1.235 8.272c-2.435-.537-4.584-.806-6.446-.806-4.762 0-8.835 1.934-12.219 5.8-3.384 3.868-5.076 8.684-5.076 14.449v31.582h-8.916v-58.867h7.359l1.02 10.903h.43c2.184-3.831 4.816-6.785 7.895-8.862 3.08-2.077 6.464-3.115 10.152-3.115zm56.02 43.881c0 5.479-2.04 9.704-6.123 12.676-4.082 2.972-9.811 4.458-17.187 4.458-7.806 0-13.894-1.235-18.262-3.706v-8.271c2.829 1.432 5.863 2.56 9.104 3.384 3.24.823 6.365 1.235 9.373 1.235 4.655 0 8.235-.743 10.742-2.23 2.506-1.485 3.76-3.75 3.76-6.794 0-2.291-.994-4.252-2.981-5.88-1.988-1.63-5.864-3.555-11.629-5.775-5.478-2.04-9.372-3.822-11.682-5.344-2.31-1.522-4.028-3.25-5.156-5.183-1.128-1.934-1.692-4.243-1.692-6.929 0-4.798 1.951-8.585 5.854-11.36 3.903-2.775 9.256-4.162 16.06-4.162 6.338 0 12.532 1.289 18.584 3.867l-3.169 7.25c-5.908-2.434-11.261-3.652-16.06-3.652-4.225 0-7.412.663-9.56 1.988-2.149 1.325-3.223 3.15-3.223 5.478 0 1.576.403 2.919 1.209 4.029.805 1.11 2.103 2.166 3.894 3.169 1.79 1.002 5.228 2.452 10.312 4.35 6.983 2.542 11.7 5.103 14.153 7.68 2.453 2.579 3.68 5.82 3.68 9.722zM398.57 95.175c-2.783 3.777-3.44 6.9-3.57 10.651v44.182a5.996 5.996 0 0 1-5.993 5.992h-31.005c-1.321 0-3.589-1.586-4.041-2.825l-34.814-95.28-15.322-41.934C300.489 6.83 290.719 0 281.002 0h-53.009C213.637 0 202 11.644 202 25.992V63c.034 3.002-1 7-4 10-5 5-11 5-14 5v20c3 0 9 0 14 5 3 3 4.034 6.998 4 10v37.008C202 164.356 213.637 176 227.993 176H236l7-20h-15.007a5.996 5.996 0 0 1-5.993-5.992v-44.182c-.13-3.751-.787-6.874-3.57-10.65C214.275 89.532 204 88 204 88s10.274-1.533 14.43-7.175c2.783-3.777 3.44-6.9 3.57-10.651V25.992A5.996 5.996 0 0 1 227.993 20h53.009c1.32 0 3.584 1.583 4.037 2.825l12.814 35.07L255 176h21l32.5-88.967 26.675 73.006C338.51 169.166 348.281 176 358.002 176h31.005C403.363 176 415 164.356 415 150.008V113c-.034-3.002 1-7 4-10 5-5 11-5 14-5V78c-3 0-9 0-14-5-3-3-4.034-6.998-4-10V25.992C415 11.644 403.363 0 389.007 0H321l7 20h61.007A5.996 5.996 0 0 1 395 25.992v44.182c.13 3.751.787 6.874 3.57 10.65 4.152 5.637 14.41 7.173 14.43 7.176-.02.003-10.278 1.54-14.43 7.175z"/></g></svg>