<svg width="72" height="38" viewBox="0 0 72 38" xmlns="http://www.w3.org/2000/svg"><title>sponsor-cisco</title><g fill="#00B3DA" fill-rule="evenodd"><path d="M20.363 37.778h3.157V25.267h-3.157zM48.977 28.852c-.129-.067-1.147-.668-2.657-.668-2.041 0-3.457 1.42-3.457 3.337 0 1.859 1.356 3.339 3.457 3.339 1.485 0 2.518-.589 2.657-.664v3.359c-.397.111-1.475.445-2.877.445-3.551 0-6.668-2.448-6.668-6.479 0-3.737 2.82-6.476 6.668-6.476 1.48 0 2.578.36 2.877.448v3.359M16.023 28.852c-.127-.067-1.142-.668-2.652-.668-2.045 0-3.46 1.42-3.46 3.337 0 1.859 1.357 3.339 3.46 3.339 1.484 0 2.517-.589 2.652-.664v3.359c-.392.111-1.468.445-2.878.445-3.549 0-6.663-2.448-6.663-6.479 0-3.737 2.821-6.476 6.663-6.476 1.485 0 2.582.36 2.878.448v3.359M58.908 28.23c-1.873 0-3.263 1.474-3.263 3.291 0 1.82 1.39 3.292 3.263 3.292 1.871 0 3.266-1.472 3.266-3.292 0-1.817-1.395-3.291-3.266-3.291zm6.612 3.291C65.52 35.1 62.756 38 58.908 38c-3.847 0-6.607-2.9-6.607-6.479 0-3.574 2.76-6.476 6.607-6.476 3.848 0 6.612 2.902 6.612 6.476zM35.493 28.11c-.047-.014-1.376-.381-2.468-.381-1.265 0-1.953.423-1.953 1.025 0 .762.928 1.027 1.448 1.191l.871.278c2.048.651 2.982 2.054 2.982 3.579 0 3.142-2.764 4.198-5.18 4.198-1.679 0-3.252-.309-3.407-.342v-2.879c.278.071 1.602.465 2.982.465 1.57 0 2.293-.459 2.293-1.168 0-.634-.625-1-1.409-1.246-.191-.063-.478-.153-.673-.218-1.759-.555-3.225-1.589-3.225-3.66 0-2.34 1.752-3.911 4.662-3.911 1.537 0 2.984.373 3.077.398v2.671M3.135 11.821c0-.862-.704-1.561-1.568-1.561-.862 0-1.567.699-1.567 1.561v3.284a1.568 1.568 0 0 0 3.135 0v-3.284M11.744 7.511a1.567 1.567 0 0 0-3.135 0v7.594a1.568 1.568 0 0 0 3.135 0V7.511M20.354 1.613c0-.862-.705-1.561-1.568-1.561-.863 0-1.567.699-1.567 1.561v16.614a1.567 1.567 0 0 0 3.135 0V1.613M28.963 7.511a1.567 1.567 0 0 0-3.135 0v7.594a1.567 1.567 0 1 0 3.135 0V7.511M37.562 11.821a1.56 1.56 0 0 0-1.557-1.561c-.863 0-1.568.699-1.568 1.561v3.284a1.562 1.562 0 1 0 3.125 0v-3.284M46.176 7.511a1.563 1.563 0 1 0-3.125 0v7.594a1.563 1.563 0 0 0 3.125 0V7.511M54.791 1.613a1.562 1.562 0 1 0-3.125 0v16.614a1.563 1.563 0 1 0 3.125 0V1.613M63.404 7.511c0-.863-.699-1.563-1.582-1.563-.863 0-1.562.7-1.562 1.563v7.594c0 .868.699 1.567 1.562 1.567.883 0 1.582-.699 1.582-1.567V7.511M72 11.821a1.563 1.563 0 0 0-3.127 0v3.284a1.565 1.565 0 1 0 3.127 0v-3.284"/></g></svg>