<?xml version="1.0" encoding="UTF-8"?>
<svg width="509px" height="68px" viewBox="0 0 509 68" version="1.1" xmlns="http://www.w3.org/2000/svg" xmlns:xlink="http://www.w3.org/1999/xlink">
    <!-- Generator: Sketch 64 (93537) - https://sketch.com -->
    <title>1Password.com wordmark / dark grey / monochrome icon / 1P-com-wordmark</title>
    <desc>Created with Sketch.</desc>
    <g id="1Password.com-wordmark-/-dark-grey-/-monochrome-icon-/-1P-com-wordmark" stroke="none" stroke-width="1" fill="none" fill-rule="evenodd">
        <g id="zzz---document-symbol-/-.com" transform="translate(368.000000, 18.000000)" fill="#454F5B">
            <path d="M8.54545455,35.7333333 C8.54545455,38.5777778 6.9984326,40 4.27272727,40 C1.54702194,40 0,38.5777778 0,35.7333333 C0,32.8888889 1.54702194,31.4666667 4.27272727,31.4666667 C6.9984326,31.4666667 8.54545455,32.8888889 8.54545455,35.7333333 Z M37.0493936,32.8705441 L38.9886364,37.0731707 C36.3781172,38.7992495 31.4554239,40 26.7564895,40 C14.3005838,40 9.07954545,31.8949343 9.07954545,20.3377111 C9.07954545,6.00375235 17.1348617,0 28.2482147,0 C33.6184255,0 37.4223249,1.42589118 38.8394638,2.02626642 L38.8394638,11.2570356 L35.0355645,11.0318949 L34.1405294,6.07879925 C34.0659431,5.62851782 33.9913568,5.32833021 33.3200805,5.10318949 C32.2758728,4.72795497 29.9636987,4.35272045 27.6515246,4.35272045 C20.1928984,4.35272045 14.3005838,8.630394 14.3005838,20.1125704 C14.3005838,30.9193246 19.4470358,35.4971857 27.4277658,35.4971857 C31.1570789,35.4971857 34.5880469,34.4465291 37.0493936,32.8705441 Z M58.8279118,40 C46.2694359,40 41.125,31.5947467 41.125,19.8123827 C41.125,8.10506567 47.0259706,0 59.5844465,0 C72.0672689,0 76.9090909,8.10506567 76.9090909,19.2870544 C76.9090909,31.8198874 71.3107342,40 58.8279118,40 Z M59.0545115,36.2666667 C67.2970488,36.2666667 71.5681818,30.7844073 71.5681818,20.1953858 C71.5681818,9.90676213 67.6717096,4.8 59.4291723,4.8 C51.1117028,4.8 46.4659091,9.98186158 46.4659091,20.2704853 C46.4659091,30.559109 50.7370421,36.2666667 59.0545115,36.2666667 Z M141,39.4666667 L125.148359,39.4666667 L125.148359,36.1039028 L129.054924,35.6555342 C130.106692,35.5060781 130.256944,35.3566219 130.256944,34.2357006 L130.256944,16.3009597 C130.256944,8.90287908 128.904672,5.09174664 123.044823,5.09174664 C118.537247,5.09174664 114.330177,7.48304543 111.550505,9.50070377 C111.775884,10.9205374 111.85101,12.5645553 111.85101,14.3580294 L111.85101,34.1609725 C111.85101,35.3566219 111.926136,35.5060781 113.05303,35.6555342 L116.959596,36.1786308 L116.959596,39.4666667 L101.934343,39.4666667 L101.934343,36.1039028 L105.61553,35.6555342 C106.667298,35.5060781 106.817551,35.3566219 106.817551,34.2357006 L106.817551,15.9273193 C106.817551,8.52923864 105.916035,5.09174664 100.356692,5.09174664 C94.7222222,5.09174664 89.9892677,8.67869482 87.8106061,10.6963532 L87.8106061,34.1609725 C87.8106061,35.3566219 87.8857323,35.5060781 89.0126263,35.6555342 L93.520202,36.1786308 L93.520202,39.4666667 L77.6685606,39.4666667 L77.6685606,36.1039028 L81.5751263,35.6555342 C82.6268939,35.5060781 82.7771465,35.2818938 82.7771465,34.1609725 L82.7771465,7.40831734 C82.7771465,6.58630838 82.5517677,6.06321177 81.8005051,5.83902751 L77.4431818,4.41919386 L78.0441919,1.2806142 L86.5334596,1.2806142 L87.1344697,5.9137556 L87.3598485,5.98848369 C90.4400253,3.5971849 95.1729798,0.533333333 101.483586,0.533333333 C106.366793,0.533333333 108.996212,2.25207933 110.423611,5.39065899 C114.029672,2.84990403 118.537247,0.533333333 124.171717,0.533333333 C132.96149,0.533333333 135.290404,6.06321177 135.290404,14.7316699 L135.290404,34.1609725 C135.290404,35.3566219 135.36553,35.5060781 136.492424,35.6555342 L141,36.1786308 L141,39.4666667 Z" id=".com"></path>
        </g>
        <g id="zzz---document-symbol-/-1Password" fill="#454F5B">
            <path d="M87.9811065,17.1382114 C99.4530001,17.1382114 104.057256,20.2703231 104.057256,30.9598671 L104.057256,30.9598671 L104.057767,49.6683955 C104.065857,50.7500355 104.182417,50.8955952 105.264904,51.041865 L105.264904,51.041865 L108.335431,51.5596143 L108.335431,44.7807466 L116.411485,45.3916442 L117.167224,49.7439986 C117.24088,50.4309674 117.393562,50.7368043 118.072577,50.8889465 C118.97793,51.1947835 121.015741,51.6527626 123.884481,51.6527626 C127.883378,51.6527626 130.147527,50.5078147 130.147527,47.6823162 C130.147527,44.6278281 127.128406,43.7118698 123.27989,43.0241248 C116.940886,41.8791769 108.638494,40.5052394 108.638494,30.5018879 C108.638494,21.0333629 116.637823,17.1382114 125.316933,17.1382114 C131.279218,17.1382114 137.091123,18.5137013 139.204891,19.3528123 L139.204891,19.3528123 L139.204891,30.4250406 L131.128838,29.8909903 L130.373866,25.9197677 C130.299443,25.30887 130.147527,25.0038093 129.620428,24.8508909 C128.639118,24.5458302 126.827645,24.2399933 124.789834,24.2399933 C121.015741,24.2399933 118.901972,25.6907781 118.901972,28.1343686 C118.901972,31.2649278 123.053552,31.9518965 127.65704,33.0215495 C133.619325,34.395487 140.337349,36.5340168 140.337349,45.4677153 C140.337349,54.7833218 132.865887,58.601626 123.27989,58.601626 C117.07362,58.601626 111.004687,57.107372 108.88785,56.1425108 L108.88785,56.1425108 L108.88785,57.6848915 L94.9998921,57.6848915 L94.2441527,53.5615266 L93.8674339,53.4854555 C91.0002278,56.310954 87.2261344,58.601626 81.1878919,58.601626 C71.6793862,58.601626 70.1686747,52.0354469 70.1686747,47.3004081 C70.1686747,39.664576 74.8488881,36.1521087 84.2829707,35.5412111 L84.2829707,35.5412111 L92.9620812,34.9310897 L92.9620812,30.7308775 C92.9620812,27.1415629 92.5853623,24.6987486 87.905149,24.6987486 C84.2829707,24.6987486 82.3955404,25.2327989 82.3955404,29.8149192 L82.3955404,29.8149192 L71.753042,28.8974084 C71.753042,18.5897724 81.0375112,17.1382114 87.9811065,17.1382114 Z M359.184799,0 L359.184799,49.6626451 C359.184799,50.8090466 359.260526,50.9620555 360.38879,51.1142877 L360.38879,51.1142877 L364,51.6494305 L364,57.6851261 L350.004936,57.6851261 L349.253015,53.4063142 L348.725982,53.3294214 C345.566078,56.4618317 341.879141,58.601626 336.386216,58.601626 C327.507734,58.601626 321.789157,52.8711715 321.789157,38.2786287 C321.789157,22.9218183 329.387154,17.1144709 337.740133,17.1144709 C342.104793,17.1144709 345.490351,18.6422297 348.350404,20.782024 L348.350404,20.782024 L348.350404,9.16888264 C348.350404,8.40461491 348.049024,7.87024886 347.372065,7.64112388 L347.372065,7.64112388 L343.233058,6.18870452 L344.059941,0 L359.184799,0 Z M157.959474,17.1382114 C162.916646,17.1382114 167.764276,18.078233 170.497432,18.8785322 L170.497432,18.8785322 L170.688745,17.9028037 L189.887951,17.9028037 L189.887951,24.2399933 L185.638175,24.6987486 L191.709283,46.154684 L192.240795,46.154684 L198.993071,18.8948331 L210.452577,18.8948331 L216.979598,46.154684 L217.434738,46.154684 L223.125534,24.6987486 L218.800159,24.2399933 L219.785267,17.9028037 L235.722892,17.9028037 L235.722892,19.902439 C234.777897,21.2996636 233.946302,23.0298416 233.23042,24.5745509 L233.23042,24.5745509 L232.989736,24.6219013 C231.928256,24.7748198 231.473116,25.1567278 231.168403,26.1495335 L231.168403,26.1495335 L221.835713,57.6848915 L209.844695,57.6848915 L203.926329,32.1055912 L203.471188,32.1055912 L197.476451,57.6848915 L183.816842,57.6848915 L174.255039,26.0734624 C173.952641,25.1567278 173.571557,25.0038093 172.661277,24.7748198 L172.661277,24.7748198 L171.923024,24.6156914 L171.923024,30.4250406 L163.803013,29.8909903 L163.043931,25.9197677 C162.969103,25.30887 162.816361,25.0038093 162.286393,24.8508909 C161.299741,24.5458302 159.478408,24.2399933 157.429506,24.2399933 C153.63487,24.2399933 151.509596,25.6907781 151.509596,28.1343686 C151.509596,31.2649278 155.683773,31.9526727 160.312318,33.0215495 C166.307056,34.395487 173.061646,36.5340168 173.061646,45.4677153 C173.061646,54.7840981 165.549517,58.601626 155.911343,58.601626 C149.005553,58.601626 142.251734,56.7689332 140.885542,55.8529748 L140.885542,55.8529748 L140.885542,44.7807466 L149.005553,45.3916442 L149.765406,49.7439986 C149.839463,50.4309674 149.992976,50.7368043 150.675687,50.8889465 C151.585967,51.1947835 153.63487,51.6527626 156.519225,51.6527626 C160.539888,51.6527626 162.816361,50.5078147 162.816361,47.6823162 C162.816361,44.6278281 159.780807,43.7118698 155.911343,43.0241248 C149.537065,41.8791769 141.190255,40.5052394 141.190255,30.5018879 C141.190255,21.0333629 149.233124,17.1382114 157.959474,17.1382114 Z M53.041996,2.21138211 C67.031947,2.21138211 71.2650602,9.69521213 71.2650602,18.4761566 C71.2650602,31.7624582 63.3269161,37.1077184 50.5468652,37.1077184 L50.5468652,37.1077184 L45.026984,37.1077184 L45.026984,49.3251233 C45.026984,50.5477177 45.1030832,50.6998628 46.2376528,50.8527841 L46.2376528,50.8527841 L57.0498864,51.4636932 L57.0498864,57.495935 L0.885260899,57.495935 L0.885260899,51.4900188 L7.38306505,50.9567435 C8.4417047,50.881003 8.59228044,50.5772679 8.59228044,49.4372954 L8.59228044,49.4372954 L8.59228031,23.1822525 C8.59228031,22.0932162 7.77668242,22.2728994 2.09610263,24.2052351 C2.09610263,24.205235 -3.45002906e-16,17.9705516 -3.45002906e-16,17.9705516 L-3.45002906e-16,17.9705516 L12.983013,10.504065 L20.0030023,10.504065 L20.0035143,49.5903339 C20.0116156,50.6725463 20.1283596,50.8842961 21.2129859,50.9567435 L21.2129859,50.9567435 L27.4096386,51.4900188 L27.4096386,51.4636932 L32.17314,50.9288567 C33.2308418,50.7767116 33.3830402,50.5477177 33.3830402,49.4019721 L33.3830402,49.4019721 L33.3830402,10.3821937 C33.3830402,9.2372244 33.2308418,8.9306055 32.17314,8.85453296 L32.17314,8.85453296 L27.4096386,8.32047269 L27.4096386,2.21138211 Z M315.713988,16.0325203 C317.464066,16.0325203 320.966545,16.345272 322.337349,16.7358148 L322.337349,16.7358148 L322.337349,30.9469665 L313.201491,30.6350086 L312.439073,26.4962081 C312.287364,25.7929137 312.059025,25.6373316 311.449091,25.6373316 C309.4699,25.6373316 307.109887,27.3550846 305.967421,28.370337 L305.967421,28.370337 L305.967937,49.2199337 C305.976099,50.3314471 306.093722,50.5489955 307.186516,50.6249229 L307.186516,50.6249229 L314.723231,51.2488387 L314.723231,57.495935 L289.824283,57.495935 L289.824283,51.1710477 L293.252455,50.7019201 C294.317518,50.5455443 294.469228,50.3113774 294.469228,49.1405429 L294.469228,49.1405429 L294.469228,26.2612474 C294.469228,25.4031647 294.24089,24.8562461 293.480794,24.6220792 L293.480794,24.6220792 L289.818091,23.3012192 C289.699664,23.0472077 289.570402,22.8003402 289.445783,22.5502976 L289.445783,22.5502976 L290.206653,16.8136058 L303.606634,16.8136058 L304.520762,23.0599083 L304.977439,23.0599083 C307.489935,19.0782774 310.840704,16.0325203 315.713988,16.0325203 Z M93.1927711,41.4634146 L87.9025113,41.8351898 C83.3144563,42.1321565 81.6807229,43.2467264 81.6807229,46.220172 C81.6807229,49.1943733 83.5477339,50.3089431 86.1145774,50.3089431 C88.7597073,50.3089431 91.4048372,48.8958952 93.1927711,47.6332198 L93.1927711,47.6332198 L93.1927711,41.4634146 Z M341.616799,26.5365854 C336.0358,26.5365854 333.849398,31.7217697 333.849398,38.4094964 C333.849398,45.6983929 335.959138,49.7560976 340.711419,49.7560976 C343.275766,49.7560976 346.066265,48.2535552 348.10241,46.5249058 L348.10241,46.5249058 L348.10241,28.7915447 C346.216523,27.5135817 343.802434,26.5365854 341.616799,26.5365854 Z M49.9502332,11.0569106 L45.5,11.0569106 L45.5,28.7479675 L49.4846088,28.7472758 C54.404074,28.7150492 59.753012,27.5287129 59.753012,19.3516924 C59.753012,12.3039263 55.3027789,11.0569106 49.9502332,11.0569106 L49.9502332,11.0569106 Z" id="1Passw--rd"></path>
        </g>
        <g id="1Password-logo-/-dark-grey-/-128px" transform="translate(229.000000, 4.000000)" fill="#454F5B">
            <path d="M32,0 C49.6731323,0 64,14.3268677 64,32 C64,49.673684 49.6731323,64 32,64 C14.3268677,64 0,49.673684 0,32 C0,14.3268677 14.3268677,0 32,0 Z M32,2 C15.4315952,2 2,15.4315952 2,32 C2,48.5690298 15.4315952,62 32,62 C48.5684048,62 62,48.5690298 62,32 C62,15.4315952 48.5684048,2 32,2 Z M32,7 C45.807004,7 57,18.192996 57,32 C57,45.8075248 45.807004,57 32,57 C18.192996,57 7,45.8075248 7,32 C7,18.192996 18.192996,7 32,7 Z M32,13 C21.5067222,13 13,21.5067222 13,32 C13,42.4938056 21.5067222,51 32,51 C42.4932778,51 51,42.4938056 51,32 C51,21.5067222 42.4932778,13 32,13 Z M34.5510214,18 C35.3512702,18 36,18.6487298 36,19.4489786 L36,32.6999067 C36,32.8920532 35.9236701,33.0763299 35.787802,33.212198 L34.5122913,34.4877087 C34.2293606,34.7706394 34.2293606,35.2293606 34.5122913,35.5122913 L35.787802,36.787802 C35.9236701,36.9236701 36,37.1079468 36,37.3000933 L36,44.5510214 C36,45.3512702 35.3512702,46 34.5510214,46 L29.4489786,46 C28.6487298,46 28,45.3512702 28,44.5510214 L28,31.3000933 C28,31.1079468 28.0763299,30.9236701 28.212198,30.787802 L29.4877087,29.5122913 C29.7706394,29.2293606 29.7706394,28.7706394 29.4877087,28.4877087 L28.212198,27.212198 C28.0763299,27.0763299 28,26.8920532 28,26.6999067 L28,19.4489786 C28,18.6487298 28.6487298,18 29.4489786,18 L34.5510214,18 Z" id="icon"></path>
        </g>
    </g>
</svg>