<svg width="218" height="26" viewBox="0 0 218 26" xmlns="http://www.w3.org/2000/svg"><g fill="#FEFEFE" fill-rule="evenodd"><path d="M11.703 18.582c1.723-5.63 3.359-10.93 4.958-16.24.292-.972.781-1.437 1.849-1.342.998.09 2.016.083 3.016.002 1.3-.106 1.762.372 1.75 1.706-.055 5.814-.02 11.63-.018 17.444 0 1.374-.037 2.749.007 4.12.033 1.02-.403 1.332-1.393 1.346-3.202.046-3.2.08-3.198-3.155.002-3.926 0-7.853-.149-11.82l-2.857 9.18c-.514 1.652-1.01 3.31-1.558 4.951-.1.3-.406.736-.64.751a27.89 27.89 0 0 1-3.56.006c-.238-.015-.559-.434-.653-.728a1067.036 1067.036 0 0 1-3.15-10.033c-.417-1.346-.812-2.698-1.42-4.04v14.84c-1.412 0-2.675.076-3.915-.058-.284-.03-.684-.78-.698-1.21-.071-2.287-.039-4.578-.039-6.867.001-4.9.04-9.799-.017-14.697C.003 1.432.418.847 1.74 1.02c.135.018.274-.002.412-.003 4.291-.035 4.215-.013 5.402 4.117 1.266 4.407 2.697 8.767 4.149 13.447M127.951 10.503h6.321V5.59h-6.32v4.914zm6.388 10.358c0-1.66-.049-3.118.017-4.571.046-1.025-.376-1.405-1.354-1.382-1.388.032-2.783-.054-4.161.068-.355.031-.916.633-.94 1.001-.105 1.586-.045 3.183-.045 4.884h6.483zm2.008-7.76c2.51.523 2.86 2.14 2.596 4.167-.123.945.02 1.922-.032 2.88-.058 1.07.2 2.616-.386 3.104-1.429 1.192-2.835 2.606-5.135 2.41-2.906-.247-5.85-.092-8.777-.043-1.075.018-1.574-.267-1.567-1.453.039-7.234.035-14.469.01-21.703-.004-1.054.354-1.466 1.434-1.451 3.293.044 6.615-.241 9.868.121 1.538.172 2.945 1.527 4.412 2.346-.017 2.585.097 5.182-.145 7.746-.058.61-1.302 1.109-2.278 1.876zM58.946 7.936c-1.414 1.998-2.522 3.697-3.766 5.29-1.793 2.293-1.887 2.292-.4 4.697 1.15 1.856 2.459 3.612 3.678 5.426.419.623.78 1.285 1.346 2.229-1.862 0-3.396.063-4.918-.046-.367-.026-.762-.576-1.027-.964-1.074-1.574-2.102-3.178-3.21-4.865-1.214.963-1.658 2.096-1.6 3.577.09 2.32.022 2.339-2.272 2.32-2.63-.023-2.456.331-2.46-2.414-.012-7.093.024-14.186-.028-21.278C44.28.589 44.566.02 46.025.082c3.402.143 3.022-.468 3.043 3.117.022 3.566.005 7.133.247 10.87.487-.658.99-1.304 1.456-1.976.856-1.234 1.684-2.488 2.54-3.722.124-.179.34-.412.517-.416 1.562-.032 3.124-.019 5.118-.019M194.64.108v13.994l.319.134c1.242-1.744 2.545-3.45 3.699-5.252.505-.79 1.02-1.199 1.96-1.161 1.21.049 2.422.012 3.633.012l.234.417-5.421 7.589 6.606 9.716c-1.978 0-3.552.075-5.11-.053-.39-.032-.786-.68-1.08-1.112-1.049-1.54-2.055-3.108-3.076-4.665-2.16 1.44-1.691 3.634-1.74 5.85-1.36 0-2.623.074-3.866-.055-.288-.03-.709-.745-.72-1.154-.069-2.517-.039-5.035-.04-7.553 0-5.036.038-10.072-.027-15.107-.016-1.285.42-1.721 1.657-1.616.94.08 1.892.016 2.973.016M160.656 14.642h3.86V12.48h-3.86v2.163zm.075 4.044c-.319 2.31-.319 2.311 1.805 2.312 1.828.001 3.656.037 5.482-.014.951-.026 1.275.367 1.334 1.276.217 3.348.238 3.346-3.086 3.344-1.874 0-3.747-.032-5.62.008-2.011.042-3.04-1.664-4.547-2.513-.166-.093-.137-.596-.138-.91-.009-3.658-.039-7.317.03-10.974.01-.52.432-1.107.811-1.531 2.398-2.686 5.627-2.04 8.58-1.774 1.273.115 2.564 1.318 3.591 2.296.453.43.334 1.53.361 2.329.05 1.461-.059 2.931.038 4.388.088 1.333-.279 1.879-1.733 1.797-2.273-.128-4.559-.034-6.908-.034zM66.036 14.642h3.987v-2.256c-.802 0-1.56-.002-2.317 0-1.86.004-1.919.077-1.67 2.256m8.555 4.03h-8.37c-.67 1.952-.426 2.327 1.419 2.328 1.92 0 3.842.032 5.762-.01.864-.02 1.192.243 1.21 1.164.069 3.455.101 3.454-3.306 3.45-1.647-.001-3.297-.071-4.939.018-2.139.117-3.304-1.537-4.823-2.535-.225-.148-.196-.765-.197-1.165-.015-3.479.01-6.958-.026-10.437-.01-.93.492-1.356 1.104-1.984 2.423-2.489 5.454-1.805 8.26-1.601 1.276.092 2.58 1.269 3.639 2.214.415.37.247 1.452.257 2.212.028 2.052.01 4.105.01 6.345M89.964 12.478c0 2.727-.023 5.36.033 7.992.006.285.442.774.72.805 1.209.134 2.433.173 3.65.146.22-.005.613-.478.618-.74.045-2.721.028-5.442.028-8.203h-5.049zm9.67 4.264c0 1.783-.03 3.567.014 5.35.02.811-.366 1.224-.924 1.79-2.768 2.808-6.229 1.978-9.443 1.729-1.303-.101-2.52-1.477-3.734-2.334-.177-.125-.153-.593-.154-.903-.01-3.703.007-7.406-.02-11.11-.006-.763.368-1.124.89-1.653 2.775-2.81 6.251-1.818 9.454-1.699 1.246.047 2.556 1.295 3.609 2.248.42.38.277 1.44.297 2.193.039 1.462.011 2.926.011 4.39zM181.34 21.536c.051-.588.194-1.14.112-1.658-.058-.373-.388-.974-.643-.999-1.14-.108-2.298-.047-3.445-.047v2.704h3.976zm-.193-9.122h-6.838c0-1.324-.067-2.546.047-3.75.029-.303.633-.774.985-.786 2.1-.074 4.262-.33 6.289.063 1.456.283 2.846 1.35 4.037 2.34.453.377.355 1.519.362 2.314.031 3.797.015 7.596.011 11.394-.001 1.756-.71 2.275-2.383 1.642-.711-.269-1.344-.747-1.916-.827-1.46.326-3.009 1.114-4.359.857-1.576-.3-2.992-1.493-4.44-2.359-.17-.102-.145-.59-.15-.9-.017-.96.114-1.94-.03-2.878-.283-1.848.573-2.778 2.063-3.776 1.607-1.076 3.217-1.014 4.918-1.027 1.893-.014 2.068-.274 1.404-2.307zM35.89 21.551c-.216-1.012-.215-2.452-.607-2.568-1.072-.319-2.375-.286-3.444.055-.353.113-.273 1.589-.401 2.513h4.452zm-.243-6.828v-2.231h-7.056c0-1.447-.042-2.754.041-4.054.014-.216.571-.561.883-.568 2.15-.05 4.364-.337 6.431.08 1.493.3 2.822 1.525 4.15 2.444.25.172.205.847.206 1.29.013 4.169.012 8.337.005 12.506-.003 1.539-.253 1.838-1.753 1.536-.943-.19-1.81-.754-2.837-1.206-3.172 2.005-5.652 1.74-8.43-1.057-.12-1.886-.331-3.774-.3-5.657.009-.483.733-1.01 1.212-1.418 1.76-1.495 3.82-1.966 6.087-1.672.4.052.812.007 1.361.007zM147.888 9.401c1.363-1.428 2.832-1.687 4.447-1.576.807.055 1.09.38 1.128 1.183.16 3.414.182 3.413-3.2 3.41h-2.212c-.03.56-.08 1.04-.08 1.52-.008 3.43-.033 6.862.01 10.292.011.95-.172 1.416-1.266 1.389-4.063-.102-3.303.512-3.348-3.292-.052-4.299.04-8.6-.038-12.898-.023-1.305.436-1.702 1.655-1.614 1.161.084 2.48-.29 2.904 1.586M108.296 9.328c1.238-1.267 2.633-1.663 4.206-1.496.181.019.42-.052.538.04 1.327 1.037.263 2.532.648 3.77.042.135-.662.694-1.055.738-.992.109-2.01.09-3.01.021-.969-.067-1.268.305-1.256 1.256.044 3.383-.033 6.768.043 10.15.03 1.335-.32 1.87-1.756 1.827-2.872-.086-2.876-.01-2.876-2.936l.001-13.031c0-1.829.003-1.793 1.77-1.85 1.19-.038 2.305-.037 2.747 1.51M209.048 19.405h8.876c0 1.907.029 3.763-.04 5.615-.008.201-.572.54-.883.547-2.327.046-4.657.057-6.983-.014-.33-.01-.911-.507-.926-.801-.089-1.723-.044-3.452-.044-5.347"/></g></svg>